<svg width="122" height="38" viewBox="0 0 122 38" fill="none" xmlns="http://www.w3.org/2000/svg">
<path d="M15.8164 27.4414C15.8164 26.4388 15.4583 25.6576 14.7422 25.0977C14.0391 24.5378 12.7956 23.9583 11.0117 23.3594C9.22786 22.7604 7.76953 22.181 6.63672 21.6211C2.95182 19.8112 1.10938 17.3242 1.10938 14.1602C1.10938 12.5846 1.5651 11.1979 2.47656 10C3.40104 8.78906 4.70312 7.85156 6.38281 7.1875C8.0625 6.51042 9.95052 6.17188 12.0469 6.17188C14.0911 6.17188 15.9206 6.53646 17.5352 7.26562C19.1628 7.99479 20.4258 9.03646 21.3242 10.3906C22.2227 11.7318 22.6719 13.2682 22.6719 15H15.8359C15.8359 13.8411 15.4779 12.9427 14.7617 12.3047C14.0586 11.6667 13.1016 11.3477 11.8906 11.3477C10.6667 11.3477 9.69661 11.6211 8.98047 12.168C8.27734 12.7018 7.92578 13.3854 7.92578 14.2188C7.92578 14.9479 8.31641 15.612 9.09766 16.2109C9.87891 16.7969 11.2526 17.4089 13.2188 18.0469C15.1849 18.6719 16.7995 19.349 18.0625 20.0781C21.1354 21.849 22.6719 24.2904 22.6719 27.4023C22.6719 29.8893 21.7344 31.8424 19.8594 33.2617C17.9844 34.681 15.4128 35.3906 12.1445 35.3906C9.83984 35.3906 7.75 34.9805 5.875 34.1602C4.01302 33.3268 2.60677 32.194 1.65625 30.7617C0.71875 29.3164 0.25 27.6562 0.25 25.7812H7.125C7.125 27.3047 7.51562 28.431 8.29688 29.1602C9.09115 29.8763 10.3737 30.2344 12.1445 30.2344C13.2773 30.2344 14.1693 29.9935 14.8203 29.5117C15.4844 29.0169 15.8164 28.3268 15.8164 27.4414ZM33.5508 8.61328V13.8672H37.0273V18.4375H33.5508V28.1055C33.5508 28.8997 33.694 29.4531 33.9805 29.7656C34.2669 30.0781 34.8333 30.2344 35.6797 30.2344C36.3307 30.2344 36.8776 30.1953 37.3203 30.1172V34.8242C36.1354 35.2018 34.8984 35.3906 33.6094 35.3906C31.3438 35.3906 29.6706 34.8568 28.5898 33.7891C27.5091 32.7214 26.9688 31.1003 26.9688 28.9258V18.4375H24.2734V13.8672H26.9688V8.61328H33.5508ZM52.2227 32.7148C50.8294 34.4987 48.9479 35.3906 46.5781 35.3906C44.2604 35.3906 42.5026 34.7201 41.3047 33.3789C40.1198 32.0247 39.5273 30.0846 39.5273 27.5586V13.8672H46.1094V27.5977C46.1094 29.4076 46.9883 30.3125 48.7461 30.3125C50.2565 30.3125 51.3307 29.7721 51.9688 28.6914V13.8672H58.5898V35H52.418L52.2227 32.7148ZM61.3828 24.2773C61.3828 20.931 62.1055 18.2943 63.5508 16.3672C64.9961 14.4401 67.0143 13.4766 69.6055 13.4766C71.4935 13.4766 73.082 14.2188 74.3711 15.7031V5H80.9727V35H75.0547L74.7227 32.7344C73.3685 34.5052 71.6497 35.3906 69.5664 35.3906C67.0534 35.3906 65.0612 34.4271 63.5898 32.5C62.1185 30.5729 61.3828 27.832 61.3828 24.2773ZM67.9648 24.6875C67.9648 28.4375 69.0586 30.3125 71.2461 30.3125C72.7044 30.3125 73.7461 29.7005 74.3711 28.4766V20.4297C73.7721 19.1797 72.7435 18.5547 71.2852 18.5547C69.2539 18.5547 68.1536 20.1953 67.9844 23.4766L67.9648 24.6875Z" fill="#37447E"/>
<g clip-path="url(#clip0)">
<path d="M92.8223 11.4081L84.1675 30.9807C84.0575 31.2165 83.999 31.468 83.9948 31.7225C83.9948 35.4625 88.715 37.6726 91.6949 34.425C91.8457 34.2597 91.9678 34.0761 92.0575 33.88L100.414 15.5625C100.652 15.043 100.644 14.4628 100.391 13.9485C99.5988 12.3089 97.5098 9.00577 94.131 10.3841C93.5699 10.6123 93.0485 10.9036 92.8223 11.4081Z" fill="url(#paint0_linear)"/>
<path d="M112.504 16.591V22.4271L116.694 30.7345C116.782 30.9121 116.911 31.0721 117.073 31.2045C118.259 32.1654 119.811 32.4312 120.446 30.8246V16.606C120.446 11.7219 112.504 11.839 112.504 16.591Z" fill="url(#paint1_linear)"/>
<path d="M120.446 29.8757C119.756 31.3771 117.166 30.7765 116.475 29.7255L105.346 9.4772C105.284 9.36309 105.219 9.25048 105.144 9.14238C102.442 5.26117 94.5229 5.63803 92.6497 11.8585C95.1393 10.5582 97.4441 10.5432 99.9009 15.6121L109.511 33.3185C110.002 34.2272 110.863 34.9452 111.928 35.3334C115.973 36.7823 120.745 34.6803 120.446 29.8757Z" fill="url(#paint2_linear)"/>
<path d="M116.13 11.8585C118.037 11.8585 119.583 10.5141 119.583 8.85565C119.583 7.19721 118.037 5.85278 116.13 5.85278C114.223 5.85278 112.677 7.19721 112.677 8.85565C112.677 10.5141 114.223 11.8585 116.13 11.8585Z" fill="url(#paint3_linear)"/>
<path d="M111.641 4.9519V7.05391C111.582 7.06892 111.468 7.05391 111.468 7.20405V8.77305C111.469 8.80134 111.476 8.82921 111.49 8.85501C111.503 8.88081 111.522 8.90401 111.546 8.9232C111.58 8.95436 111.621 8.97918 111.667 8.99614C111.712 9.0131 111.761 9.02184 111.81 9.02184C111.86 9.02184 111.909 9.0131 111.954 8.99614C111.999 8.97918 112.04 8.95436 112.074 8.9232C112.1 8.90484 112.121 8.88195 112.135 8.85606C112.15 8.83017 112.158 8.80187 112.159 8.77305V7.20405C112.159 7.16423 112.141 7.12605 112.108 7.09789C112.076 7.06973 112.032 7.05391 111.986 7.05391V4.9519H111.641Z" fill="url(#paint4_linear)"/>
<path d="M113.022 5.55249H119.238V7.6545C116.648 9.08086 115.612 9.08086 113.022 7.6545V5.55249Z" fill="url(#paint5_linear)"/>
<path d="M110.26 4.80172L116.13 3L122 4.80172L116.13 7.05387L110.26 4.80172Z" fill="url(#paint6_linear)"/>
</g>
<defs>
<linearGradient id="paint0_linear" x1="84" y1="23.0277" x2="100.592" y2="23.0277" gradientUnits="userSpaceOnUse">
<stop stop-color="#A08DDD"/>
<stop offset="1" stop-color="#43FFE8"/>
</linearGradient>
<linearGradient id="paint1_linear" x1="116.475" y1="31.9777" x2="116.475" y2="12.9846" gradientUnits="userSpaceOnUse">
<stop stop-color="#DB5C78"/>
<stop offset="1" stop-color="#5800CC"/>
</linearGradient>
<linearGradient id="paint2_linear" x1="92.6497" y1="21.2034" x2="120.46" y2="21.2034" gradientUnits="userSpaceOnUse">
<stop stop-color="#8EFFFF"/>
<stop offset="1" stop-color="#E94A60"/>
</linearGradient>
<linearGradient id="paint3_linear" x1="116.13" y1="11.8585" x2="116.13" y2="5.85278" gradientUnits="userSpaceOnUse">
<stop stop-color="#2E3192"/>
<stop offset="1" stop-color="#0D54D1"/>
</linearGradient>
<linearGradient id="paint4_linear" x1="111.814" y1="9.02529" x2="111.814" y2="4.9519" gradientUnits="userSpaceOnUse">
<stop stop-color="#2E3192"/>
<stop offset="1"/>
</linearGradient>
<linearGradient id="paint5_linear" x1="3661.99" y1="947.983" x2="3661.99" y2="880.963" gradientUnits="userSpaceOnUse">
<stop stop-color="#787CFF"/>
<stop offset="1" stop-color="#0D0E4B"/>
</linearGradient>
<linearGradient id="paint6_linear" x1="2295.1" y1="112.454" x2="2295.1" y2="3" gradientUnits="userSpaceOnUse">
<stop stop-color="#2E3192"/>
<stop offset="1" stop-color="#0B0C2E"/>
</linearGradient>
<clipPath id="clip0">
<rect width="38" height="33" fill="white" transform="translate(84 3)"/>
</clipPath>
</defs>
</svg>
