<svg width="121" height="38" viewBox="0 0 121 38" fill="none" xmlns="http://www.w3.org/2000/svg">
<g clip-path="url(#clip0)">
<path d="M93.8275 11.4079L85.1726 30.9806C85.0627 31.2164 85.0041 31.4679 85 31.7223C85 35.4624 89.7202 37.6725 92.7001 34.4249C92.8508 34.2595 92.973 34.0759 93.0627 33.8799L101.419 15.5624C101.657 15.0429 101.649 14.4627 101.396 13.9484C100.604 12.3088 98.5149 9.00564 95.1362 10.384C94.5751 10.6122 94.0537 10.9035 93.8275 11.4079Z" fill="url(#paint0_linear)"/>
<path d="M113.51 16.591V22.4271L117.7 30.7345C117.787 30.9121 117.916 31.0721 118.078 31.2045C119.264 32.1654 120.816 32.4312 121.451 30.8246V16.606C121.451 11.7219 113.51 11.839 113.51 16.591Z" fill="url(#paint1_linear)"/>
<path d="M121.451 29.8757C120.761 31.3771 118.171 30.7765 117.48 29.7255L106.351 9.4772C106.289 9.36309 106.224 9.25048 106.149 9.14238C103.448 5.26117 95.5281 5.63803 93.6549 11.8585C96.1445 10.5582 98.4494 10.5432 100.906 15.6121L110.516 33.3185C111.007 34.2272 111.868 34.9452 112.933 35.3334C116.978 36.7823 121.75 34.6803 121.451 29.8757Z" fill="url(#paint2_linear)"/>
<path d="M117.135 11.8585C119.042 11.8585 120.588 10.5141 120.588 8.85565C120.588 7.19721 119.042 5.85278 117.135 5.85278C115.228 5.85278 113.682 7.19721 113.682 8.85565C113.682 10.5141 115.228 11.8585 117.135 11.8585Z" fill="url(#paint3_linear)"/>
<path d="M112.646 4.9519V7.05391C112.588 7.06892 112.474 7.05391 112.474 7.20405V8.77305C112.474 8.80134 112.482 8.82921 112.495 8.85501C112.508 8.88081 112.527 8.90401 112.551 8.9232C112.585 8.95436 112.626 8.97918 112.672 8.99614C112.717 9.0131 112.766 9.02184 112.815 9.02184C112.865 9.02184 112.914 9.0131 112.959 8.99614C113.005 8.97918 113.046 8.95436 113.08 8.9232C113.105 8.90484 113.126 8.88195 113.141 8.85606C113.155 8.83017 113.163 8.80187 113.164 8.77305V7.20405C113.164 7.16423 113.146 7.12605 113.114 7.09789C113.081 7.06973 113.037 7.05391 112.992 7.05391V4.9519H112.646Z" fill="url(#paint4_linear)"/>
<path d="M114.027 5.55249H120.243V7.6545C117.653 9.08086 116.617 9.08086 114.027 7.6545V5.55249Z" fill="url(#paint5_linear)"/>
<path d="M111.265 4.80172L117.135 3L123.005 4.80172L117.135 7.05387L111.265 4.80172Z" fill="url(#paint6_linear)"/>
</g>
<path d="M15.8164 27.4414C15.8164 26.4388 15.4583 25.6576 14.7422 25.0977C14.0391 24.5378 12.7956 23.9583 11.0117 23.3594C9.22786 22.7604 7.76953 22.181 6.63672 21.6211C2.95182 19.8112 1.10938 17.3242 1.10938 14.1602C1.10938 12.5846 1.5651 11.1979 2.47656 10C3.40104 8.78906 4.70312 7.85156 6.38281 7.1875C8.0625 6.51042 9.95052 6.17188 12.0469 6.17188C14.0911 6.17188 15.9206 6.53646 17.5352 7.26562C19.1628 7.99479 20.4258 9.03646 21.3242 10.3906C22.2227 11.7318 22.6719 13.2682 22.6719 15H15.8359C15.8359 13.8411 15.4779 12.9427 14.7617 12.3047C14.0586 11.6667 13.1016 11.3477 11.8906 11.3477C10.6667 11.3477 9.69661 11.6211 8.98047 12.168C8.27734 12.7018 7.92578 13.3854 7.92578 14.2188C7.92578 14.9479 8.31641 15.612 9.09766 16.2109C9.87891 16.7969 11.2526 17.4089 13.2188 18.0469C15.1849 18.6719 16.7995 19.349 18.0625 20.0781C21.1354 21.849 22.6719 24.2904 22.6719 27.4023C22.6719 29.8893 21.7344 31.8424 19.8594 33.2617C17.9844 34.681 15.4128 35.3906 12.1445 35.3906C9.83984 35.3906 7.75 34.9805 5.875 34.1602C4.01302 33.3268 2.60677 32.194 1.65625 30.7617C0.71875 29.3164 0.25 27.6562 0.25 25.7812H7.125C7.125 27.3047 7.51562 28.431 8.29688 29.1602C9.09115 29.8763 10.3737 30.2344 12.1445 30.2344C13.2773 30.2344 14.1693 29.9935 14.8203 29.5117C15.4844 29.0169 15.8164 28.3268 15.8164 27.4414ZM33.5508 8.61328V13.8672H37.0273V18.4375H33.5508V28.1055C33.5508 28.8997 33.694 29.4531 33.9805 29.7656C34.2669 30.0781 34.8333 30.2344 35.6797 30.2344C36.3307 30.2344 36.8776 30.1953 37.3203 30.1172V34.8242C36.1354 35.2018 34.8984 35.3906 33.6094 35.3906C31.3438 35.3906 29.6706 34.8568 28.5898 33.7891C27.5091 32.7214 26.9688 31.1003 26.9688 28.9258V18.4375H24.2734V13.8672H26.9688V8.61328H33.5508ZM52.2227 32.7148C50.8294 34.4987 48.9479 35.3906 46.5781 35.3906C44.2604 35.3906 42.5026 34.7201 41.3047 33.3789C40.1198 32.0247 39.5273 30.0846 39.5273 27.5586V13.8672H46.1094V27.5977C46.1094 29.4076 46.9883 30.3125 48.7461 30.3125C50.2565 30.3125 51.3307 29.7721 51.9688 28.6914V13.8672H58.5898V35H52.418L52.2227 32.7148ZM61.3828 24.2773C61.3828 20.931 62.1055 18.2943 63.5508 16.3672C64.9961 14.4401 67.0143 13.4766 69.6055 13.4766C71.4935 13.4766 73.082 14.2188 74.3711 15.7031V5H80.9727V35H75.0547L74.7227 32.7344C73.3685 34.5052 71.6497 35.3906 69.5664 35.3906C67.0534 35.3906 65.0612 34.4271 63.5898 32.5C62.1185 30.5729 61.3828 27.832 61.3828 24.2773ZM67.9648 24.6875C67.9648 28.4375 69.0586 30.3125 71.2461 30.3125C72.7044 30.3125 73.7461 29.7005 74.3711 28.4766V20.4297C73.7721 19.1797 72.7435 18.5547 71.2852 18.5547C69.2539 18.5547 68.1536 20.1953 67.9844 23.4766L67.9648 24.6875Z" fill="#37447E"/>
<defs>
<linearGradient id="paint0_linear" x1="85.0052" y1="23.0275" x2="101.597" y2="23.0275" gradientUnits="userSpaceOnUse">
<stop stop-color="#A08DDD"/>
<stop offset="1" stop-color="#43FFE8"/>
</linearGradient>
<linearGradient id="paint1_linear" x1="117.48" y1="31.9777" x2="117.48" y2="12.9846" gradientUnits="userSpaceOnUse">
<stop stop-color="#DB5C78"/>
<stop offset="1" stop-color="#5800CC"/>
</linearGradient>
<linearGradient id="paint2_linear" x1="93.6549" y1="21.2034" x2="121.465" y2="21.2034" gradientUnits="userSpaceOnUse">
<stop stop-color="#8EFFFF"/>
<stop offset="1" stop-color="#E94A60"/>
</linearGradient>
<linearGradient id="paint3_linear" x1="117.135" y1="11.8585" x2="117.135" y2="5.85278" gradientUnits="userSpaceOnUse">
<stop stop-color="#2E3192"/>
<stop offset="1" stop-color="#0D54D1"/>
</linearGradient>
<linearGradient id="paint4_linear" x1="112.819" y1="9.02529" x2="112.819" y2="4.9519" gradientUnits="userSpaceOnUse">
<stop stop-color="#2E3192"/>
<stop offset="1"/>
</linearGradient>
<linearGradient id="paint5_linear" x1="3663" y1="947.983" x2="3663" y2="880.963" gradientUnits="userSpaceOnUse">
<stop stop-color="#787CFF"/>
<stop offset="1" stop-color="#0D0E4B"/>
</linearGradient>
<linearGradient id="paint6_linear" x1="2296.1" y1="112.454" x2="2296.1" y2="3" gradientUnits="userSpaceOnUse">
<stop stop-color="#2E3192"/>
<stop offset="1" stop-color="#0B0C2E"/>
</linearGradient>
<clipPath id="clip0">
<rect width="38" height="33" fill="white" transform="translate(83 2)"/>
</clipPath>
</defs>
</svg>
