<svg width="546" height="375" viewBox="0 0 546 375" fill="none" xmlns="http://www.w3.org/2000/svg">
<path d="M450.065 334.625L450.595 347.312V358.414H464.353V334.625H450.065Z" fill="#FFB9B9"/>
<path d="M525.738 322.994L526.267 335.682V346.783H540.026L537.38 320.88L525.738 322.994Z" fill="#FFB9B9"/>
<path d="M511.979 117.352L507.746 150.656L493.987 190.305L487.637 167.573L495.575 153.3L493.987 123.167L511.979 117.352Z" fill="#FFB9B9"/>
<path d="M445.832 114.18C445.832 114.18 434.19 134.797 435.778 136.912C437.365 139.026 438.424 150.656 438.424 150.656H442.83L450.065 132.683L445.832 114.18Z" fill="#2F2E41"/>
<path d="M474.672 59.4653C484.901 59.4653 493.193 51.1814 493.193 40.9628C493.193 30.7441 484.901 22.4602 474.672 22.4602C464.443 22.4602 456.151 30.7441 456.151 40.9628C456.151 51.1814 464.443 59.4653 474.672 59.4653Z" fill="#FFB9B9"/>
<path d="M467.793 55.7648C467.793 55.7648 477.847 69.5096 474.672 76.382C471.497 83.2543 505.364 72.6815 505.364 72.6815C505.364 72.6815 488.431 53.6503 487.902 47.3065L467.793 55.7648Z" fill="#FFB9B9"/>
<path d="M505.364 117.088C504.174 118.874 503.004 120.867 501.872 122.971C501.337 123.97 500.814 124.996 500.295 126.032C494.146 138.413 489.489 153.035 489.489 153.035L440.276 151.449L441.805 146.967L448.742 126.603C436.571 119.202 448.213 104.929 454.563 91.7126C460.395 79.5749 472.481 71.5025 474.408 70.2655C474.582 70.1598 474.672 70.1016 474.672 70.1016L474.894 70.0646L483.726 68.5791L499.633 65.9042H499.639C502.433 66.3738 505.111 67.3791 507.523 68.8646C509.535 70.1323 511.236 71.8339 512.503 73.8444C514.434 76.9106 515.339 80.6005 515.503 84.5495C515.98 96.1109 510.138 109.935 505.364 117.088Z" fill="#D0CDE1"/>
<path d="M508.275 73.4744C508.275 73.4744 517.8 84.5759 518.329 94.0915C518.858 103.607 516.742 121.581 511.979 121.581C507.217 121.581 498.75 124.753 499.279 121.581C499.808 118.409 508.275 73.4744 508.275 73.4744Z" fill="#D0CDE1"/>
<path d="M499.279 93.5629L493.458 94.6201C491.484 78.8295 480.064 72.4699 474.408 70.2655C474.582 70.1598 474.672 70.1016 474.672 70.1016L474.894 70.0646L483.726 68.5791C495.395 74.5898 499.279 93.5629 499.279 93.5629Z" fill="#2F2E41"/>
<path d="M538.967 320.88C538.438 324.052 523.092 329.867 518.858 329.338C514.625 328.81 472.82 226.781 472.82 226.781C472.82 226.781 472.82 340.44 471.762 342.554C470.703 344.669 452.711 342.554 446.361 335.153C440.011 327.752 435.778 211.979 433.132 192.419C430.486 172.86 438.424 147.485 438.424 147.485L441.805 146.967L452.182 145.37C452.182 145.37 452.182 142.727 468.057 130.039C483.933 117.352 493.458 94.6201 493.458 94.6201L495.046 91.4483L499.279 93.5628C503.819 85.1732 506.661 76.9264 507.524 68.8646C509.535 70.1323 511.236 71.8339 512.503 73.8444C512.101 74.9546 511.699 76.1546 511.286 77.4392C507.719 88.5355 503.676 105.722 499.655 122.644C499.528 123.172 499.406 123.701 499.279 124.224C499.662 124.801 500.002 125.405 500.295 126.032C501.364 128.29 502.496 132.127 499.279 134.269C494.516 137.44 492.929 153.3 492.929 153.3C501.925 161.229 504.042 198.763 502.983 201.406C501.925 204.05 501.925 203.521 504.571 205.107C507.217 206.693 507.217 219.909 507.217 219.909C507.217 219.909 539.496 317.708 538.967 320.88Z" fill="#2F2E41"/>
<path d="M458.003 352.07C458.003 352.07 454.828 355.242 452.711 353.656C450.595 352.07 450.512 345.323 450.512 345.323C450.512 345.323 426.252 343.083 431.015 358.942C435.778 374.802 469.116 376.916 470.174 373.744C471.233 370.573 466.47 350.484 466.47 350.484L458.003 352.07Z" fill="#2F2E41"/>
<path d="M533.675 340.44C533.675 340.44 530.5 343.612 528.384 342.026C526.267 340.44 526.184 333.693 526.184 333.693C526.184 333.693 501.925 331.453 506.687 347.312C511.45 363.172 544.788 365.286 545.847 362.114C546.905 358.942 542.142 338.854 542.142 338.854L533.675 340.44Z" fill="#2F2E41"/>
<path d="M459.591 105.193L457.474 133.211L430.486 163.344C430.486 163.344 421.49 167.573 426.782 174.974C432.073 182.375 434.19 182.904 434.19 182.904L434.719 173.388L471.233 144.313L474.937 105.193H459.591Z" fill="#FFB9B9"/>
<path d="M476.524 93.5629C476.524 93.5629 478.641 69.7739 468.057 71.8884C457.474 74.003 456.945 84.0473 456.945 84.0473C456.945 84.0473 452.182 108.365 456.416 109.422C460.649 110.479 474.937 112.594 476.524 109.422C478.112 106.25 476.524 93.5629 476.524 93.5629Z" fill="#D0CDE1"/>
<path d="M522.365 56.5361C520.304 55.5165 515.753 53.4588 511.877 50.9797C512.149 42.9147 511.154 35.5935 508.244 31.7127C506.611 28.0075 503.181 24.298 500.494 21.3767C493.897 14.2027 479.308 10.1983 476.721 13.7827C457.151 14.1687 455.091 29.4929 455.091 29.4929C455.193 35.9026 461.861 36.1054 467.703 35.8718C467.18 40.2477 468.574 44.7945 472.611 46.8108C480.33 50.6668 482.646 55.6795 478.786 59.1498C474.927 62.6202 467.979 71.8744 477.243 74.1879C486.506 76.5014 487.664 81.1286 484.962 83.0565C482.26 84.9845 491.138 79.5862 491.138 79.5862C491.138 79.5862 492.682 88.8404 500.787 86.5269C501.638 86.2258 502.387 85.6951 502.954 84.9937C505.143 87.3967 507.096 88.8174 508.568 88.8252C516.997 88.8699 515.987 79.5425 515.987 79.5425C515.987 79.5425 525.992 82.3498 522.87 81.221C519.748 80.0921 519.614 75.3245 527.91 70.6015C536.206 65.8785 527.018 58.8383 522.365 56.5361Z" fill="#2F2E41"/>
<path d="M388.945 0.528809H0.529175V221.488H388.945V0.528809Z" fill="#F2F2F2"/>
<path d="M389.475 222.016H0V0H270.602V1.05729H1.05835V220.959H388.416V124.581H389.475V222.016Z" fill="#3F3D56"/>
<path d="M18.5114 23.639C22.1529 23.639 25.1049 20.69 25.1049 17.0522C25.1049 13.4144 22.1529 10.4653 18.5114 10.4653C14.8699 10.4653 11.9179 13.4144 11.9179 17.0522C11.9179 20.69 14.8699 23.639 18.5114 23.639Z" fill="#6F7CB2"/>
<path d="M35.9743 23.639C39.6157 23.639 42.5677 20.69 42.5677 17.0522C42.5677 13.4144 39.6157 10.4653 35.9743 10.4653C32.3328 10.4653 29.3808 13.4144 29.3808 17.0522C29.3808 20.69 32.3328 23.639 35.9743 23.639Z" fill="#6F7CB2"/>
<path d="M53.4371 23.639C57.0786 23.639 60.0306 20.69 60.0306 17.0522C60.0306 13.4144 57.0786 10.4653 53.4371 10.4653C49.7956 10.4653 46.8436 13.4144 46.8436 17.0522C46.8436 20.69 49.7956 23.639 53.4371 23.639Z" fill="#6F7CB2"/>
<path d="M348.199 34.619H53.4469V35.6763H348.199V34.619Z" fill="#3F3D56"/>
<path d="M172.512 69.5095H21.6963V202.199H172.512V69.5095Z" fill="white"/>
<path d="M368.837 69.5095H218.021V202.199H368.837V69.5095Z" fill="white"/>
<path d="M109.621 98.2428C103.864 88.5252 92.4743 88.0723 92.4743 88.0723C92.4743 88.0723 81.3759 86.6545 74.2563 101.454C67.6202 115.249 58.4617 128.568 72.7818 131.798L75.3684 123.755L76.9703 132.396C79.0092 132.543 81.0546 132.578 83.0974 132.501C98.4331 132.006 113.038 132.646 112.568 127.148C111.943 119.84 115.16 107.593 109.621 98.2428Z" fill="#2F2E41"/>
<path d="M93.6214 125.878C101.831 125.878 108.486 119.23 108.486 111.028C108.486 102.827 101.831 96.179 93.6214 96.179C85.4119 96.179 78.7569 102.827 78.7569 111.028C78.7569 119.23 85.4119 125.878 93.6214 125.878Z" fill="#A0616A"/>
<path d="M87.5404 120.703C87.5404 120.703 94.297 136.453 85.2883 139.603L94.297 169.302L109.612 168.402L113.666 158.502L112.765 143.652L111.414 133.753C111.414 133.753 101.955 136.003 102.855 119.353L87.5404 120.703Z" fill="#A0616A"/>
<path d="M83.9369 139.153C83.9369 139.153 69.0724 137.803 70.4237 148.602C71.7751 159.402 73.1264 161.652 73.1264 161.652L74.4777 177.851L66.3698 182.801H58.7123C58.7123 182.801 35.2895 188.201 47.0009 194.051C58.7123 199.901 62.7663 189.551 62.7663 189.551C62.7663 189.551 84.3873 189.551 85.7387 185.951C87.09 182.351 83.9369 139.153 83.9369 139.153Z" fill="#A0616A"/>
<path d="M112.765 134.653C112.765 134.653 126.729 129.703 127.63 140.503C128.53 151.302 128.53 152.202 128.53 152.202L131.233 167.502C131.233 167.502 136.638 181.001 136.638 185.051C136.638 189.101 140.692 201.701 140.692 201.701C140.692 201.701 146.098 219.25 140.242 218.8C134.386 218.35 133.485 199.901 133.485 199.901L121.323 175.601L117.72 160.752L112.765 134.653Z" fill="#A0616A"/>
<path d="M86.1891 137.353H82.5856L82.1352 156.252C82.1352 156.252 76.2795 164.352 83.4865 171.552L85.2882 183.251L118.17 181.901L120.422 169.752C120.422 169.752 124.927 159.852 118.621 150.852L112.765 132.403H109.612C109.612 132.403 116.915 159.302 101.504 159.852C88.8918 160.302 86.1891 137.353 86.1891 137.353Z" fill="#6F7CB2"/>
<path d="M127.415 202.199H80.1439C82.6363 194.946 84.2292 190.448 84.3773 190.035C84.3798 190.024 84.3834 190.014 84.3879 190.004L85.4833 186.356L85.9384 184.844L86.4306 183.205L87.092 181.001L116.366 180.102L117.186 181.942L119.97 188.201C120.212 188.273 120.443 188.382 120.652 188.523C122.732 189.887 125.029 194.825 127.415 202.199Z" fill="#2F2E41"/>
<path d="M119.522 176.501L83.9369 177.851C83.9369 177.851 82.3129 190.001 83.9369 190.001C84.3874 190.001 121.323 193.151 120.873 187.751C120.422 182.351 119.522 176.501 119.522 176.501Z" fill="#3F3D56"/>
<path d="M93.8683 96.3485C98.4165 96.3485 102.104 92.6651 102.104 88.1215C102.104 83.5779 98.4165 79.8945 93.8683 79.8945C89.3201 79.8945 85.633 83.5779 85.633 88.1215C85.633 92.6651 89.3201 96.3485 93.8683 96.3485Z" fill="#2F2E41"/>
<path d="M84.7662 85.9565C84.7664 83.9246 85.5192 81.9647 86.8797 80.4543C88.2401 78.9439 90.1119 77.9898 92.1345 77.7758C91.8466 77.7453 91.5572 77.7299 91.2677 77.7296C90.1492 77.7289 89.0423 77.9558 88.0145 78.3964C86.9867 78.8371 86.0596 79.4823 85.2896 80.2927C84.5196 81.1031 83.9229 82.0616 83.5359 83.11C83.1489 84.1583 82.9797 85.2744 83.0387 86.3901C83.0976 87.5059 83.3835 88.598 83.8788 89.5998C84.3741 90.6016 85.0685 91.4921 85.9196 92.217C86.7707 92.9419 87.7607 93.486 88.8292 93.8162C89.8977 94.1463 91.0224 94.2556 92.1345 94.1372C90.1119 93.9233 88.2401 92.9692 86.8797 91.4588C85.5192 89.9483 84.7664 87.9884 84.7662 85.9565Z" fill="#2F2E41"/>
<path d="M107.075 97.306L95.8234 91.418L80.2841 93.8265L77.0694 108.012L85.0721 107.704L87.3079 102.493V107.618L91.001 107.477L93.1442 99.1795L94.4836 108.012L107.611 107.744L107.075 97.306Z" fill="#2F2E41"/>
<path d="M286.294 116.922C294.571 116.922 301.282 110.218 301.282 101.949C301.282 93.6798 294.571 86.9762 286.294 86.9762C278.016 86.9762 271.306 93.6798 271.306 101.949C271.306 110.218 278.016 116.922 286.294 116.922Z" fill="#FFB9B9"/>
<path d="M280.439 113.413C280.439 113.413 282.312 122.303 282.312 123.239C282.312 124.174 291.212 128.386 291.212 128.386L299.174 126.982L301.984 118.56C301.984 118.56 297.3 111.541 297.3 108.734L280.439 113.413Z" fill="#FFB9B9"/>
<path d="M320.824 202.199L322.756 198.668L323.063 198.102L319.316 158.332L319.539 156.535L323.529 124.177L300.43 116.062H300.425C300.38 118.101 299.692 120.074 298.458 121.699C297.225 123.324 295.509 124.519 293.556 125.112C286.528 127.449 281.692 119.583 281.692 119.583L262.17 134.469L271.653 161.938L276.225 175.175C276.225 175.175 276.691 190.617 277.162 192.023C277.628 193.424 276.691 193.894 276.225 194.359C275.754 194.83 276.691 196.231 277.162 196.231C277.395 196.231 277.861 197.986 278.273 199.741C278.485 200.64 278.681 201.538 278.818 202.199H320.824Z" fill="#6F7CB2"/>
<path d="M357.487 199.741C357.487 199.741 370.133 207.695 368.728 212.842C367.323 217.989 352.803 203.952 352.803 203.484C352.803 203.016 357.487 199.741 357.487 199.741Z" fill="#FFB9B9"/>
<path d="M320.824 202.199H324.349L323.296 198.335C323.122 198.455 322.941 198.566 322.756 198.668C321.375 199.45 317.252 201.412 309.468 202.199C304.61 202.651 299.721 202.651 294.863 202.199C289.461 201.721 284.095 200.9 278.797 199.741H277.86L277.337 202.199H320.824Z" fill="#2F2E41"/>
<path d="M273.296 89.8859C273.296 89.8859 278.055 79.5859 287.175 81.9629C296.296 84.3398 301.451 87.9052 301.848 91.4705C302.244 95.0359 301.65 100.384 301.65 100.384C301.65 100.384 300.658 93.0552 294.313 94.6398C287.969 96.2244 278.055 95.0359 278.055 95.0359L276.469 109.297C276.469 109.297 274.684 106.722 272.701 108.307C270.719 109.892 266.951 93.0552 273.296 89.8859Z" fill="#2F2E41"/>
<path d="M272.701 202.199H259.81L258.895 200.444C253.275 190.617 253.275 177.046 253.275 177.046L256.551 149.441C256.085 139.613 262.17 134.469 262.17 134.469H269.198L274.352 151.782L271.653 161.938L268.261 174.71L267.325 176.111C267.325 176.111 268.261 177.517 267.79 177.982C267.325 178.453 266.854 180.324 266.854 180.324C266.854 180.324 268.261 189.681 269.669 190.617C271.071 191.552 269.198 191.552 269.198 192.023C269.198 192.488 270.605 194.359 270.605 194.359V196.701L272.701 202.199Z" fill="#6F7CB2"/>
<path d="M315.567 122.771L323.529 124.175C323.529 124.175 328.213 128.854 330.087 134.468L333.834 151.313L339.923 163.478C339.923 163.478 346.948 170.497 352.1 186.406L359.594 200.443L351.632 205.122C351.632 205.122 329.618 179.387 326.808 170.497L314.63 147.102L315.567 122.771Z" fill="#6F7CB2"/>
</svg>
