<svg width="642" height="467" viewBox="0 0 642 467" fill="none" xmlns="http://www.w3.org/2000/svg">
<path d="M314.08 467C414.186 467 495.338 454.655 495.338 439.426C495.338 424.197 414.186 411.852 314.08 411.852C213.974 411.852 132.822 424.197 132.822 439.426C132.822 454.655 213.974 467 314.08 467Z" fill="#F2F2F2"/>
<path d="M427.963 341.817C429.903 342.524 431.981 342.769 434.032 342.534C436.083 342.299 438.051 341.591 439.782 340.464C441.513 339.338 442.959 337.824 444.006 336.043C445.053 334.261 445.673 332.261 445.816 330.199C445.959 328.137 445.621 326.07 444.83 324.161C444.039 322.251 442.816 320.552 441.257 319.197C439.699 317.842 437.847 316.868 435.848 316.351C433.849 315.835 431.757 315.791 429.738 316.222L430.072 323.091L426.826 317.204C423.64 318.702 421.179 321.406 419.983 324.721C419.558 325.882 419.3 327.097 419.216 328.331C419.011 331.226 419.754 334.108 421.333 336.542C422.911 338.975 425.239 340.827 427.963 341.817Z" fill="#6F7CB2"/>
<path d="M444.025 421.489C442.879 415.647 447.844 410.468 452.749 407.102C457.653 403.735 463.384 400.428 465.058 394.715C467.463 386.504 460.299 378.985 454.723 372.5C450.586 367.688 447.034 362.402 444.14 356.753C442.98 354.488 441.914 352.12 441.608 349.592C441.169 345.953 442.337 342.331 443.513 338.86C447.433 327.295 451.623 315.827 456.085 304.457" stroke="#3F3D56" stroke-miterlimit="10"/>
<path d="M428.512 340.049C430.452 340.755 432.53 341 434.581 340.766C436.632 340.531 438.601 339.822 440.331 338.696C442.062 337.569 443.508 336.056 444.555 334.274C445.602 332.493 446.222 330.492 446.365 328.43C446.508 326.368 446.17 324.301 445.379 322.392C444.588 320.483 443.365 318.784 441.806 317.429C440.248 316.074 438.396 315.099 436.397 314.583C434.398 314.067 432.306 314.022 430.287 314.453L430.621 321.322L427.375 315.435C424.189 316.934 421.728 319.638 420.532 322.952C420.107 324.114 419.849 325.329 419.765 326.563C419.56 329.457 420.303 332.339 421.882 334.773C423.46 337.207 425.788 339.059 428.512 340.049Z" stroke="#3F3D56" stroke-miterlimit="10"/>
<path d="M442.396 302.084C443.157 299.981 444.435 298.103 446.112 296.624C447.788 295.145 449.81 294.112 451.99 293.621L453.088 300.152L455.122 293.293C457.948 293.335 460.687 294.275 462.944 295.977C465.201 297.679 466.859 300.055 467.679 302.762C468.5 305.469 468.439 308.367 467.507 311.038C466.575 313.708 464.82 316.013 462.494 317.62C460.168 319.226 457.393 320.051 454.568 319.976C451.744 319.9 449.016 318.928 446.779 317.199C444.543 315.47 442.913 313.074 442.125 310.357C441.337 307.641 441.432 304.744 442.396 302.084Z" fill="#091133"/>
<path d="M443.128 299.726C443.889 297.623 445.167 295.745 446.844 294.266C448.52 292.787 450.542 291.754 452.722 291.263L453.82 297.794L455.854 290.935C458.68 290.977 461.418 291.917 463.676 293.619C465.933 295.321 467.591 297.697 468.411 300.404C469.232 303.111 469.171 306.009 468.239 308.68C467.307 311.35 465.552 313.655 463.226 315.262C460.9 316.868 458.125 317.693 455.3 317.618C452.475 317.542 449.748 316.57 447.511 314.841C445.275 313.112 443.645 310.716 442.857 307.999C442.069 305.283 442.164 302.386 443.127 299.726H443.128Z" stroke="#3F3D56" stroke-miterlimit="10"/>
<path d="M452.383 372.633C455.46 373.75 458.84 373.695 461.879 372.478C464.918 371.26 467.403 368.966 468.861 366.032C470.319 363.098 470.648 359.729 469.784 356.568C468.921 353.407 466.926 350.675 464.18 348.892L462.616 354.162L461.508 347.555C461.497 347.55 461.485 347.546 461.474 347.542C459.828 346.943 458.081 346.675 456.331 346.753C454.582 346.83 452.865 347.252 451.278 347.994C449.692 348.736 448.267 349.784 447.085 351.078C445.903 352.372 444.988 353.886 444.391 355.534C443.793 357.182 443.526 358.932 443.605 360.683C443.683 362.435 444.106 364.153 444.848 365.741C445.59 367.329 446.638 368.755 447.931 369.938C449.223 371.12 450.736 372.036 452.383 372.633Z" fill="#091133"/>
<path d="M453.017 370.244C456.094 371.362 459.474 371.307 462.513 370.089C465.552 368.872 468.038 366.578 469.496 363.644C470.953 360.709 471.282 357.341 470.419 354.18C469.555 351.019 467.561 348.286 464.814 346.503L463.251 351.774L462.142 345.167C462.131 345.161 462.12 345.157 462.108 345.154C460.462 344.555 458.715 344.286 456.965 344.363C455.216 344.441 453.498 344.863 451.912 345.605C450.325 346.347 448.9 347.395 447.718 348.689C446.536 349.982 445.621 351.497 445.023 353.145C444.426 354.793 444.159 356.543 444.238 358.294C444.316 360.046 444.739 361.765 445.481 363.353C446.224 364.941 447.271 366.367 448.564 367.549C449.857 368.732 451.371 369.648 453.017 370.244V370.244Z" stroke="#3F3D56" stroke-miterlimit="10"/>
<path d="M438.506 394.796C439.035 397.81 440.583 400.55 442.89 402.557C445.198 404.564 448.124 405.716 451.179 405.819C454.234 405.922 457.231 404.97 459.668 403.123C462.105 401.276 463.834 398.646 464.564 395.675C465.295 392.703 464.982 389.571 463.68 386.802C462.377 384.034 460.163 381.798 457.41 380.47C454.656 379.142 451.53 378.802 448.556 379.508C445.581 380.213 442.94 381.921 441.074 384.345L447.013 393.295L438.898 388.545C438.269 390.567 438.134 392.711 438.506 394.796Z" fill="#6F7CB2"/>
<path d="M439.054 393.028C439.583 396.042 441.132 398.782 443.439 400.789C445.746 402.796 448.673 403.947 451.728 404.05C454.783 404.153 457.78 403.201 460.217 401.355C462.654 399.508 464.383 396.878 465.113 393.906C465.844 390.935 465.531 387.802 464.229 385.034C462.926 382.265 460.712 380.03 457.958 378.702C455.205 377.373 452.079 377.034 449.104 377.739C446.13 378.445 443.489 380.153 441.623 382.577L447.562 391.527L439.447 386.776C438.818 388.799 438.683 390.942 439.054 393.028Z" stroke="#3F3D56" stroke-miterlimit="10"/>
<path d="M465 95.0595C465.502 85.4651 469.661 76.4293 476.622 69.8156C483.582 63.2019 492.812 59.5148 502.408 59.5146C503.547 59.5146 504.671 59.574 505.784 59.6736C510.16 52.1362 516.434 45.8802 523.981 41.5304C531.527 37.1806 540.081 34.8892 548.789 34.8851C557.497 34.881 566.054 37.1642 573.604 41.5069C581.155 45.8496 587.435 52.0997 591.818 59.6329C592.757 59.5623 593.702 59.5146 594.659 59.5146C604.255 59.5148 613.485 63.202 620.445 69.8157C627.405 76.4293 631.565 85.4652 632.067 95.0595" fill="#F2F2F2"/>
<path d="M473.802 92.1744C474.304 82.5801 478.464 73.5442 485.424 66.9306C492.384 60.3169 501.614 56.6297 511.21 56.6295C512.349 56.6295 513.473 56.689 514.586 56.7885C518.962 49.2512 525.236 42.9952 532.783 38.6453C540.329 34.2955 548.884 32.0041 557.591 32C566.299 31.9959 574.856 34.2792 582.406 38.6219C589.957 42.9645 596.237 49.2146 600.62 56.7478C601.559 56.6772 602.504 56.6295 603.461 56.6295C613.057 56.6297 622.287 60.3169 629.247 66.9306C636.208 73.5443 640.368 82.5801 640.869 92.1745" stroke="#3F3D56" stroke-miterlimit="10"/>
<path d="M157 220.059C157.502 210.465 161.661 201.429 168.622 194.816C175.582 188.202 184.812 184.515 194.408 184.515C195.547 184.515 196.671 184.574 197.784 184.674C202.16 177.136 208.434 170.88 215.981 166.53C223.527 162.181 232.081 159.889 240.789 159.885C249.497 159.881 258.054 162.164 265.604 166.507C273.155 170.85 279.435 177.1 283.818 184.633C284.757 184.562 285.702 184.515 286.659 184.515C296.255 184.515 305.485 188.202 312.445 194.816C319.405 201.429 323.565 210.465 324.067 220.059" fill="#F2F2F2"/>
<path d="M164.802 217.174C165.304 207.58 169.464 198.544 176.424 191.931C183.384 185.317 192.615 181.63 202.211 181.63C203.349 181.63 204.473 181.689 205.586 181.789C209.962 174.251 216.236 167.995 223.783 163.645C231.329 159.296 239.884 157.004 248.591 157C257.299 156.996 265.856 159.279 273.406 163.622C280.957 167.965 287.237 174.215 291.62 181.748C292.559 181.677 293.504 181.63 294.461 181.63C304.057 181.63 313.287 185.317 320.247 191.931C327.208 198.544 331.368 207.58 331.869 217.174" stroke="#3F3D56" stroke-miterlimit="10"/>
<path d="M0 81.0594C0.50152 71.4651 4.66146 62.4292 11.6219 55.8156C18.5822 49.2019 27.8123 45.5147 37.4083 45.5145C38.5468 45.5145 39.671 45.574 40.7836 45.6736C45.1596 38.1362 51.4342 31.8802 58.9807 27.5304C66.5272 23.1805 75.0815 20.8891 83.7893 20.885C92.4971 20.8809 101.054 23.1642 108.604 27.5069C116.155 31.8495 122.435 38.0996 126.818 45.6328C127.757 45.5622 128.702 45.5145 129.659 45.5145C139.255 45.5147 148.485 49.2019 155.445 55.8156C162.405 62.4293 166.565 71.4651 167.067 81.0595" fill="#F2F2F2"/>
<path d="M7.802 78.1744C8.30352 68.5801 12.4635 59.5442 19.4239 52.9306C26.3842 46.3169 35.6143 42.6297 45.2103 42.6295C46.3488 42.6295 47.473 42.689 48.5856 42.7885C52.9616 35.2512 59.2362 28.9952 66.7827 24.6453C74.3292 20.2955 82.8835 18.0041 91.5912 18C100.299 17.9959 108.855 20.2792 116.406 24.6219C123.957 28.9645 130.237 35.2146 134.62 42.7478C135.559 42.6772 136.504 42.6295 137.461 42.6295C147.057 42.6297 156.287 46.3169 163.247 52.9306C170.207 59.5443 174.367 68.5801 174.869 78.1744" stroke="#3F3D56" stroke-miterlimit="10"/>
<path d="M214.978 111.456C214.978 111.456 282.306 144.928 294.378 140.279C306.451 135.63 310.63 94.2548 310.63 94.2548L260.946 84.957L214.978 111.456Z" fill="#6F7CB2"/>
<path opacity="0.1" d="M215 111.499C215 111.499 282.328 144.97 294.401 140.322C306.473 135.673 310.652 94.2978 310.652 94.2978L260.969 85L215 111.499Z" fill="black"/>
<path d="M354.509 61.4802H310.397V100.066H354.509V61.4802Z" fill="#FF6584"/>
<path opacity="0.1" d="M354.509 61.4802H310.397V100.066H354.509V61.4802Z" fill="black"/>
<path d="M270.233 225.818C270.233 225.818 268.375 266.263 280.912 265.333C293.449 264.404 280.912 227.213 280.912 227.213L270.233 225.818Z" fill="#FFB9B9"/>
<path d="M321.774 67.2913C321.774 67.2913 324.56 84.957 319.452 87.2814C314.344 89.6059 311.094 91.4654 311.094 91.4654L322.702 99.3685L344.062 100.763L349.634 96.5792L354.741 91.9303C354.741 91.9303 346.383 90.0707 346.383 85.8868C346.383 81.7028 345.919 69.1508 345.919 69.1508L321.774 67.2913Z" fill="#FFB9B9"/>
<path opacity="0.1" d="M321.68 67C321.68 67 324.466 84.6657 319.358 86.9902C314.25 89.3146 311 91.1741 311 91.1741L322.608 99.0772L343.968 100.472L349.54 96.2879L354.647 91.639C354.647 91.639 346.289 89.7795 346.289 85.5955C346.289 81.4115 345.825 68.8596 345.825 68.8596L321.68 67Z" fill="black"/>
<path d="M292.521 232.791C292.521 232.791 279.055 276.026 279.055 307.638C279.055 307.638 256.767 357.846 257.696 382.485L252.124 416.422L260.018 419.211L266.054 414.097C266.054 414.097 267.911 395.967 273.948 387.134C279.984 378.301 293.914 336.461 293.914 336.461C293.914 336.461 331.06 258.36 329.667 247.203C328.274 236.045 292.521 232.791 292.521 232.791Z" fill="#FFB9B9"/>
<path d="M374.707 223.029C374.707 223.029 383.53 227.213 370.993 301.595C370.993 301.595 377.958 350.873 371.921 377.836L370.993 404.8H361.242L359.384 402.01C359.384 402.01 358.92 377.836 355.67 371.328C352.419 364.819 349.633 327.163 349.633 327.163C349.633 327.163 334.775 250.457 338.025 243.948C341.276 237.44 374.707 223.029 374.707 223.029Z" fill="#FFB9B9"/>
<path d="M250.731 408.519C250.731 408.519 253.981 415.957 260.017 414.097C266.054 412.238 267.447 412.238 267.447 412.238C267.447 412.238 263.268 433.623 264.661 443.85C266.054 454.078 263.732 460.586 254.445 460.586C245.159 460.586 243.766 449.429 243.766 449.429L247.945 422.93L250.731 408.519Z" fill="#2F2E41"/>
<path d="M357.527 396.897C357.527 396.897 360.777 403.405 365.885 402.01C370.993 400.616 372.85 398.291 372.85 398.291C372.85 398.291 372.386 412.703 374.243 419.211C376.1 425.72 380.279 444.315 370.528 445.245C367.85 445.571 365.139 445.023 362.797 443.683C360.454 442.343 358.606 440.282 357.527 437.807V396.896L357.527 396.897Z" fill="#2F2E41"/>
<path d="M334.31 79.3784C345.594 79.3784 354.741 70.2203 354.741 58.9233C354.741 47.6263 345.594 38.4683 334.31 38.4683C323.027 38.4683 313.88 47.6263 313.88 58.9233C313.88 70.2203 323.027 79.3784 334.31 79.3784Z" fill="#FFB9B9"/>
<path d="M371.921 95.6494C371.921 95.6494 355.738 89.2872 349.9 90.1439C347.384 92.2842 344.452 93.8786 341.289 94.8263C338.126 95.7739 334.801 96.0542 331.525 95.6494C320.381 94.2547 316.023 88.9003 316.023 88.9003C316.023 88.9003 286.02 95.6494 287.877 98.4387C289.735 101.228 298.093 146.787 298.093 146.787C298.093 146.787 303.665 186.302 297.164 199.784C290.663 213.266 287.413 235.581 290.199 237.44C292.985 239.3 324.095 247.668 327.81 249.992C331.525 252.316 332.918 244.413 335.239 245.808C337.561 247.203 342.669 249.527 345.919 247.668C349.169 245.808 380.744 229.072 379.815 225.818C378.886 222.564 366.814 183.048 362.635 175.145C358.456 167.242 361.706 150.506 364.028 147.252C366.35 143.998 370.993 140.279 371.921 130.981C372.85 121.683 371.921 95.6494 371.921 95.6494Z" fill="#2F2E41"/>
<path d="M288.901 97.002C288.901 97.002 285.091 99.8334 283.698 105.877C282.305 111.921 280.448 160.269 280.448 160.269C280.448 160.269 263.268 226.748 266.982 228.142C270.697 229.537 281.377 232.326 282.77 230.932C284.163 229.537 299.95 173.286 298.557 167.242C297.164 161.199 300.414 143.533 300.414 143.533L288.901 97.002Z" fill="#2F2E41"/>
<path d="M374.707 183.513C374.707 183.513 349.633 170.961 346.847 179.329C344.061 187.697 373.314 196.53 373.314 196.53C373.314 196.53 383.53 192.811 383.53 190.486C383.53 188.162 374.707 183.513 374.707 183.513Z" fill="#FFB9B9"/>
<path d="M366.814 97.509L371.921 95.6494C371.921 95.6494 374.707 93.7899 377.958 100.763C381.208 107.736 416.497 148.647 409.997 161.663C403.496 174.68 382.137 201.179 381.208 199.319C380.279 197.46 369.6 183.513 371.457 182.119C373.314 180.724 394.674 161.663 391.888 158.874C389.102 156.085 377.493 132.376 370.993 131.446C364.492 130.516 366.814 97.509 366.814 97.509Z" fill="#2F2E41"/>
<path d="M311.79 58.226C311.79 58.226 240.985 29.7222 179.694 2.29386C179.694 2.29386 147.655 -5.60923 130.939 9.26718C130.939 9.26718 144.869 7.40762 144.869 15.3107C144.869 15.3107 156.941 31.1169 119.331 33.9062C93.1374 35.8488 82.7086 51.5454 78.7906 60.8965C75.7319 68.4028 70.355 74.7327 63.446 78.9607C54.393 84.3778 41.2723 88.3632 26 81.3247C26 81.3247 26.8682 82.6611 28.5152 84.8878C58.0021 124.756 167.809 159.453 206.585 128.569C230.549 109.482 268.538 85.3579 295.771 97.5089C338.49 116.569 346.383 108.201 346.383 108.201L348.241 103.088C348.241 103.088 306.915 91.9303 305.986 77.5188C305.058 63.1073 311.79 58.226 311.79 58.226Z" fill="#6F7CB2"/>
<path d="M353.116 61.9451C353.116 61.9451 363.099 65.8966 364.956 78.9135C364.956 78.9135 375.636 99.8334 363.563 104.947C351.491 110.061 349.169 108.666 349.169 108.666V106.342C349.169 106.342 362.17 98.4387 359.384 92.3952C356.598 86.3516 353.116 61.9451 353.116 61.9451Z" fill="#6F7CB2"/>
<path d="M335.239 121.218C335.239 121.218 338.49 112.85 337.561 112.85C336.632 112.85 341.339 107.704 343.164 109.58C344.99 111.456 348.241 117.034 344.526 118.429C340.811 119.824 335.239 121.218 335.239 121.218Z" fill="#6F7CB2"/>
<path d="M358.123 116.251C358.123 116.251 349.635 113.354 349.675 114.283C349.714 115.212 344.379 110.721 346.174 108.816C347.969 106.91 353.398 103.423 354.947 107.08C356.496 110.737 358.123 116.251 358.123 116.251Z" fill="#6F7CB2"/>
<path d="M344.526 103.552C344.526 103.552 348.765 101.17 351.289 104.918C353.813 108.666 348.241 115.175 344.526 115.175C340.811 115.175 340.811 107.272 340.811 107.272L344.526 103.552Z" fill="#6F7CB2"/>
<path opacity="0.1" d="M344.715 103.746C344.715 103.746 348.954 101.364 351.478 105.112C354.001 108.86 348.429 115.369 344.715 115.369C341 115.369 341 107.465 341 107.465L344.715 103.746Z" fill="black"/>
<path d="M316.597 25.5434C314.149 27.5639 311.827 29.8283 310.305 32.6152C309.507 34.1783 308.839 35.805 308.31 37.4787C306.432 42.889 301.764 48.3687 303.74 53.744C304.303 55.2779 305.182 56.8951 304.677 58.4492C304.228 59.8293 302.843 60.6348 301.841 61.6839C299.691 63.9356 299.329 67.3141 299.198 70.4267C298.957 76.1269 302.088 82.8442 305.871 87.1112C306.692 87.9139 307.453 88.7764 308.147 89.6914C308.615 90.421 308.921 91.243 309.044 92.1014C309.167 92.9599 309.105 93.8348 308.86 94.6668L314.371 93.5153C314.569 95.5521 314.631 97.6 314.556 99.6451C315.863 99.7889 317.179 99.4774 318.283 98.763C319.387 98.0487 320.211 96.9752 320.617 95.7235C320.929 97.1819 321.438 98.5909 322.131 99.9113C323.747 97.8872 324.987 95.5886 325.791 93.1252C326.845 89.9699 327.072 86.5962 326.448 83.3281C325.865 80.9412 325.071 78.6108 324.076 76.3644C322.129 71.4378 320.539 66.3786 318.95 61.3246C318.125 58.6997 317.291 55.9894 317.541 53.2491L319.499 53.0359C319.52 51.9534 319.729 50.883 320.117 49.8721C321.264 50.1152 322.368 50.5312 323.391 51.106L325.648 45.3717C327.138 46.9186 329.276 47.6187 331.323 48.264L339.104 50.7169L339.151 49.1752C342.436 52.0861 346.176 54.4354 350.223 56.1287C349.995 55.8524 349.828 55.5305 349.734 55.1844C349.64 54.8384 349.62 54.4762 349.677 54.122C351.594 57.5612 350.827 61.8456 349.644 65.6018C348.461 69.3581 346.891 73.1822 347.367 77.0918C347.724 80.0159 349.22 82.8124 348.942 85.745C348.806 87.1892 348.242 88.5635 348.066 90.0034C347.648 93.4377 349.451 96.708 351.192 99.6966L354.577 95.042C355.816 93.3385 357.093 91.5979 358.848 90.4335C360.648 89.2382 362.88 88.7016 364.45 87.2148C367.251 84.5606 366.895 80.0387 365.984 76.2864C365.5 74.2918 364.914 72.2688 365.092 70.2238C365.394 66.7571 367.8 63.8887 369.155 60.6843C370.121 58.3478 370.54 55.8208 370.379 53.2972C370.218 50.7736 369.483 48.3204 368.228 46.1256C366.547 43.238 364.006 40.9123 362.421 37.9703C360.844 35.0416 360.242 31.5568 358.081 29.0292C357.026 27.879 355.798 26.8999 354.443 26.1269C348.3 22.4318 341.401 20.1782 334.263 19.5356C327.494 18.827 321.784 21.2625 316.597 25.5434Z" fill="#2F2E41"/>
</svg>
