<svg width="551" height="495" viewBox="0 0 551 495" fill="none" xmlns="http://www.w3.org/2000/svg">
<g clip-path="url(#clip0)">
<path d="M288.08 495C388.186 495 469.338 482.655 469.338 467.426C469.338 452.197 388.186 439.852 288.08 439.852C187.974 439.852 106.822 452.197 106.822 467.426C106.822 482.655 187.974 495 288.08 495Z" fill="#F2F2F2"/>
<path d="M401.963 369.817C403.903 370.524 405.981 370.769 408.032 370.534C410.083 370.299 412.052 369.591 413.782 368.464C415.513 367.338 416.959 365.824 418.006 364.043C419.053 362.261 419.673 360.261 419.816 358.199C419.959 356.137 419.621 354.07 418.83 352.161C418.039 350.252 416.816 348.552 415.257 347.197C413.699 345.842 411.847 344.868 409.848 344.351C407.849 343.835 405.757 343.791 403.738 344.222L404.072 351.091L400.826 345.204C397.64 346.703 395.179 349.406 393.983 352.721C393.558 353.882 393.3 355.098 393.216 356.331C393.011 359.226 393.754 362.108 395.333 364.542C396.911 366.975 399.239 368.827 401.963 369.817Z" fill="#6F7CB2"/>
<path d="M418.025 449.489C416.879 443.647 421.844 438.468 426.749 435.102C431.653 431.735 437.384 428.428 439.058 422.715C441.463 414.504 434.299 406.985 428.723 400.5C424.586 395.688 421.034 390.402 418.14 384.753C416.98 382.488 415.914 380.12 415.608 377.592C415.169 373.953 416.337 370.331 417.513 366.86C421.433 355.295 425.623 343.827 430.085 332.457" stroke="#3F3D56" stroke-miterlimit="10"/>
<path d="M402.512 368.049C404.452 368.755 406.53 369 408.581 368.766C410.632 368.531 412.601 367.822 414.331 366.696C416.062 365.569 417.508 364.056 418.555 362.274C419.602 360.493 420.222 358.492 420.365 356.43C420.508 354.368 420.17 352.301 419.379 350.392C418.588 348.483 417.365 346.784 415.806 345.429C414.248 344.074 412.396 343.099 410.397 342.583C408.398 342.067 406.306 342.022 404.287 342.453L404.621 349.322L401.375 343.435C398.189 344.934 395.728 347.638 394.532 350.952C394.107 352.114 393.849 353.329 393.765 354.563C393.56 357.457 394.303 360.339 395.882 362.773C397.46 365.207 399.788 367.059 402.512 368.049Z" stroke="#3F3D56" stroke-miterlimit="10"/>
<path d="M416.395 330.084C417.157 327.981 418.435 326.103 420.112 324.624C421.788 323.145 423.81 322.113 425.99 321.621L427.088 328.152L429.122 321.293C431.948 321.335 434.686 322.275 436.943 323.977C439.2 325.679 440.859 328.055 441.679 330.762C442.5 333.469 442.439 336.367 441.507 339.038C440.575 341.708 438.82 344.013 436.494 345.62C434.168 347.227 431.393 348.052 428.568 347.976C425.743 347.9 423.016 346.928 420.779 345.199C418.543 343.47 416.913 341.074 416.125 338.358C415.337 335.641 415.432 332.744 416.395 330.084Z" fill="#091133"/>
<path d="M417.128 327.726C417.889 325.623 419.167 323.745 420.844 322.266C422.52 320.787 424.542 319.754 426.722 319.263L427.82 325.794L429.854 318.935C432.68 318.977 435.418 319.917 437.676 321.619C439.933 323.321 441.591 325.697 442.411 328.404C443.232 331.111 443.171 334.009 442.239 336.68C441.307 339.35 439.552 341.655 437.226 343.262C434.9 344.868 432.125 345.693 429.3 345.618C426.475 345.542 423.748 344.57 421.511 342.841C419.275 341.112 417.645 338.716 416.857 335.999C416.069 333.283 416.164 330.386 417.127 327.726H417.128Z" stroke="#3F3D56" stroke-miterlimit="10"/>
<path d="M426.383 400.633C429.46 401.75 432.84 401.695 435.879 400.478C438.918 399.26 441.403 396.966 442.861 394.032C444.319 391.098 444.648 387.729 443.784 384.568C442.921 381.407 440.926 378.675 438.18 376.892L436.616 382.162L435.508 375.555C435.497 375.55 435.485 375.546 435.474 375.542C433.828 374.943 432.08 374.675 430.331 374.753C428.582 374.83 426.865 375.252 425.278 375.994C423.692 376.736 422.267 377.784 421.085 379.078C419.903 380.372 418.988 381.886 418.391 383.534C417.793 385.182 417.526 386.932 417.605 388.683C417.683 390.435 418.106 392.153 418.848 393.741C419.59 395.329 420.638 396.755 421.931 397.938C423.223 399.12 424.736 400.036 426.383 400.633Z" fill="#091133"/>
<path d="M427.017 398.244C430.094 399.362 433.474 399.307 436.513 398.089C439.552 396.872 442.037 394.578 443.495 391.644C444.953 388.709 445.282 385.341 444.419 382.18C443.555 379.019 441.561 376.286 438.814 374.503L437.251 379.774L436.142 373.167C436.131 373.161 436.12 373.157 436.108 373.154C434.462 372.555 432.715 372.286 430.965 372.363C429.216 372.441 427.498 372.863 425.912 373.605C424.325 374.347 422.9 375.395 421.718 376.689C420.536 377.982 419.62 379.497 419.023 381.145C418.426 382.793 418.159 384.543 418.238 386.294C418.316 388.046 418.739 389.765 419.481 391.353C420.224 392.941 421.271 394.367 422.564 395.549C423.857 396.732 425.37 397.648 427.017 398.244V398.244Z" stroke="#3F3D56" stroke-miterlimit="10"/>
<path d="M412.505 422.796C413.035 425.81 414.583 428.55 416.89 430.557C419.198 432.564 422.124 433.716 425.179 433.819C428.234 433.922 431.231 432.97 433.668 431.123C436.105 429.276 437.834 426.646 438.564 423.675C439.295 420.703 438.982 417.571 437.68 414.802C436.377 412.034 434.163 409.798 431.409 408.47C428.656 407.142 425.53 406.802 422.556 407.508C419.581 408.213 416.94 409.921 415.074 412.345L421.013 421.295L412.898 416.545C412.269 418.567 412.134 420.711 412.505 422.796Z" fill="#6F7CB2"/>
<path d="M413.054 421.028C413.584 424.042 415.132 426.782 417.439 428.789C419.747 430.796 422.673 431.947 425.728 432.05C428.783 432.153 431.78 431.201 434.217 429.355C436.654 427.508 438.383 424.878 439.113 421.906C439.844 418.935 439.531 415.802 438.229 413.034C436.926 410.265 434.712 408.03 431.958 406.702C429.205 405.373 426.079 405.034 423.105 405.739C420.13 406.445 417.489 408.153 415.623 410.577L421.562 419.527L413.447 414.776C412.818 416.799 412.683 418.942 413.054 421.028Z" stroke="#3F3D56" stroke-miterlimit="10"/>
<path d="M367 137.06C367.502 127.465 371.661 118.429 378.622 111.816C385.582 105.202 394.812 101.515 404.408 101.515C405.547 101.515 406.671 101.574 407.784 101.674C412.16 94.1362 418.434 87.8802 425.981 83.5304C433.527 79.1806 442.081 76.8892 450.789 76.8851C459.497 76.881 468.054 79.1642 475.604 83.5069C483.155 87.8496 489.435 94.0997 493.818 101.633C494.757 101.562 495.702 101.515 496.659 101.515C506.255 101.515 515.485 105.202 522.445 111.816C529.405 118.429 533.565 127.465 534.067 137.06" fill="#F2F2F2"/>
<path d="M374.802 134.174C375.304 124.58 379.464 115.544 386.424 108.931C393.384 102.317 402.614 98.6297 412.21 98.6295C413.349 98.6295 414.473 98.689 415.586 98.7885C419.962 91.2512 426.236 84.9952 433.783 80.6453C441.329 76.2955 449.884 74.0041 458.591 74C467.299 73.9959 475.856 76.2792 483.406 80.6219C490.957 84.9645 497.237 91.2146 501.62 98.7478C502.559 98.6772 503.504 98.6295 504.461 98.6295C514.057 98.6297 523.287 102.317 530.247 108.931C537.207 115.544 541.367 124.58 541.869 134.174" stroke="#3F3D56" stroke-miterlimit="10"/>
<path d="M103.604 251.268C104.106 241.673 108.265 232.638 115.226 226.024C122.186 219.41 131.416 215.723 141.012 215.723C142.151 215.723 143.275 215.782 144.388 215.882C148.764 208.344 155.038 202.088 162.585 197.739C170.131 193.389 178.686 191.097 187.393 191.093C196.101 191.089 204.658 193.372 212.208 197.715C219.759 202.058 226.039 208.308 230.422 215.841C231.361 215.771 232.306 215.723 233.263 215.723C242.859 215.723 252.089 219.41 259.049 226.024C266.009 232.638 270.169 241.673 270.671 251.268" fill="#F2F2F2"/>
<path d="M111.406 248.383C111.908 238.788 116.068 229.753 123.028 223.139C129.988 216.525 139.218 212.838 148.814 212.838C149.953 212.838 151.077 212.897 152.19 212.997C156.566 205.459 162.84 199.203 170.387 194.854C177.933 190.504 186.488 188.212 195.195 188.208C203.903 188.204 212.46 190.487 220.01 194.83C227.561 199.173 233.841 205.423 238.224 212.956C239.163 212.885 240.108 212.838 241.065 212.838C250.661 212.838 259.891 216.525 266.851 223.139C273.811 229.753 277.971 238.788 278.473 248.383" stroke="#3F3D56" stroke-miterlimit="10"/>
<path d="M24.1836 63.3801C24.6851 53.7857 28.845 44.7499 35.8054 38.1362C42.7658 31.5226 51.9959 27.8354 61.5919 27.8352C62.7304 27.8352 63.8546 27.8947 64.9672 27.9942C69.3432 20.4569 75.6178 14.2008 83.1643 9.85103C90.7108 5.50121 99.2651 3.20982 107.973 3.20569C116.681 3.20157 125.237 5.48487 132.788 9.82754C140.338 14.1702 146.619 20.4203 151.002 27.9535C151.941 27.8829 152.886 27.8352 153.842 27.8352C163.438 27.8354 172.668 31.5226 179.629 38.1363C186.589 44.75 190.749 53.7858 191.25 63.3801" fill="#F2F2F2"/>
<path d="M31.9857 60.4951C32.4872 50.9007 36.6472 41.8649 43.6076 35.2512C50.5679 28.6375 59.798 24.9504 69.394 24.9502C70.5325 24.9502 71.6567 25.0096 72.7693 25.1092C77.1453 17.5718 83.4199 11.3158 90.9664 6.96602C98.5129 2.6162 107.067 0.324806 115.775 0.320684C124.483 0.316562 133.039 2.59986 140.59 6.94253C148.14 11.2852 154.421 17.5353 158.804 25.0685C159.743 24.9979 160.688 24.9502 161.644 24.9502C171.24 24.9504 180.47 28.6376 187.431 35.2513C194.391 41.8649 198.551 50.9008 199.053 60.4951" stroke="#3F3D56" stroke-miterlimit="10"/>
<path d="M24.1836 63.3801C24.6851 53.7857 28.845 44.7499 35.8054 38.1362C42.7658 31.5226 51.9959 27.8354 61.5919 27.8352C62.7304 27.8352 63.8546 27.8947 64.9672 27.9942C69.3432 20.4569 75.6178 14.2008 83.1643 9.85103C90.7108 5.50121 99.2651 3.20982 107.973 3.20569C116.681 3.20157 125.237 5.48487 132.788 9.82754C140.338 14.1702 146.619 20.4203 151.002 27.9535C151.941 27.8829 152.886 27.8352 153.842 27.8352C163.438 27.8354 172.668 31.5226 179.629 38.1363C186.589 44.75 190.749 53.7858 191.25 63.3801" fill="#F2F2F2"/>
<path d="M31.9857 60.4951C32.4872 50.9007 36.6472 41.8649 43.6076 35.2512C50.5679 28.6375 59.798 24.9504 69.394 24.9502C70.5325 24.9502 71.6567 25.0096 72.7693 25.1092C77.1453 17.5718 83.4199 11.3158 90.9664 6.96602C98.5129 2.6162 107.067 0.324806 115.775 0.320684C124.483 0.316562 133.039 2.59986 140.59 6.94253C148.14 11.2852 154.421 17.5353 158.804 25.0685C159.743 24.9979 160.688 24.9502 161.644 24.9502C171.24 24.9504 180.47 28.6376 187.431 35.2513C194.391 41.8649 198.551 50.9008 199.053 60.4951" stroke="#3F3D56" stroke-miterlimit="10"/>
<path d="M188.977 139.456C188.977 139.456 256.305 172.928 268.378 168.279C280.451 163.63 284.63 122.255 284.63 122.255L234.946 112.957L188.977 139.456Z" fill="#6F7CB2"/>
<path opacity="0.1" d="M189 139.499C189 139.499 256.328 172.97 268.401 168.322C280.473 163.673 284.652 122.298 284.652 122.298L234.969 113L189 139.499Z" fill="black"/>
<path d="M328.509 89.4802H284.398V128.066H328.509V89.4802Z" fill="#FF6584"/>
<path opacity="0.1" d="M328.509 89.4802H284.398V128.066H328.509V89.4802Z" fill="black"/>
<path d="M244.233 253.818C244.233 253.818 242.376 294.263 254.912 293.333C267.449 292.404 254.912 255.213 254.912 255.213L244.233 253.818Z" fill="#FFB9B9"/>
<path d="M295.774 95.2913C295.774 95.2913 298.56 112.957 293.452 115.281C288.344 117.606 285.094 119.465 285.094 119.465L296.702 127.368L318.062 128.763L323.634 124.579L328.741 119.93C328.741 119.93 320.383 118.071 320.383 113.887C320.383 109.703 319.919 97.1508 319.919 97.1508L295.774 95.2913Z" fill="#FFB9B9"/>
<path opacity="0.1" d="M295.68 95C295.68 95 298.466 112.666 293.358 114.99C288.25 117.315 285 119.174 285 119.174L296.608 127.077L317.968 128.472L323.54 124.288L328.647 119.639C328.647 119.639 320.289 117.779 320.289 113.596C320.289 109.412 319.825 96.8596 319.825 96.8596L295.68 95Z" fill="black"/>
<path d="M266.521 260.791C266.521 260.791 253.055 304.026 253.055 335.638C253.055 335.638 230.767 385.846 231.696 410.485L226.124 444.422L234.018 447.211L240.054 442.097C240.054 442.097 241.911 423.967 247.948 415.134C253.984 406.301 267.914 364.461 267.914 364.461C267.914 364.461 305.06 286.36 303.667 275.203C302.274 264.045 266.521 260.791 266.521 260.791Z" fill="#FFB9B9"/>
<path d="M348.707 251.029C348.707 251.029 357.53 255.213 344.993 329.595C344.993 329.595 351.958 378.873 345.921 405.836L344.993 432.8H335.242L333.384 430.01C333.384 430.01 332.92 405.836 329.67 399.328C326.42 392.819 323.634 355.163 323.634 355.163C323.634 355.163 308.775 278.457 312.025 271.948C315.276 265.44 348.707 251.029 348.707 251.029Z" fill="#FFB9B9"/>
<path d="M224.731 436.519C224.731 436.519 227.981 443.957 234.018 442.097C240.054 440.238 241.447 440.238 241.447 440.238C241.447 440.238 237.268 461.623 238.661 471.85C240.054 482.078 237.732 488.586 228.446 488.586C219.159 488.586 217.766 477.429 217.766 477.429L221.945 450.93L224.731 436.519Z" fill="#2F2E41"/>
<path d="M331.527 424.897C331.527 424.897 334.777 431.405 339.885 430.01C344.993 428.616 346.85 426.291 346.85 426.291C346.85 426.291 346.386 440.703 348.243 447.211C350.1 453.72 354.279 472.315 344.528 473.245C341.85 473.571 339.139 473.023 336.797 471.683C334.455 470.343 332.607 468.282 331.527 465.807V424.896L331.527 424.897Z" fill="#2F2E41"/>
<path d="M308.311 107.378C319.594 107.378 328.741 98.2203 328.741 86.9233C328.741 75.6263 319.594 66.4683 308.311 66.4683C297.027 66.4683 287.88 75.6263 287.88 86.9233C287.88 98.2203 297.027 107.378 308.311 107.378Z" fill="#FFB9B9"/>
<path d="M345.921 123.649C345.921 123.649 329.738 117.287 323.9 118.144C321.384 120.284 318.452 121.879 315.289 122.826C312.126 123.774 308.801 124.054 305.525 123.649C294.381 122.255 290.023 116.9 290.023 116.9C290.023 116.9 260.02 123.649 261.877 126.439C263.735 129.228 272.093 174.787 272.093 174.787C272.093 174.787 277.665 214.302 271.164 227.784C264.663 241.266 261.413 263.581 264.199 265.44C266.985 267.3 298.095 275.668 301.81 277.992C305.525 280.316 306.918 272.413 309.239 273.808C311.561 275.203 316.669 277.527 319.919 275.668C323.169 273.808 354.744 257.072 353.815 253.818C352.886 250.564 340.814 211.048 336.635 203.145C332.456 195.242 335.706 178.506 338.028 175.252C340.349 171.998 344.993 168.279 345.921 158.981C346.85 149.683 345.921 123.649 345.921 123.649Z" fill="#2F2E41"/>
<path d="M262.901 125.002C262.901 125.002 259.091 127.833 257.698 133.877C256.305 139.921 254.448 188.269 254.448 188.269C254.448 188.269 237.268 254.748 240.983 256.142C244.697 257.537 255.377 260.326 256.77 258.932C258.163 257.537 273.95 201.286 272.557 195.242C271.164 189.199 274.414 171.533 274.414 171.533L262.901 125.002Z" fill="#2F2E41"/>
<path d="M348.707 211.513C348.707 211.513 323.634 198.961 320.848 207.329C318.062 215.697 347.314 224.53 347.314 224.53C347.314 224.53 357.53 220.811 357.53 218.486C357.53 216.162 348.707 211.513 348.707 211.513Z" fill="#FFB9B9"/>
<path d="M340.814 125.509L345.921 123.649C345.921 123.649 348.707 121.79 351.958 128.763C355.208 135.736 390.497 176.647 383.997 189.663C377.496 202.68 356.137 229.179 355.208 227.319C354.279 225.46 343.6 211.513 345.457 210.119C347.314 208.724 368.674 189.663 365.888 186.874C363.102 184.085 351.493 160.376 344.993 159.446C338.492 158.516 340.814 125.509 340.814 125.509Z" fill="#2F2E41"/>
<path d="M285.79 86.226C285.79 86.226 214.985 57.7222 153.694 30.2939C153.694 30.2939 121.655 22.3908 104.939 37.2672C104.939 37.2672 118.869 35.4076 118.869 43.3107C118.869 43.3107 130.941 59.1169 93.3306 61.9062C67.1374 63.8488 56.7086 79.5454 52.7906 88.8965C49.7319 96.4028 44.355 102.733 37.446 106.961C28.393 112.378 15.2723 116.363 0 109.325C0 109.325 0.868233 110.661 2.51516 112.888C32.0021 152.756 141.809 187.453 180.585 156.569C204.549 137.482 242.538 113.358 269.771 125.509C312.49 144.569 320.383 136.201 320.383 136.201L322.241 131.088C322.241 131.088 280.915 119.93 279.986 105.519C279.058 91.1073 285.79 86.226 285.79 86.226Z" fill="#6F7CB2"/>
<path d="M327.116 89.9451C327.116 89.9451 337.099 93.8966 338.956 106.913C338.956 106.913 349.636 127.833 337.563 132.947C325.491 138.061 323.169 136.666 323.169 136.666V134.342C323.169 134.342 336.17 126.439 333.384 120.395C330.599 114.352 327.116 89.9451 327.116 89.9451Z" fill="#6F7CB2"/>
<path d="M309.239 149.218C309.239 149.218 312.49 140.85 311.561 140.85C310.632 140.85 315.339 135.704 317.164 137.58C318.99 139.456 322.241 145.034 318.526 146.429C314.811 147.824 309.239 149.218 309.239 149.218Z" fill="#6F7CB2"/>
<path d="M332.123 144.251C332.123 144.251 323.635 141.354 323.675 142.283C323.714 143.212 318.379 138.721 320.174 136.816C321.969 134.91 327.398 131.423 328.947 135.08C330.496 138.737 332.123 144.251 332.123 144.251Z" fill="#6F7CB2"/>
<path d="M318.526 131.552C318.526 131.552 322.765 129.17 325.289 132.918C327.812 136.666 322.241 143.175 318.526 143.175C314.811 143.175 314.811 135.272 314.811 135.272L318.526 131.552Z" fill="#6F7CB2"/>
<path opacity="0.1" d="M318.715 131.746C318.715 131.746 322.954 129.364 325.478 133.112C328.001 136.86 322.429 143.369 318.715 143.369C315 143.369 315 135.465 315 135.465L318.715 131.746Z" fill="black"/>
<path d="M290.597 53.5434C288.149 55.5639 285.827 57.8283 284.305 60.6152C283.507 62.1783 282.839 63.805 282.31 65.4787C280.432 70.889 275.764 76.3687 277.74 81.744C278.304 83.2779 279.182 84.8951 278.677 86.4492C278.228 87.8293 276.843 88.6348 275.841 89.6839C273.691 91.9356 273.329 95.3141 273.198 98.4267C272.958 104.127 276.088 110.844 279.871 115.111C280.692 115.914 281.453 116.776 282.147 117.691C282.615 118.421 282.921 119.243 283.044 120.101C283.167 120.96 283.105 121.835 282.86 122.667L288.371 121.515C288.569 123.552 288.631 125.6 288.556 127.645C289.863 127.789 291.179 127.477 292.283 126.763C293.387 126.049 294.211 124.975 294.617 123.724C294.929 125.182 295.438 126.591 296.131 127.911C297.747 125.887 298.987 123.589 299.791 121.125C300.845 117.97 301.072 114.596 300.448 111.328C299.865 108.941 299.071 106.611 298.076 104.364C296.129 99.4378 294.539 94.3786 292.95 89.3246C292.125 86.6997 291.291 83.9894 291.541 81.2491L293.499 81.0359C293.52 79.9534 293.729 78.883 294.117 77.8721C295.264 78.1152 296.368 78.5312 297.391 79.106L299.648 73.3717C301.138 74.9186 303.276 75.6187 305.323 76.264L313.104 78.7169L313.151 77.1752C316.436 80.0861 320.176 82.4354 324.224 84.1287C323.995 83.8524 323.828 83.5305 323.734 83.1844C323.64 82.8384 323.62 82.4762 323.677 82.122C325.594 85.5612 324.827 89.8456 323.644 93.6018C322.461 97.3581 320.891 101.182 321.367 105.092C321.724 108.016 323.22 110.812 322.942 113.745C322.806 115.189 322.242 116.563 322.066 118.003C321.648 121.438 323.451 124.708 325.192 127.697L328.577 123.042C329.816 121.338 331.093 119.598 332.848 118.433C334.648 117.238 336.88 116.702 338.45 115.215C341.251 112.561 340.895 108.039 339.984 104.286C339.5 102.292 338.914 100.269 339.092 98.2238C339.394 94.7571 341.8 91.8887 343.155 88.6843C344.121 86.3478 344.54 83.8208 344.379 81.2972C344.218 78.7736 343.483 76.3204 342.228 74.1256C340.547 71.238 338.006 68.9123 336.421 65.9703C334.844 63.0416 334.242 59.5568 332.081 57.0292C331.026 55.879 329.798 54.8999 328.443 54.1269C322.3 50.4318 315.401 48.1782 308.263 47.5356C301.494 46.827 295.784 49.2625 290.597 53.5434Z" fill="#2F2E41"/>
</g>
<defs>
<clipPath id="clip0">
<rect width="551" height="495" fill="white"/>
</clipPath>
</defs>
</svg>
