<svg width="627" height="453" viewBox="0 0 627 453" fill="none" xmlns="http://www.w3.org/2000/svg">
<g clip-path="url(#clip0)">
<path d="M626.094 449.526H0.906069C0.665765 449.526 0.435302 449.43 0.265381 449.26C0.0954599 449.09 0 448.86 0 448.62C0 448.379 0.0954599 448.149 0.265381 447.979C0.435302 447.809 0.665765 447.713 0.906069 447.713H626.094C626.334 447.713 626.565 447.809 626.735 447.979C626.904 448.149 627 448.379 627 448.62C627 448.86 626.904 449.09 626.735 449.26C626.565 449.43 626.334 449.526 626.094 449.526Z" fill="#CCCCCC"/>
<path d="M564.213 291.479H196.349C194.787 291.479 193.289 292.1 192.185 293.204C191.08 294.309 190.46 295.807 190.46 297.369C190.46 298.932 191.08 300.43 192.185 301.535C193.289 302.639 194.787 303.26 196.349 303.26H206.769V444.178C206.769 445.74 207.389 447.238 208.494 448.343C209.598 449.447 211.096 450.068 212.658 450.068C214.22 450.068 215.718 449.447 216.823 448.343C217.927 447.238 218.548 445.74 218.548 444.178L218.637 303.26H541.109V444.178C541.109 445.74 541.729 447.238 542.834 448.343C543.938 449.447 545.436 450.068 546.998 450.068C548.56 450.068 550.058 449.447 551.162 448.343C552.267 447.238 552.887 445.74 552.887 444.178V306.366L554.601 303.26H564.213C565.775 303.26 567.273 302.639 568.378 301.535C569.482 300.43 570.103 298.932 570.103 297.369C570.103 295.807 569.482 294.309 568.378 293.204C567.273 292.1 565.775 291.479 564.213 291.479Z" fill="#CCCCCC"/>
<path d="M400.296 294.562H288.866C286.708 294.559 284.64 293.701 283.114 292.175C281.588 290.649 280.73 288.58 280.728 286.422V225.063C280.73 222.905 281.588 220.836 283.114 219.31C284.64 217.784 286.708 216.925 288.866 216.923H400.296C402.454 216.925 404.522 217.784 406.048 219.31C407.574 220.836 408.432 222.905 408.434 225.063V286.422C408.432 288.58 407.574 290.649 406.048 292.175C404.522 293.701 402.454 294.559 400.296 294.562Z" fill="#3F3D56"/>
<path d="M400.295 223.188H288.867C288.37 223.189 287.893 223.387 287.542 223.738C287.19 224.09 286.992 224.566 286.991 225.063V286.424C286.992 286.921 287.19 287.397 287.542 287.749C287.893 288.101 288.37 288.299 288.867 288.3H400.295C400.793 288.299 401.269 288.101 401.62 287.749C401.972 287.397 402.17 286.921 402.171 286.424V225.063C402.17 224.566 401.972 224.09 401.62 223.738C401.269 223.387 400.793 223.189 400.295 223.188Z" fill="white"/>
<path d="M354.085 266.63C354.085 266.63 340.745 263.556 333.409 269.192C326.072 274.828 342.746 287.638 342.746 287.638L354.085 266.63Z" fill="#2F2E41"/>
<path d="M345.234 260.821C352.184 260.821 357.817 255.187 357.817 248.237C357.817 241.286 352.184 235.652 345.234 235.652C338.285 235.652 332.652 241.286 332.652 248.237C332.652 255.187 338.285 260.821 345.234 260.821Z" fill="#A0616A"/>
<path d="M335.505 230.571C336.344 229.146 337.56 227.981 339.019 227.205C340.478 226.428 342.124 226.07 343.774 226.17C345.5 226.387 347.184 226.858 348.771 227.569L356.997 230.778C359.125 231.609 361.456 232.626 362.38 234.716C363.237 236.656 362.598 238.896 361.95 240.916L358.873 250.516C358.532 248.343 357.947 246.216 357.129 244.174C356.297 242.119 354.795 240.406 352.866 239.313C350.73 238.217 348.211 238.24 345.813 238.355C342.416 238.519 338.722 238.951 336.309 241.347C335.027 242.708 334.159 244.405 333.804 246.24C333.454 248.066 333.278 249.92 333.278 251.779C331.885 249.384 330.712 246.868 329.773 244.261C329 242.321 328.559 240.263 328.47 238.176C328.389 236.071 329.088 234.01 330.431 232.388C331.113 231.595 332.003 231.009 333.001 230.695C333.998 230.381 335.063 230.352 336.077 230.611L335.505 230.571Z" fill="#2F2E41"/>
<path d="M375.279 277.543C375.16 277.118 374.919 276.737 374.586 276.448C374.252 276.16 373.841 275.976 373.403 275.921C373.374 275.9 373.344 275.882 373.312 275.866L354.528 265.338C353.992 265.037 353.36 264.955 352.765 265.108C352.169 265.261 351.656 265.638 351.331 266.161L346.194 274.48L338.456 266.741L338.333 266.618C337.936 266.22 337.412 265.976 336.852 265.927C336.293 265.878 335.734 266.028 335.274 266.35L319.836 277.162C319.809 277.162 319.782 277.171 319.755 277.171C319.016 277.294 318.341 277.666 317.842 278.225C317.343 278.783 317.049 279.495 317.009 280.243L316.611 288.3H378.26L375.279 277.543Z" fill="#6F7CB2"/>
<path d="M409.686 287.048H397.792C397.792 286.716 397.66 286.398 397.425 286.163C397.19 285.928 396.872 285.796 396.54 285.796H392.784C392.452 285.796 392.133 285.928 391.899 286.163C391.664 286.398 391.532 286.716 391.532 287.048H387.776C387.776 286.716 387.644 286.398 387.409 286.163C387.174 285.928 386.856 285.796 386.524 285.796H382.768C382.436 285.796 382.117 285.928 381.882 286.163C381.648 286.398 381.516 286.716 381.516 287.048H377.76C377.76 286.716 377.628 286.398 377.393 286.163C377.158 285.928 376.84 285.796 376.508 285.796H372.752C372.419 285.796 372.101 285.928 371.866 286.163C371.631 286.398 371.5 286.716 371.5 287.048H367.743C367.743 286.716 367.612 286.398 367.377 286.163C367.142 285.928 366.823 285.796 366.491 285.796H362.735C362.403 285.796 362.085 285.928 361.85 286.163C361.615 286.398 361.483 286.716 361.483 287.048H357.727C357.727 286.716 357.595 286.398 357.361 286.163C357.126 285.928 356.807 285.796 356.475 285.796H352.719C352.387 285.796 352.069 285.928 351.834 286.163C351.599 286.398 351.467 286.716 351.467 287.048H347.711C347.711 286.716 347.579 286.398 347.344 286.163C347.11 285.928 346.791 285.796 346.459 285.796H342.703C342.371 285.796 342.052 285.928 341.818 286.163C341.583 286.398 341.451 286.716 341.451 287.048H337.695C337.695 286.716 337.563 286.398 337.328 286.163C337.093 285.928 336.775 285.796 336.443 285.796H332.687C332.355 285.796 332.036 285.928 331.802 286.163C331.567 286.398 331.435 286.716 331.435 287.048H327.679C327.679 286.716 327.547 286.398 327.312 286.163C327.077 285.928 326.759 285.796 326.427 285.796H322.671C322.339 285.796 322.02 285.928 321.785 286.163C321.55 286.398 321.419 286.716 321.419 287.048H317.663C317.663 286.716 317.531 286.398 317.296 286.163C317.061 285.928 316.743 285.796 316.41 285.796H312.654C312.322 285.796 312.004 285.928 311.769 286.163C311.534 286.398 311.402 286.716 311.402 287.048H307.646C307.646 286.716 307.514 286.398 307.28 286.163C307.045 285.928 306.726 285.796 306.394 285.796H302.638C302.306 285.796 301.988 285.928 301.753 286.163C301.518 286.398 301.386 286.716 301.386 287.048H297.63C297.63 286.716 297.498 286.398 297.263 286.163C297.029 285.928 296.71 285.796 296.378 285.796H292.622C292.29 285.796 291.972 285.928 291.737 286.163C291.502 286.398 291.37 286.716 291.37 287.048H279.476C278.481 287.05 277.527 287.446 276.824 288.151C276.121 288.855 275.726 289.81 275.726 290.805C275.726 291.8 276.121 292.755 276.824 293.459C277.527 294.164 278.481 294.56 279.476 294.562H409.686C410.682 294.562 411.638 294.166 412.342 293.461C413.047 292.757 413.442 291.801 413.442 290.805C413.442 289.809 413.047 288.853 412.342 288.149C411.638 287.444 410.682 287.048 409.686 287.048Z" fill="#3F3D56"/>
<path d="M260.114 265.232V290.176H197.629C195.955 290.235 194.286 289.955 192.722 289.355C191.159 288.754 189.732 287.845 188.527 286.681C187.322 285.517 186.364 284.122 185.709 282.58C185.055 281.038 184.717 279.38 184.717 277.704C184.717 276.029 185.055 274.37 185.709 272.828C186.364 271.286 187.322 269.891 188.527 268.727C189.732 267.564 191.159 266.654 192.722 266.054C194.286 265.453 195.955 265.174 197.629 265.232H260.114Z" fill="#F2F2F2"/>
<path d="M261.648 289.984C261.648 290.239 261.547 290.483 261.367 290.663C261.187 290.843 260.943 290.944 260.689 290.944H196.516C193.031 290.944 189.688 289.559 187.224 287.094C184.759 284.629 183.374 281.286 183.374 277.8C183.374 274.314 184.759 270.971 187.224 268.506C189.688 266.041 193.031 264.656 196.516 264.656H260.689C260.944 264.656 261.187 264.757 261.367 264.937C261.547 265.117 261.648 265.361 261.648 265.616C261.648 265.87 261.547 266.114 261.367 266.294C261.187 266.474 260.944 266.575 260.689 266.575H196.516C193.541 266.578 190.689 267.762 188.587 269.866C186.484 271.971 185.303 274.825 185.303 277.8C185.303 280.775 186.484 283.629 188.587 285.734C190.689 287.839 193.541 289.022 196.516 289.025H260.689C260.943 289.025 261.187 289.126 261.367 289.306C261.547 289.486 261.648 289.73 261.648 289.984Z" fill="#6F7CB2"/>
<path d="M260.114 270.988H192.967C192.942 270.989 192.916 270.984 192.893 270.974C192.87 270.965 192.848 270.95 192.83 270.933C192.812 270.915 192.798 270.894 192.788 270.87C192.779 270.847 192.774 270.822 192.774 270.796C192.774 270.771 192.779 270.746 192.788 270.723C192.798 270.699 192.812 270.678 192.83 270.66C192.848 270.642 192.87 270.628 192.893 270.619C192.916 270.609 192.942 270.604 192.967 270.605H260.114C260.164 270.605 260.213 270.625 260.248 270.661C260.284 270.697 260.304 270.746 260.304 270.796C260.304 270.847 260.284 270.896 260.248 270.932C260.213 270.968 260.164 270.988 260.114 270.988Z" fill="#CCCCCC"/>
<path d="M260.114 275.593H192.967C192.942 275.594 192.916 275.589 192.893 275.579C192.87 275.57 192.848 275.556 192.83 275.538C192.812 275.52 192.798 275.499 192.788 275.475C192.779 275.452 192.774 275.427 192.774 275.402C192.774 275.376 192.779 275.351 192.788 275.328C192.798 275.304 192.812 275.283 192.83 275.265C192.848 275.248 192.87 275.234 192.893 275.224C192.916 275.214 192.942 275.21 192.967 275.21H260.114C260.164 275.21 260.213 275.23 260.248 275.266C260.284 275.302 260.304 275.351 260.304 275.402C260.304 275.452 260.284 275.501 260.248 275.537C260.213 275.573 260.164 275.593 260.114 275.593Z" fill="#CCCCCC"/>
<path d="M260.114 280.199H192.967C192.942 280.199 192.916 280.194 192.893 280.184C192.87 280.175 192.848 280.161 192.83 280.143C192.812 280.125 192.798 280.104 192.788 280.08C192.779 280.057 192.774 280.032 192.774 280.007C192.774 279.981 192.779 279.956 192.788 279.933C192.798 279.91 192.812 279.888 192.83 279.871C192.848 279.853 192.87 279.839 192.893 279.829C192.916 279.82 192.942 279.815 192.967 279.815H260.114C260.164 279.815 260.213 279.836 260.248 279.872C260.284 279.907 260.304 279.956 260.304 280.007C260.304 280.057 260.284 280.106 260.248 280.142C260.213 280.178 260.164 280.198 260.114 280.199Z" fill="#CCCCCC"/>
<path d="M260.114 284.804H192.967C192.942 284.804 192.916 284.799 192.893 284.789C192.87 284.78 192.848 284.766 192.83 284.748C192.812 284.73 192.798 284.709 192.788 284.686C192.779 284.662 192.774 284.637 192.774 284.612C192.774 284.586 192.779 284.561 192.788 284.538C192.798 284.515 192.812 284.494 192.83 284.476C192.848 284.458 192.87 284.444 192.893 284.434C192.916 284.425 192.942 284.42 192.967 284.42H260.114C260.164 284.42 260.213 284.441 260.248 284.477C260.284 284.513 260.304 284.561 260.304 284.612C260.304 284.662 260.284 284.711 260.248 284.747C260.213 284.783 260.164 284.803 260.114 284.804Z" fill="#CCCCCC"/>
<path d="M248.335 238.951V263.896H185.85C184.176 263.954 182.507 263.675 180.943 263.074C179.38 262.474 177.953 261.564 176.748 260.4C175.543 259.236 174.585 257.842 173.93 256.3C173.276 254.757 172.938 253.099 172.938 251.424C172.938 249.748 173.276 248.09 173.93 246.548C174.585 245.006 175.543 243.611 176.748 242.447C177.953 241.283 179.38 240.374 180.943 239.773C182.507 239.173 184.176 238.893 185.85 238.951H248.335Z" fill="#F2F2F2"/>
<path d="M249.869 263.704C249.869 263.958 249.768 264.202 249.588 264.382C249.409 264.562 249.165 264.663 248.91 264.663H184.737C183.011 264.663 181.302 264.323 179.708 263.663C178.114 263.002 176.665 262.034 175.445 260.814C174.224 259.593 173.256 258.144 172.596 256.55C171.935 254.955 171.596 253.246 171.596 251.52C171.596 249.794 171.935 248.084 172.596 246.49C173.256 244.895 174.224 243.446 175.445 242.226C176.665 241.005 178.114 240.037 179.708 239.376C181.302 238.716 183.011 238.376 184.737 238.376H248.91C249.165 238.376 249.409 238.477 249.588 238.657C249.768 238.837 249.869 239.081 249.869 239.335C249.869 239.59 249.768 239.834 249.588 240.014C249.409 240.194 249.165 240.295 248.91 240.295H184.737C181.762 240.297 178.91 241.481 176.808 243.586C174.705 245.691 173.524 248.544 173.524 251.52C173.524 254.495 174.705 257.349 176.808 259.453C178.91 261.558 181.762 262.742 184.737 262.745H248.91C249.165 262.745 249.409 262.846 249.588 263.026C249.768 263.206 249.869 263.45 249.869 263.704Z" fill="#3F3D56"/>
<path d="M248.335 244.708H181.188C181.163 244.708 181.137 244.703 181.114 244.694C181.091 244.684 181.069 244.67 181.051 244.652C181.033 244.634 181.019 244.613 181.009 244.59C181 244.566 180.995 244.541 180.995 244.516C180.995 244.491 181 244.466 181.009 244.442C181.019 244.419 181.033 244.398 181.051 244.38C181.069 244.362 181.091 244.348 181.114 244.338C181.137 244.329 181.163 244.324 181.188 244.324H248.335C248.385 244.324 248.434 244.345 248.469 244.381C248.505 244.417 248.525 244.465 248.525 244.516C248.525 244.567 248.505 244.615 248.469 244.651C248.434 244.687 248.385 244.708 248.335 244.708Z" fill="#CCCCCC"/>
<path d="M248.335 249.313H181.188C181.163 249.313 181.137 249.308 181.114 249.299C181.091 249.289 181.069 249.275 181.051 249.257C181.033 249.239 181.019 249.218 181.009 249.195C181 249.171 180.995 249.146 180.995 249.121C180.995 249.096 181 249.071 181.009 249.047C181.019 249.024 181.033 249.003 181.051 248.985C181.069 248.967 181.091 248.953 181.114 248.943C181.137 248.934 181.163 248.929 181.188 248.929H248.335C248.385 248.93 248.434 248.95 248.469 248.986C248.505 249.022 248.525 249.07 248.525 249.121C248.525 249.172 248.505 249.22 248.469 249.256C248.434 249.292 248.385 249.313 248.335 249.313Z" fill="#CCCCCC"/>
<path d="M248.335 253.918H181.188C181.163 253.918 181.137 253.913 181.114 253.904C181.091 253.894 181.069 253.88 181.051 253.862C181.033 253.845 181.019 253.823 181.009 253.8C181 253.777 180.995 253.752 180.995 253.726C180.995 253.701 181 253.676 181.009 253.653C181.019 253.629 181.033 253.608 181.051 253.59C181.069 253.572 181.091 253.558 181.114 253.549C181.137 253.539 181.163 253.534 181.188 253.534H248.335C248.385 253.535 248.434 253.555 248.469 253.591C248.505 253.627 248.525 253.676 248.525 253.726C248.525 253.777 248.505 253.826 248.469 253.861C248.434 253.897 248.385 253.918 248.335 253.918Z" fill="#CCCCCC"/>
<path d="M248.335 258.523H181.188C181.163 258.523 181.137 258.519 181.114 258.509C181.091 258.499 181.069 258.485 181.051 258.467C181.033 258.45 181.019 258.428 181.009 258.405C181 258.382 180.995 258.357 180.995 258.331C180.995 258.306 181 258.281 181.009 258.258C181.019 258.234 181.033 258.213 181.051 258.195C181.069 258.177 181.091 258.163 181.114 258.154C181.137 258.144 181.163 258.139 181.188 258.139H248.335C248.385 258.14 248.434 258.16 248.469 258.196C248.505 258.232 248.525 258.281 248.525 258.331C248.525 258.382 248.505 258.431 248.469 258.467C248.434 258.502 248.385 258.523 248.335 258.523Z" fill="#CCCCCC"/>
<path d="M321.023 378.84V357.091C321.023 356.13 320.641 355.208 319.962 354.528C319.282 353.848 318.36 353.466 317.399 353.466H234.947C233.985 353.466 233.064 353.848 232.384 354.528C231.704 355.208 231.322 356.13 231.322 357.091V378.84H321.023Z" fill="#CCCCCC"/>
<path d="M321.023 386.996H231.322V415.089H321.023V386.996Z" fill="#CCCCCC"/>
<path d="M231.322 423.245V444.995C231.322 445.956 231.704 446.878 232.384 447.558C233.064 448.238 233.985 448.62 234.947 448.62H317.399C318.36 448.62 319.282 448.238 319.962 447.558C320.641 446.878 321.023 445.956 321.023 444.995V423.245H231.322Z" fill="#CCCCCC"/>
<path d="M275.72 369.778C277.221 369.778 278.438 368.561 278.438 367.06C278.438 365.558 277.221 364.341 275.72 364.341C274.219 364.341 273.002 365.558 273.002 367.06C273.002 368.561 274.219 369.778 275.72 369.778Z" fill="white"/>
<path d="M275.72 406.027C277.221 406.027 278.438 404.81 278.438 403.308C278.438 401.807 277.221 400.59 275.72 400.59C274.219 400.59 273.002 401.807 273.002 403.308C273.002 404.81 274.219 406.027 275.72 406.027Z" fill="white"/>
<path d="M275.865 441.509C277.367 441.509 278.584 440.291 278.584 438.79C278.584 437.288 277.367 436.071 275.865 436.071C274.364 436.071 273.147 437.288 273.147 438.79C273.147 440.291 274.364 441.509 275.865 441.509Z" fill="white"/>
<path d="M310.853 328.668V353.612H248.369C246.695 353.67 245.026 353.391 243.462 352.79C241.898 352.19 240.472 351.28 239.267 350.117C238.062 348.953 237.104 347.558 236.449 346.016C235.795 344.473 235.457 342.815 235.457 341.14C235.457 339.464 235.795 337.806 236.449 336.264C237.104 334.722 238.062 333.327 239.267 332.163C240.472 330.999 241.898 330.09 243.462 329.489C245.026 328.889 246.695 328.609 248.369 328.668H310.853Z" fill="#F2F2F2"/>
<path d="M312.388 353.42C312.388 353.675 312.287 353.919 312.107 354.098C311.927 354.278 311.683 354.379 311.429 354.38H247.256C245.529 354.381 243.819 354.042 242.224 353.382C240.628 352.722 239.178 351.754 237.956 350.534C236.735 349.313 235.766 347.864 235.105 346.268C234.444 344.673 234.103 342.963 234.103 341.236C234.103 339.509 234.444 337.799 235.105 336.203C235.766 334.608 236.735 333.158 237.956 331.938C239.178 330.717 240.628 329.749 242.224 329.089C243.819 328.429 245.529 328.091 247.256 328.092H311.429C311.683 328.092 311.927 328.193 312.107 328.373C312.287 328.553 312.388 328.797 312.388 329.051C312.388 329.306 312.287 329.55 312.107 329.73C311.927 329.91 311.683 330.011 311.429 330.011H247.256C244.281 330.013 241.429 331.197 239.327 333.302C237.224 335.407 236.043 338.26 236.043 341.236C236.043 344.211 237.224 347.065 239.327 349.169C241.429 351.274 244.281 352.458 247.256 352.461H311.429C311.683 352.461 311.927 352.562 312.107 352.742C312.287 352.922 312.388 353.166 312.388 353.42Z" fill="#3F3D56"/>
<path d="M310.853 334.424H243.707C243.681 334.424 243.656 334.419 243.633 334.41C243.609 334.4 243.588 334.386 243.57 334.368C243.552 334.35 243.538 334.329 243.528 334.306C243.519 334.282 243.514 334.257 243.514 334.232C243.514 334.207 243.519 334.182 243.528 334.158C243.538 334.135 243.552 334.114 243.57 334.096C243.588 334.078 243.609 334.064 243.633 334.054C243.656 334.045 243.681 334.04 243.707 334.04H310.853C310.904 334.041 310.953 334.061 310.988 334.097C311.024 334.133 311.044 334.181 311.044 334.232C311.044 334.283 311.024 334.331 310.988 334.367C310.953 334.403 310.904 334.424 310.853 334.424Z" fill="#CCCCCC"/>
<path d="M310.853 339.029H243.707C243.681 339.029 243.656 339.024 243.633 339.015C243.609 339.005 243.588 338.991 243.57 338.973C243.552 338.956 243.538 338.934 243.528 338.911C243.519 338.888 243.514 338.863 243.514 338.837C243.514 338.812 243.519 338.787 243.528 338.764C243.538 338.74 243.552 338.719 243.57 338.701C243.588 338.683 243.609 338.669 243.633 338.66C243.656 338.65 243.681 338.645 243.707 338.645H310.853C310.904 338.646 310.953 338.666 310.988 338.702C311.024 338.738 311.044 338.787 311.044 338.837C311.044 338.888 311.024 338.936 310.988 338.972C310.953 339.008 310.904 339.029 310.853 339.029Z" fill="#CCCCCC"/>
<path d="M310.853 343.634H243.707C243.681 343.634 243.656 343.63 243.633 343.62C243.609 343.61 243.588 343.596 243.57 343.578C243.552 343.561 243.538 343.539 243.528 343.516C243.519 343.493 243.514 343.468 243.514 343.442C243.514 343.417 243.519 343.392 243.528 343.369C243.538 343.345 243.552 343.324 243.57 343.306C243.588 343.288 243.609 343.274 243.633 343.265C243.656 343.255 243.681 343.25 243.707 343.251H310.853C310.904 343.251 310.953 343.271 310.988 343.307C311.024 343.343 311.044 343.392 311.044 343.442C311.044 343.493 311.024 343.542 310.988 343.578C310.953 343.614 310.904 343.634 310.853 343.634Z" fill="#CCCCCC"/>
<path d="M310.853 348.239H243.707C243.681 348.239 243.656 348.235 243.633 348.225C243.609 348.216 243.588 348.201 243.57 348.184C243.552 348.166 243.538 348.145 243.528 348.121C243.519 348.098 243.514 348.073 243.514 348.047C243.514 348.022 243.519 347.997 243.528 347.974C243.538 347.95 243.552 347.929 243.57 347.911C243.588 347.893 243.609 347.879 243.633 347.87C243.656 347.86 243.681 347.855 243.707 347.856H310.853C310.904 347.856 310.953 347.876 310.988 347.912C311.024 347.948 311.044 347.997 311.044 348.047C311.044 348.098 311.024 348.147 310.988 348.183C310.953 348.219 310.904 348.239 310.853 348.239Z" fill="#CCCCCC"/>
<path d="M226.617 165.858V6.8161C226.619 5.00899 227.338 3.27649 228.616 1.99867C229.893 0.720846 231.625 0.00205553 233.432 0H359.13C360.937 0.0020675 362.669 0.720863 363.947 1.99868C365.224 3.2765 365.943 5.009 365.945 6.8161V165.858C365.943 167.665 365.224 169.398 363.947 170.676C362.669 171.954 360.937 172.672 359.13 172.674H233.432C231.625 172.672 229.893 171.954 228.616 170.676C227.338 169.398 226.619 167.665 226.617 165.858ZM233.432 1.51469C232.027 1.51626 230.68 2.07531 229.686 3.06918C228.692 4.06305 228.133 5.41057 228.132 6.8161V165.858C228.133 167.264 228.692 168.611 229.686 169.605C230.68 170.599 232.027 171.158 233.432 171.16H359.13C360.535 171.158 361.883 170.599 362.876 169.605C363.87 168.611 364.429 167.264 364.43 165.858V6.8161C364.429 5.41057 363.87 4.06304 362.876 3.06918C361.883 2.07531 360.535 1.51627 359.13 1.51469H233.432Z" fill="#E6E6E6"/>
<path d="M303.33 73.0395V40.3832C303.331 39.4796 303.69 38.6133 304.329 37.9744C304.968 37.3355 305.834 36.9761 306.737 36.9751H334.406C335.309 36.9761 336.175 37.3355 336.814 37.9744C337.453 38.6133 337.812 39.4796 337.813 40.3832V73.0395C337.812 73.9431 337.453 74.8094 336.814 75.4483C336.175 76.0872 335.309 76.4466 334.406 76.4476H306.737C305.834 76.4466 304.968 76.0872 304.329 75.4483C303.69 74.8094 303.331 73.9431 303.33 73.0395Z" fill="#6F7CB2"/>
<path d="M249.568 88.1864V55.5301C249.569 54.6265 249.928 53.7602 250.567 53.1213C251.205 52.4824 252.072 52.123 252.975 52.122H280.644C281.547 52.123 282.413 52.4824 283.052 53.1213C283.691 53.7602 284.05 54.6265 284.051 55.5301V88.1865C284.05 89.09 283.691 89.9563 283.052 90.5952C282.413 91.2341 281.547 91.5935 280.644 91.5945H252.975C252.072 91.5935 251.205 91.2341 250.567 90.5952C249.928 89.9563 249.569 89.09 249.568 88.1864Z" fill="#CCCCCC"/>
<path d="M292.729 134.384V101.728C292.73 100.824 293.089 99.9581 293.728 99.3192C294.367 98.6803 295.233 98.3209 296.136 98.3199H323.805C324.708 98.3209 325.574 98.6803 326.213 99.3192C326.852 99.9581 327.211 100.824 327.212 101.728V134.384C327.211 135.288 326.852 136.154 326.213 136.793C325.574 137.432 324.708 137.791 323.805 137.792H296.136C295.233 137.791 294.367 137.432 293.728 136.793C293.089 136.154 292.73 135.288 292.729 134.384Z" fill="#091133"/>
<path d="M458.075 283.687H429.606C429.336 283.687 429.07 283.749 428.827 283.868L421.642 287.466C421.406 287.566 421.204 287.734 421.062 287.949C420.92 288.163 420.845 288.414 420.845 288.671C420.845 288.928 420.92 289.18 421.062 289.394C421.204 289.608 421.406 289.776 421.642 289.877L428.827 293.474C429.07 293.594 429.336 293.656 429.606 293.655H458.075C458.467 293.678 458.853 293.545 459.148 293.286C459.443 293.026 459.624 292.661 459.652 292.269V285.074C459.624 284.681 459.443 284.316 459.148 284.057C458.853 283.797 458.467 283.664 458.075 283.687Z" fill="#3F3D56"/>
<path d="M459.652 285.074V292.269C459.624 292.661 459.443 293.026 459.148 293.286C458.853 293.545 458.467 293.678 458.075 293.655H452.403V283.687H458.075C458.467 283.664 458.853 283.797 459.148 284.057C459.443 284.316 459.624 284.681 459.652 285.074Z" fill="#6F7CB2"/>
<path d="M457.861 229.857C459.15 229.301 460.543 229.023 461.947 229.042C463.351 229.061 464.736 229.377 466.01 229.969C467.284 230.56 468.418 231.414 469.339 232.475C470.259 233.536 470.946 234.779 471.353 236.123C471.479 236.55 471.576 236.984 471.643 237.424L511.454 257.169L520.667 251.062L532.13 264.261L518.063 275.689C516.371 277.052 514.285 277.834 512.114 277.918C509.943 278.001 507.802 277.383 506.011 276.154L465.619 248.216C465.318 248.344 465.011 248.456 464.699 248.552C463.355 248.959 461.94 249.077 460.547 248.898C459.153 248.72 457.814 248.249 456.615 247.516C455.417 246.784 454.386 245.806 453.592 244.648C452.797 243.489 452.257 242.176 452.005 240.794C451.93 240.393 451.881 239.987 451.858 239.58C451.746 237.54 452.261 235.515 453.334 233.777C454.407 232.038 455.987 230.671 457.861 229.857Z" fill="#FFB8B8"/>
<path d="M540.779 351.426H497.279C497.279 352.676 452.447 353.691 452.447 353.691C451.743 354.221 451.102 354.829 450.535 355.504C448.832 357.535 447.902 360.103 447.907 362.754V364.566C447.908 367.57 449.102 370.451 451.226 372.575C453.35 374.699 456.23 375.893 459.233 375.894H540.779C543.782 375.891 546.662 374.697 548.785 372.573C550.909 370.449 552.103 367.57 552.105 364.566V362.754C552.101 359.751 550.907 356.872 548.783 354.748C546.66 352.625 543.782 351.43 540.779 351.426Z" fill="#3F3D56"/>
<path d="M493.461 451.567H505.24V375.444H493.461V451.567Z" fill="#3F3D56"/>
<path d="M459.937 451.153C459.937 452.426 477.786 451.645 499.804 451.645C521.822 451.645 539.671 452.426 539.671 451.153C539.671 449.88 521.822 439.786 499.804 439.786C477.786 439.786 459.937 449.88 459.937 451.153Z" fill="#3F3D56"/>
<path d="M470.57 442.231L459.462 442.23L454.177 413.415L470.572 413.416L470.57 442.231Z" fill="#FFB8B8"/>
<path d="M473.403 453L437.586 452.999V452.546C437.586 450.714 437.946 448.901 438.647 447.21C439.347 445.518 440.374 443.981 441.669 442.686C442.963 441.391 444.5 440.364 446.192 439.663C447.883 438.963 449.696 438.602 451.527 438.602H451.528L473.404 438.603L473.403 453Z" fill="#2F2E41"/>
<path d="M453.956 424.362L431.811 374.694C429.962 370.508 429.757 365.778 431.238 361.448C432.719 357.118 435.776 353.505 439.801 351.328L487.835 325.566L509.754 323.701L529.972 321.863L530.118 322.11C530.305 322.425 534.652 329.935 531.713 338.17C529.484 344.416 523.686 349.295 514.481 352.671C492.994 360.551 468.172 367.286 458.498 369.815C458.071 369.924 457.671 370.123 457.326 370.398C456.98 370.673 456.697 371.017 456.495 371.41C456.292 371.797 456.171 372.223 456.14 372.659C456.11 373.096 456.17 373.534 456.317 373.946L476.89 420.177C477.105 420.763 477.183 421.391 477.117 422.012C477.051 422.633 476.843 423.23 476.509 423.758C476.176 424.286 475.725 424.73 475.193 425.057C474.661 425.383 474.061 425.583 473.439 425.641L458.066 426.76C457.936 426.772 457.806 426.779 457.676 426.779C456.889 426.778 456.119 426.55 455.458 426.121C454.798 425.692 454.276 425.081 453.956 424.362Z" fill="#2F2E41"/>
<path d="M476.006 442.231L464.899 442.23L459.614 413.415L476.008 413.416L476.006 442.231Z" fill="#FFB8B8"/>
<path d="M478.839 453L443.022 452.999V452.546C443.022 450.714 443.383 448.901 444.083 447.21C444.784 445.518 445.811 443.981 447.105 442.686C448.4 441.391 449.937 440.364 451.628 439.663C453.32 438.963 455.132 438.602 456.963 438.602H456.964L478.84 438.603L478.839 453Z" fill="#2F2E41"/>
<path d="M460.298 427.08L438.153 377.412C436.304 373.226 436.1 368.497 437.581 364.167C439.061 359.837 442.119 356.223 446.143 354.046L494.177 328.284L516.096 326.42L536.315 324.582L536.461 324.829C536.647 325.144 540.994 332.654 538.056 340.888C535.827 347.135 530.029 352.013 520.823 355.39C499.337 363.27 474.515 370.004 464.841 372.534C464.413 372.643 464.014 372.842 463.668 373.116C463.323 373.391 463.04 373.736 462.837 374.128C462.634 374.516 462.513 374.941 462.483 375.378C462.452 375.814 462.512 376.253 462.659 376.665L483.233 422.895C483.448 423.482 483.525 424.11 483.459 424.73C483.393 425.351 483.185 425.949 482.852 426.477C482.518 427.005 482.068 427.449 481.536 427.775C481.003 428.102 480.403 428.302 479.781 428.359L464.409 429.479C464.278 429.491 464.148 429.497 464.019 429.497C463.232 429.497 462.461 429.269 461.801 428.84C461.141 428.411 460.619 427.8 460.298 427.08Z" fill="#2F2E41"/>
<path d="M449.261 275.351C439.955 262.971 432.598 249.239 427.446 234.633C427.148 233.759 427.169 232.808 427.506 231.948C427.844 231.089 428.475 230.377 429.287 229.939L461.131 212.873C461.647 212.595 462.218 212.438 462.803 212.414C463.388 212.391 463.971 212.501 464.507 212.736C465.053 212.974 465.538 213.332 465.924 213.785C466.311 214.238 466.589 214.773 466.737 215.35C470.444 229.425 477.411 242.43 487.075 253.312C487.472 253.755 487.764 254.283 487.927 254.856C488.09 255.428 488.12 256.031 488.015 256.617C487.914 257.194 487.683 257.74 487.34 258.214C486.996 258.688 486.548 259.077 486.031 259.352L454.187 276.417C453.373 276.852 452.431 276.983 451.528 276.788C450.626 276.592 449.823 276.083 449.261 275.351Z" fill="#CCCCCC"/>
<path d="M451.434 273.718C451.605 273.931 451.845 274.079 452.114 274.134C452.382 274.19 452.661 274.15 452.903 274.021L484.747 256.955C484.902 256.875 485.036 256.759 485.139 256.618C485.241 256.477 485.31 256.314 485.339 256.142C485.372 255.961 485.363 255.774 485.312 255.597C485.26 255.419 485.169 255.256 485.044 255.12C475.096 243.917 467.923 230.529 464.108 216.039C464.064 215.86 463.979 215.694 463.86 215.553C463.74 215.412 463.59 215.301 463.421 215.228C463.261 215.157 463.088 215.124 462.913 215.131C462.738 215.138 462.568 215.186 462.415 215.27L430.571 232.335C430.33 232.466 430.142 232.676 430.04 232.931C429.937 233.185 429.927 233.467 430.01 233.728C435.07 248.073 442.294 261.559 451.434 273.718Z" fill="white"/>
<path d="M555.051 270.799L530.112 280.277L524.023 263.361C523.215 261.115 523.226 258.655 524.056 256.416C524.885 254.178 526.479 252.304 528.555 251.127C530.656 249.937 533.113 249.537 535.483 249.999C537.853 250.462 539.979 251.757 541.478 253.651L555.051 270.799Z" fill="#6C63FF"/>
<path d="M491.618 337.823C491.093 337.451 490.653 336.973 490.327 336.418C490.002 335.864 489.798 335.246 489.73 334.607C486.536 304.783 488.76 281.444 496.531 263.255C497.899 260.118 499.961 257.332 502.561 255.107C505.161 252.881 508.231 251.274 511.541 250.405L531.701 249.388L531.805 249.438C536.355 251.667 540.065 255.302 542.385 259.806C544.706 264.309 545.514 269.441 544.689 274.439C538.205 291.534 532.776 309.332 536.916 323.689C537.09 324.289 537.141 324.919 537.065 325.539C536.99 326.159 536.79 326.758 536.478 327.299C536.175 327.822 535.768 328.278 535.283 328.638C534.797 328.997 534.243 329.254 533.655 329.392L495.257 338.527C494.635 338.675 493.989 338.689 493.361 338.567C492.734 338.446 492.139 338.192 491.618 337.823Z" fill="#6F7CB2"/>
<path d="M524.973 241.857C537.264 241.857 547.227 231.892 547.227 219.599C547.227 207.306 537.264 197.341 524.973 197.341C512.683 197.341 502.719 207.306 502.719 219.599C502.719 231.892 512.683 241.857 524.973 241.857Z" fill="#FFB8B8"/>
<path d="M463.222 237.228L445.878 244.885C445.219 245.175 444.471 245.192 443.799 244.932C443.127 244.671 442.586 244.155 442.294 243.496L441.865 242.524C441.575 241.864 441.558 241.116 441.818 240.444C442.079 239.772 442.595 239.231 443.254 238.939L460.598 231.282C461.257 230.991 462.005 230.974 462.677 231.235C463.349 231.495 463.89 232.012 464.182 232.671L464.611 233.643C464.901 234.302 464.918 235.05 464.658 235.723C464.397 236.395 463.881 236.936 463.222 237.228Z" fill="#CCCCCC"/>
<path d="M469.564 249.009L452.221 256.666C451.561 256.956 450.813 256.973 450.141 256.713C449.469 256.452 448.928 255.936 448.636 255.277L448.207 254.305C447.917 253.645 447.9 252.897 448.161 252.225C448.421 251.553 448.938 251.011 449.596 250.72L466.94 243.062C467.6 242.772 468.348 242.755 469.019 243.016C469.691 243.276 470.233 243.793 470.524 244.452L470.953 245.424C471.244 246.083 471.261 246.831 471 247.503C470.74 248.176 470.223 248.717 469.564 249.009Z" fill="#CCCCCC"/>
<path d="M482.94 295.024L444.274 264.515C443.966 264.624 443.652 264.716 443.335 264.792C441.97 265.111 440.553 265.14 439.177 264.876C437.801 264.612 436.495 264.061 435.345 263.259C434.188 262.457 433.215 261.417 432.492 260.208C431.769 259 431.313 257.651 431.153 256.251C430.894 254.014 431.398 251.755 432.584 249.841C433.769 247.926 435.567 246.469 437.685 245.704C439.007 245.23 440.414 245.041 441.815 245.148C443.215 245.256 444.577 245.658 445.811 246.328C447.045 246.999 448.123 247.923 448.976 249.039C449.828 250.156 450.435 251.44 450.756 252.807C450.856 253.24 450.925 253.68 450.964 254.123L489.455 276.332L499.034 270.816L509.645 284.71L494.772 295.313C493.031 296.544 490.94 297.18 488.808 297.128C486.677 297.076 484.619 296.338 482.94 295.024Z" fill="#FFB8B8"/>
<path d="M514.363 289.037L492.301 274.033L502.669 259.346C504.046 257.395 506.068 255.995 508.377 255.391C510.687 254.788 513.135 255.02 515.29 256.047C517.469 257.086 519.206 258.871 520.185 261.078C521.165 263.285 521.322 265.77 520.63 268.084L514.363 289.037Z" fill="#6F7CB2"/>
<path d="M98.827 324.427C93.0926 326.443 86.9357 326.948 80.9495 325.893C74.9632 324.838 69.3495 322.259 64.649 318.405C52.678 308.356 48.9248 291.8 45.8709 276.469C42.8599 261.355 39.849 246.241 36.838 231.126L55.7492 244.15C69.349 253.516 83.2551 263.182 92.6716 276.748C102.088 290.314 106.198 308.833 98.6325 323.512" fill="#E6E6E6"/>
<path d="M97.2104 379.324C99.1245 365.38 101.093 351.256 99.75 337.162C98.5576 324.645 94.7396 312.42 86.9665 302.396C82.8405 297.085 77.82 292.535 72.1306 288.95C70.647 288.013 69.2816 290.365 70.7587 291.297C80.6029 297.52 88.217 306.708 92.5033 317.538C97.2374 329.581 97.9977 342.709 97.1819 355.503C96.6885 363.24 95.6429 370.925 94.5893 378.601C94.5062 378.949 94.558 379.314 94.7342 379.625C94.9105 379.935 95.1979 380.167 95.5385 380.274C95.886 380.367 96.2565 380.32 96.5694 380.142C96.8824 379.965 97.1127 379.671 97.2104 379.324H97.2104Z" fill="#F2F2F2"/>
<path d="M78.7746 354.649C76.3152 358.388 72.9346 361.43 68.9585 363.482C64.9824 365.535 60.5448 366.529 56.0732 366.368C44.5814 365.822 35.0009 357.8 26.3767 350.184L0.867859 327.658L17.7505 326.85C29.8915 326.269 42.3457 325.727 53.9095 329.472C65.4734 333.216 76.1382 342.228 78.2527 354.2" fill="#E6E6E6"/>
<path d="M102.62 387.34C93.407 371.036 82.7212 352.916 63.6273 347.125C58.3182 345.52 52.7513 344.945 47.2264 345.431C45.4851 345.581 45.92 348.266 47.6581 348.116C56.9191 347.347 66.1621 349.793 73.8312 355.042C81.2111 360.066 86.9571 367.05 91.8205 374.458C94.7994 378.995 97.4678 383.724 100.137 388.447C100.99 389.957 103.483 388.867 102.62 387.34Z" fill="#F2F2F2"/>
<path d="M117.381 404.501C117.071 400.904 115.779 397.461 113.648 394.547C111.516 391.633 108.626 389.36 105.292 387.975V378.549H89.4853V388.272C86.3153 389.725 83.5872 391.992 81.5791 394.843C79.571 397.694 78.3547 401.027 78.0542 404.501L74.3375 447.713H121.098L117.381 404.501Z" fill="#F2F2F2"/>
<path d="M572.274 239.088C570.213 238.069 565.662 236.011 561.786 233.532C562.057 225.467 561.063 218.146 558.153 214.265C556.52 210.56 553.089 206.85 550.403 203.929C543.806 196.755 529.217 192.751 526.63 196.335C507.06 196.721 505 212.045 505 212.045C505.102 218.455 511.77 218.658 517.612 218.424C517.089 222.8 518.483 227.347 522.52 229.363C530.239 233.219 532.555 238.232 528.695 241.702C524.836 245.172 517.888 254.427 527.151 256.74C536.415 259.054 537.573 263.681 534.871 265.609C532.169 267.537 541.047 262.138 541.047 262.138C541.047 262.138 542.591 271.393 550.696 269.079C551.546 268.778 552.296 268.247 552.862 267.546C555.052 269.949 557.005 271.37 558.476 271.377C566.906 271.422 565.895 262.095 565.895 262.095C565.895 262.095 575.901 264.902 572.779 263.773C569.657 262.644 569.523 257.877 577.819 253.154C586.115 248.431 576.927 241.391 572.274 239.088Z" fill="#2F2E41"/>
</g>
<defs>
<clipPath id="clip0">
<rect width="627" height="453" fill="white"/>
</clipPath>
</defs>
</svg>
