<svg width="1110" height="503" viewBox="0 0 1110 503" fill="none" xmlns="http://www.w3.org/2000/svg">
<path d="M934 473.471C934.502 463.377 938.661 453.87 945.622 446.911C952.582 439.953 961.812 436.073 971.408 436.073C972.547 436.073 973.671 436.136 974.784 436.241C979.16 428.31 985.434 421.728 992.981 417.151C1000.53 412.575 1009.08 410.164 1017.79 410.16C1026.5 410.155 1035.05 412.558 1042.6 417.127C1050.15 421.696 1056.44 428.272 1060.82 436.198C1061.76 436.123 1062.7 436.073 1063.66 436.073C1073.25 436.073 1082.48 439.953 1089.45 446.911C1096.41 453.87 1100.57 463.377 1101.07 473.471" fill="#F2F2F2" fill-opacity="0.6"/>
<path d="M941.802 470.436C942.304 460.341 946.464 450.834 953.424 443.876C960.384 436.917 969.615 433.038 979.211 433.038C980.349 433.038 981.473 433.1 982.586 433.205C986.962 425.275 993.236 418.693 1000.78 414.116C1008.33 409.539 1016.88 407.129 1025.59 407.124C1034.3 407.12 1042.86 409.522 1050.41 414.091C1057.96 418.66 1064.24 425.236 1068.62 433.162C1069.56 433.088 1070.5 433.038 1071.46 433.038C1081.06 433.038 1090.29 436.917 1097.25 443.876C1104.21 450.834 1108.37 460.341 1108.87 470.436" stroke="#3F3D56" stroke-opacity="0.6" stroke-miterlimit="10"/>
<path d="M1108.87 193.603C1108.37 183.509 1104.21 174.002 1097.25 167.043C1090.29 160.085 1081.06 156.205 1071.46 156.205C1070.32 156.205 1069.2 156.268 1068.09 156.372C1063.71 148.442 1057.43 141.86 1049.89 137.283C1042.34 132.707 1033.79 130.296 1025.08 130.292C1016.37 130.287 1007.82 132.69 1000.27 137.259C992.714 141.828 986.434 148.404 982.051 156.33C981.112 156.255 980.167 156.205 979.211 156.205C969.615 156.205 960.385 160.085 953.424 167.043C946.464 174.002 942.304 183.509 941.802 193.603" fill="#F2F2F2" fill-opacity="0.6"/>
<path d="M1101.07 190.568C1100.57 180.473 1096.41 170.966 1089.45 164.008C1082.48 157.049 1073.25 153.17 1063.66 153.17C1062.52 153.17 1061.4 153.232 1060.28 153.337C1055.91 145.407 1049.63 138.825 1042.09 134.248C1034.54 129.671 1025.99 127.26 1017.28 127.256C1008.57 127.252 1000.01 129.654 992.463 134.223C984.912 138.792 978.632 145.368 974.249 153.294C973.31 153.22 972.365 153.17 971.408 153.17C961.812 153.17 952.582 157.049 945.622 164.008C938.662 170.966 934.502 180.473 934 190.568" stroke="#3F3D56" stroke-opacity="0.6" stroke-miterlimit="10"/>
<path d="M0 196.76C0.50152 186.665 4.66146 177.158 11.6219 170.2C18.5822 163.241 27.8123 159.362 37.4083 159.362C38.5468 159.362 39.671 159.424 40.7836 159.529C45.1596 151.599 51.4342 145.016 58.9807 140.44C66.5272 135.863 75.0815 133.452 83.7893 133.448C92.4971 133.444 101.054 135.846 108.604 140.415C116.155 144.984 122.435 151.56 126.818 159.486C127.757 159.412 128.702 159.362 129.659 159.362C139.255 159.362 148.485 163.241 155.445 170.2C162.405 177.158 166.565 186.665 167.067 196.76" fill="#F2F2F2" fill-opacity="0.6"/>
<path d="M7.80225 193.724C8.30377 183.63 12.4637 174.123 19.4241 167.164C26.3845 160.206 35.6145 156.326 45.2105 156.326C46.349 156.326 47.4732 156.389 48.5858 156.494C52.9618 148.563 59.2364 141.981 66.7829 137.404C74.3294 132.828 82.8837 130.417 91.5915 130.413C100.299 130.408 108.856 132.811 116.406 137.38C123.957 141.949 130.237 148.525 134.62 156.451C135.559 156.376 136.504 156.326 137.461 156.326C147.057 156.326 156.287 160.206 163.247 167.164C170.208 174.123 174.368 183.63 174.869 193.724" stroke="#3F3D56" stroke-opacity="0.6" stroke-miterlimit="10"/>
<path d="M152 67.347C152.502 57.2525 156.661 47.7456 163.622 40.7871C170.582 33.8286 179.812 29.9492 189.408 29.949C190.547 29.949 191.671 30.0115 192.784 30.1163C197.16 22.186 203.434 15.6038 210.981 11.0272C218.527 6.4506 227.082 4.03974 235.789 4.03541C244.497 4.03107 253.054 6.4334 260.604 11.0025C268.155 15.5716 274.435 22.1475 278.818 30.0735C279.757 29.9992 280.702 29.949 281.659 29.949C291.255 29.9492 300.485 33.8286 307.445 40.7871C314.405 47.7456 318.565 57.2525 319.067 67.3471" fill="#F2F2F2" fill-opacity="0.6"/>
<path d="M159.802 64.3116C160.303 54.2171 164.463 44.7102 171.424 37.7517C178.384 30.7932 187.614 26.9138 197.21 26.9136C198.349 26.9136 199.473 26.9761 200.585 27.0809C204.961 19.1506 211.236 12.5684 218.782 7.9918C226.329 3.4152 234.883 1.00434 243.591 1.00001C252.299 0.995669 260.855 3.398 268.406 7.96708C275.956 12.5362 282.237 19.1121 286.62 27.0381C287.559 26.9638 288.504 26.9136 289.46 26.9136C299.056 26.9138 308.286 30.7932 315.247 37.7517C322.207 44.7102 326.367 54.2171 326.869 64.3117" stroke="#3F3D56" stroke-opacity="0.6" stroke-miterlimit="10"/>
<path d="M734 70.5035C734.502 60.409 738.661 50.9021 745.622 43.9436C752.582 36.9851 761.812 33.1057 771.408 33.1055C772.547 33.1055 773.671 33.168 774.784 33.2728C779.16 25.3425 785.434 18.7603 792.981 14.1837C800.527 9.60709 809.082 7.19624 817.789 7.1919C826.497 7.18756 835.054 9.5899 842.604 14.159C850.155 18.7281 856.435 25.304 860.818 33.23C861.757 33.1557 862.702 33.1055 863.659 33.1055C873.255 33.1057 882.485 36.9851 889.445 43.9436C896.405 50.9021 900.565 60.409 901.067 70.5036" fill="#F2F2F2" fill-opacity="0.6"/>
<path d="M742 67.4679C742.502 57.3733 746.661 47.8664 753.622 40.9079C760.582 33.9494 769.812 30.07 779.408 30.0698C780.547 30.0698 781.671 30.1324 782.784 30.2372C787.16 22.3068 793.434 15.7247 800.981 11.1481C808.527 6.57145 817.081 4.16059 825.789 4.15626C834.497 4.15192 843.053 6.55425 850.604 11.1233C858.155 15.6924 864.435 22.2683 868.818 30.1943C869.757 30.12 870.702 30.0699 871.659 30.0699C881.255 30.0701 890.485 33.9495 897.445 40.9079C904.405 47.8664 908.565 57.3733 909.067 67.4679" stroke="#3F3D56" stroke-opacity="0.6" stroke-miterlimit="10"/>
<path d="M441.067 502C440.565 491.906 436.405 482.399 429.445 475.44C422.485 468.482 413.255 464.602 403.659 464.602C402.52 464.602 401.396 464.665 400.283 464.769C395.907 456.839 389.633 450.257 382.086 445.68C374.54 441.104 365.985 438.693 357.278 438.688C348.57 438.684 340.013 441.086 332.463 445.656C324.912 450.225 318.632 456.801 314.249 464.727C313.31 464.652 312.365 464.602 311.408 464.602C301.812 464.602 292.582 468.482 285.622 475.44C278.661 482.399 274.502 491.906 274 502" fill="#F2F2F2" fill-opacity="0.6"/>
<path d="M433.067 502C432.565 491.906 428.405 482.399 421.445 475.44C414.485 468.482 405.255 464.602 395.659 464.602C394.52 464.602 393.396 464.665 392.283 464.769C387.907 456.839 381.633 450.257 374.086 445.68C366.54 441.104 357.985 438.693 349.278 438.688C340.57 438.684 332.013 441.086 324.463 445.656C316.912 450.225 310.632 456.801 306.249 464.727C305.31 464.652 304.365 464.602 303.408 464.602C293.812 464.602 284.582 468.482 277.622 475.44C270.662 482.399 266.502 491.906 266 502" stroke="#3F3D56" stroke-opacity="0.6" stroke-miterlimit="10"/>
<path d="M642.067 283C641.565 272.906 637.405 263.399 630.445 256.44C623.485 249.482 614.255 245.602 604.659 245.602C603.52 245.602 602.396 245.665 601.283 245.769C596.907 237.839 590.633 231.257 583.086 226.68C575.54 222.104 566.985 219.693 558.278 219.688C549.57 219.684 541.013 222.086 533.463 226.656C525.912 231.225 519.632 237.801 515.249 245.727C514.31 245.652 513.365 245.602 512.408 245.602C502.812 245.602 493.582 249.482 486.622 256.44C479.661 263.399 475.502 272.906 475 283" fill="#F2F2F2" fill-opacity="0.6"/>
<path d="M634.067 283C633.565 272.906 629.405 263.399 622.445 256.44C615.485 249.482 606.255 245.602 596.659 245.602C595.52 245.602 594.396 245.665 593.283 245.769C588.907 237.839 582.633 231.257 575.086 226.68C567.54 222.104 558.985 219.693 550.278 219.688C541.57 219.684 533.013 222.086 525.463 226.656C517.912 231.225 511.632 237.801 507.249 245.727C506.31 245.652 505.365 245.602 504.408 245.602C494.812 245.602 485.582 249.482 478.622 256.44C471.662 263.399 467.502 272.906 467 283" stroke="#3F3D56" stroke-opacity="0.6" stroke-miterlimit="10"/>
<path d="M449.067 158.312C448.565 148.217 444.405 138.71 437.445 131.752C430.485 124.793 421.255 120.914 411.659 120.914C410.52 120.914 409.396 120.976 408.283 121.081C403.907 113.151 397.633 106.568 390.086 101.992C382.54 97.4152 373.985 95.0043 365.278 95C356.57 94.9957 348.013 97.398 340.463 101.967C332.912 106.536 326.632 113.112 322.249 121.038C321.31 120.964 320.365 120.914 319.408 120.914C309.812 120.914 300.582 124.793 293.622 131.752C286.661 138.71 282.502 148.217 282 158.312" fill="#F2F2F2" fill-opacity="0.6"/>
<path d="M441.067 158.312C440.565 148.217 436.405 138.71 429.445 131.752C422.485 124.793 413.255 120.914 403.659 120.914C402.52 120.914 401.396 120.976 400.283 121.081C395.907 113.151 389.633 106.568 382.086 101.992C374.54 97.4152 365.985 95.0043 357.278 95C348.57 94.9957 340.013 97.398 332.463 101.967C324.912 106.536 318.632 113.112 314.249 121.038C313.31 120.964 312.365 120.914 311.408 120.914C301.812 120.914 292.582 124.793 285.622 131.752C278.662 138.71 274.502 148.217 274 158.312" stroke="#3F3D56" stroke-opacity="0.6" stroke-miterlimit="10"/>
<path d="M228.067 459.312C227.565 449.217 223.405 439.71 216.445 432.752C209.485 425.793 200.255 421.914 190.659 421.914C189.52 421.914 188.396 421.976 187.283 422.081C182.907 414.151 176.633 407.568 169.086 402.992C161.54 398.415 152.985 396.004 144.278 396C135.57 395.996 127.013 398.398 119.463 402.967C111.912 407.536 105.632 414.112 101.249 422.038C100.31 421.964 99.365 421.914 98.4083 421.914C88.8123 421.914 79.5823 425.793 72.6219 432.752C65.6615 439.71 61.5016 449.217 61 459.312" fill="#F2F2F2" fill-opacity="0.6"/>
<path d="M220.067 459.312C219.565 449.217 215.405 439.71 208.445 432.752C201.485 425.793 192.255 421.914 182.659 421.914C181.52 421.914 180.396 421.976 179.283 422.081C174.907 414.151 168.633 407.568 161.086 402.992C153.54 398.415 144.985 396.004 136.278 396C127.57 395.996 119.013 398.398 111.463 402.967C103.912 407.536 97.6318 414.112 93.2487 422.038C92.31 421.964 91.365 421.914 90.4083 421.914C80.8123 421.914 71.5823 425.793 64.622 432.752C57.6616 439.71 53.5016 449.217 53.0001 459.312" stroke="#3F3D56" stroke-opacity="0.6" stroke-miterlimit="10"/>
<path d="M781.067 159.312C780.565 149.217 776.405 139.71 769.445 132.752C762.485 125.793 753.255 121.914 743.659 121.914C742.52 121.914 741.396 121.976 740.283 122.081C735.907 114.151 729.633 107.568 722.086 102.992C714.54 98.4152 705.985 96.0043 697.278 96C688.57 95.9957 680.013 98.398 672.463 102.967C664.912 107.536 658.632 114.112 654.249 122.038C653.31 121.964 652.365 121.914 651.408 121.914C641.812 121.914 632.582 125.793 625.622 132.752C618.661 139.71 614.502 149.217 614 159.312" fill="#F2F2F2" fill-opacity="0.6"/>
<path d="M773.067 159.312C772.565 149.217 768.405 139.71 761.445 132.752C754.485 125.793 745.255 121.914 735.659 121.914C734.52 121.914 733.396 121.976 732.283 122.081C727.907 114.151 721.633 107.568 714.086 102.992C706.54 98.4152 697.985 96.0043 689.278 96C680.57 95.9957 672.013 98.398 664.463 102.967C656.912 107.536 650.632 114.112 646.249 122.038C645.31 121.964 644.365 121.914 643.408 121.914C633.812 121.914 624.582 125.793 617.622 132.752C610.662 139.71 606.502 149.217 606 159.312" stroke="#3F3D56" stroke-opacity="0.6" stroke-miterlimit="10"/>
<path d="M235.869 352.476C235.368 342.381 231.208 332.874 224.247 325.916C217.287 318.957 208.057 315.078 198.461 315.078C197.322 315.078 196.198 315.14 195.086 315.245C190.71 307.315 184.435 300.732 176.889 296.156C169.342 291.579 160.788 289.168 152.08 289.164C143.372 289.16 134.816 291.562 127.265 296.131C119.714 300.7 113.434 307.276 109.051 315.202C108.112 315.128 107.167 315.078 106.211 315.078C96.6145 315.078 87.3845 318.957 80.4241 325.916C73.4637 332.874 69.3038 342.381 68.8023 352.476" fill="#F2F2F2" fill-opacity="0.6"/>
<path d="M228.067 349.44C227.565 339.346 223.405 329.839 216.445 322.88C209.485 315.922 200.255 312.042 190.659 312.042C189.52 312.042 188.396 312.105 187.283 312.21C182.907 304.279 176.633 297.697 169.086 293.12C161.54 288.544 152.985 286.133 144.278 286.129C135.57 286.124 127.013 288.527 119.463 293.096C111.912 297.665 105.632 304.241 101.249 312.167C100.31 312.092 99.365 312.042 98.4083 312.042C88.8123 312.042 79.5823 315.922 72.622 322.88C65.6616 329.839 61.5016 339.346 61.0001 349.44" stroke="#3F3D56" stroke-opacity="0.6" stroke-miterlimit="10"/>
</svg>
