<svg width="985" height="693" viewBox="0 0 985 693" fill="none" xmlns="http://www.w3.org/2000/svg">
<g clip-path="url(#clip0)">
<path opacity="0.2" d="M223.898 38.3123C211.778 39.8923 198.608 42.5523 190.598 53.1423C181.128 65.6623 182.398 84.6923 186.688 100.542C190.978 116.392 197.758 131.842 197.688 148.442C197.498 174.832 179.478 197.232 158.968 209.042C138.458 220.852 115.308 224.662 93.1678 231.552C72.5185 238.009 52.7711 247.058 34.3978 258.482C18.8078 268.152 3.12778 280.792 -3.11221 299.872C-13.3422 331.162 5.47778 364.372 24.0678 390.062C81.0678 468.832 153.728 544.412 242.548 552.062C308.898 557.732 375.318 524.172 440.948 536.482C471.098 542.122 499.188 557.142 527.488 570.372C555.788 583.602 585.558 595.372 616.068 593.872C646.578 592.372 678.218 575.072 691.438 543.382C699.248 524.652 700.038 502.932 707.258 483.892C729.378 425.482 798.318 416.002 838.318 372.042C859.318 348.952 871.318 317.242 881.318 285.822C897.468 234.702 909.578 180.822 906.878 126.472C905.698 102.812 901.278 78.2423 888.148 59.9823C878.598 46.6923 865.268 37.8723 852.248 29.3423C822.608 9.92229 790.788 -10.1277 756.738 -7.81771C737.118 -6.48771 718.558 2.24229 699.838 9.08229C664.178 22.0823 626.978 28.5223 589.968 34.8723C528.818 45.3723 466.788 55.8723 404.808 50.6323C377.438 48.3023 351.588 39.0023 324.658 35.1923C291.908 30.5623 256.518 34.0623 223.898 38.3123Z" fill="#6F7CB2"/>
<path d="M237.932 192.386H227.043V222H219.719V192.386H208.977V186.453H237.932V192.386ZM253.873 222C253.548 221.365 253.312 220.576 253.165 219.632C251.456 221.536 249.234 222.488 246.5 222.488C243.912 222.488 241.764 221.74 240.055 220.242C238.362 218.745 237.516 216.857 237.516 214.578C237.516 211.779 238.549 209.63 240.616 208.133C242.7 206.635 245.702 205.879 249.625 205.862H252.872V204.349C252.872 203.128 252.555 202.151 251.92 201.419C251.301 200.687 250.317 200.32 248.966 200.32C247.778 200.32 246.842 200.605 246.158 201.175C245.491 201.744 245.157 202.526 245.157 203.519H238.102C238.102 201.989 238.574 200.573 239.518 199.271C240.462 197.968 241.796 196.951 243.521 196.219C245.247 195.47 247.184 195.096 249.332 195.096C252.587 195.096 255.167 195.918 257.071 197.562C258.992 199.189 259.952 201.484 259.952 204.446V215.896C259.968 218.403 260.318 220.299 261.002 221.585V222H253.873ZM248.038 217.093C249.08 217.093 250.04 216.865 250.919 216.409C251.798 215.937 252.449 215.311 252.872 214.529V209.988H250.235C246.703 209.988 244.824 211.209 244.596 213.65L244.571 214.065C244.571 214.944 244.881 215.669 245.499 216.238C246.118 216.808 246.964 217.093 248.038 217.093ZM275.967 211.404L273.428 213.943V222H266.372V184.5H273.428V205.276L274.795 203.519L281.558 195.584H290.029L280.483 206.595L290.859 222H282.754L275.967 211.404ZM305.751 222.488C301.877 222.488 298.72 221.3 296.278 218.924C293.853 216.548 292.641 213.382 292.641 209.427V208.743C292.641 206.09 293.153 203.722 294.179 201.639C295.204 199.539 296.653 197.928 298.524 196.805C300.412 195.665 302.561 195.096 304.97 195.096C308.583 195.096 311.423 196.235 313.49 198.514C315.574 200.792 316.615 204.023 316.615 208.206V211.087H299.794C300.022 212.812 300.705 214.196 301.845 215.237C303 216.279 304.457 216.8 306.215 216.8C308.933 216.8 311.057 215.815 312.587 213.846L316.054 217.728C314.996 219.225 313.563 220.397 311.757 221.243C309.95 222.073 307.948 222.488 305.751 222.488ZM304.945 200.809C303.546 200.809 302.406 201.281 301.527 202.225C300.665 203.169 300.111 204.52 299.867 206.277H309.682V205.716C309.649 204.153 309.226 202.949 308.412 202.103C307.598 201.24 306.443 200.809 304.945 200.809ZM350.402 222C350.077 221.365 349.841 220.576 349.694 219.632C347.985 221.536 345.764 222.488 343.029 222.488C340.441 222.488 338.293 221.74 336.584 220.242C334.891 218.745 334.045 216.857 334.045 214.578C334.045 211.779 335.078 209.63 337.146 208.133C339.229 206.635 342.232 205.879 346.154 205.862H349.401V204.349C349.401 203.128 349.084 202.151 348.449 201.419C347.831 200.687 346.846 200.32 345.495 200.32C344.307 200.32 343.371 200.605 342.688 201.175C342.02 201.744 341.687 202.526 341.687 203.519H334.631C334.631 201.989 335.103 200.573 336.047 199.271C336.991 197.968 338.326 196.951 340.051 196.219C341.776 195.47 343.713 195.096 345.861 195.096C349.117 195.096 351.696 195.918 353.601 197.562C355.521 199.189 356.481 201.484 356.481 204.446V215.896C356.498 218.403 356.848 220.299 357.531 221.585V222H350.402ZM344.567 217.093C345.609 217.093 346.569 216.865 347.448 216.409C348.327 215.937 348.978 215.311 349.401 214.529V209.988H346.765C343.233 209.988 341.353 211.209 341.125 213.65L341.101 214.065C341.101 214.944 341.41 215.669 342.028 216.238C342.647 216.808 343.493 217.093 344.567 217.093ZM393.198 222H386.143V194.803L377.72 197.415V191.678L392.441 186.404H393.198V222ZM429.696 207.303C429.696 212.218 428.679 215.978 426.645 218.582C424.61 221.186 421.632 222.488 417.709 222.488C413.835 222.488 410.873 221.211 408.822 218.655C406.771 216.1 405.722 212.438 405.673 207.669V201.126C405.673 196.162 406.698 192.394 408.749 189.822C410.816 187.251 413.786 185.965 417.66 185.965C421.534 185.965 424.496 187.243 426.547 189.798C428.598 192.337 429.647 195.991 429.696 200.76V207.303ZM422.641 200.125C422.641 197.179 422.234 195.039 421.42 193.704C420.622 192.353 419.369 191.678 417.66 191.678C416 191.678 414.771 192.321 413.974 193.606C413.192 194.876 412.777 196.87 412.729 199.588V208.23C412.729 211.128 413.119 213.284 413.9 214.7C414.698 216.1 415.967 216.8 417.709 216.8C419.434 216.8 420.679 216.124 421.444 214.773C422.209 213.423 422.608 211.355 422.641 208.572V200.125ZM455.842 195.584L456.062 198.538C457.933 196.243 460.464 195.096 463.654 195.096C467.056 195.096 469.392 196.438 470.661 199.124C472.517 196.438 475.161 195.096 478.596 195.096C481.46 195.096 483.592 195.934 484.992 197.61C486.392 199.271 487.092 201.777 487.092 205.13V222H480.012V205.154C480.012 203.657 479.719 202.566 479.133 201.883C478.547 201.183 477.513 200.833 476.032 200.833C473.916 200.833 472.451 201.842 471.638 203.86L471.662 222H464.606V205.179C464.606 203.649 464.305 202.542 463.703 201.858C463.101 201.175 462.076 200.833 460.627 200.833C458.625 200.833 457.176 201.663 456.281 203.323V222H449.226V195.584H455.842ZM500.982 222H493.902V195.584H500.982V222ZM493.487 188.748C493.487 187.69 493.837 186.819 494.537 186.136C495.253 185.452 496.222 185.11 497.442 185.11C498.647 185.11 499.607 185.452 500.323 186.136C501.039 186.819 501.397 187.69 501.397 188.748C501.397 189.822 501.031 190.701 500.299 191.385C499.583 192.068 498.631 192.41 497.442 192.41C496.254 192.41 495.294 192.068 494.562 191.385C493.845 190.701 493.487 189.822 493.487 188.748ZM514.312 195.584L514.531 198.636C516.419 196.276 518.95 195.096 522.124 195.096C524.924 195.096 527.007 195.918 528.374 197.562C529.741 199.205 530.441 201.663 530.474 204.935V222H523.418V205.105C523.418 203.608 523.092 202.526 522.441 201.858C521.79 201.175 520.708 200.833 519.194 200.833C517.209 200.833 515.719 201.679 514.727 203.372V222H507.671V195.584H514.312ZM552.665 219.314C550.924 221.43 548.515 222.488 545.438 222.488C542.606 222.488 540.442 221.674 538.944 220.047C537.463 218.419 536.706 216.035 536.674 212.894V195.584H543.729V212.649C543.729 215.4 544.983 216.775 547.489 216.775C549.882 216.775 551.526 215.945 552.421 214.285V195.584H559.501V222H552.86L552.665 219.314ZM574.271 189.09V195.584H578.787V200.76H574.271V213.943C574.271 214.92 574.458 215.62 574.832 216.043C575.206 216.466 575.923 216.678 576.98 216.678C577.762 216.678 578.453 216.621 579.056 216.507V221.854C577.672 222.277 576.248 222.488 574.783 222.488C569.835 222.488 567.312 219.99 567.215 214.993V200.76H563.357V195.584H567.215V189.09H574.271ZM595.876 222.488C592.002 222.488 588.845 221.3 586.403 218.924C583.978 216.548 582.766 213.382 582.766 209.427V208.743C582.766 206.09 583.278 203.722 584.304 201.639C585.329 199.539 586.778 197.928 588.649 196.805C590.537 195.665 592.686 195.096 595.095 195.096C598.708 195.096 601.548 196.235 603.615 198.514C605.699 200.792 606.74 204.023 606.74 208.206V211.087H589.919C590.147 212.812 590.83 214.196 591.97 215.237C593.125 216.279 594.582 216.8 596.34 216.8C599.058 216.8 601.182 215.815 602.712 213.846L606.179 217.728C605.121 219.225 603.688 220.397 601.882 221.243C600.075 222.073 598.073 222.488 595.876 222.488ZM595.07 200.809C593.671 200.809 592.531 201.281 591.652 202.225C590.79 203.169 590.236 204.52 589.992 206.277H599.807V205.716C599.774 204.153 599.351 202.949 598.537 202.103C597.723 201.24 596.568 200.809 595.07 200.809ZM649.023 209.036C649.023 213.268 648.12 216.572 646.313 218.948C644.507 221.308 641.984 222.488 638.745 222.488C635.881 222.488 633.594 221.39 631.885 219.192L631.567 222H625.22V184.5H632.275V197.952C633.903 196.048 636.043 195.096 638.696 195.096C641.919 195.096 644.442 196.284 646.265 198.66C648.104 201.02 649.023 204.349 649.023 208.646V209.036ZM641.968 208.523C641.968 205.854 641.545 203.909 640.698 202.688C639.852 201.451 638.59 200.833 636.914 200.833C634.668 200.833 633.122 201.753 632.275 203.592V214.017C633.138 215.872 634.701 216.8 636.963 216.8C639.242 216.8 640.739 215.677 641.455 213.431C641.797 212.356 641.968 210.721 641.968 208.523ZM669.237 202.2C668.277 202.07 667.431 202.005 666.698 202.005C664.029 202.005 662.279 202.908 661.449 204.715V222H654.394V195.584H661.059L661.254 198.733C662.67 196.308 664.631 195.096 667.138 195.096C667.919 195.096 668.651 195.201 669.335 195.413L669.237 202.2ZM685.325 222.488C681.451 222.488 678.294 221.3 675.853 218.924C673.427 216.548 672.215 213.382 672.215 209.427V208.743C672.215 206.09 672.728 203.722 673.753 201.639C674.778 199.539 676.227 197.928 678.099 196.805C679.987 195.665 682.135 195.096 684.544 195.096C688.157 195.096 690.997 196.235 693.064 198.514C695.148 200.792 696.189 204.023 696.189 208.206V211.087H679.368C679.596 212.812 680.28 214.196 681.419 215.237C682.575 216.279 684.031 216.8 685.789 216.8C688.507 216.8 690.631 215.815 692.161 213.846L695.628 217.728C694.57 219.225 693.138 220.397 691.331 221.243C689.524 222.073 687.522 222.488 685.325 222.488ZM684.52 200.809C683.12 200.809 681.98 201.281 681.102 202.225C680.239 203.169 679.686 204.52 679.441 206.277H689.256V205.716C689.223 204.153 688.8 202.949 687.986 202.103C687.173 201.24 686.017 200.809 684.52 200.809ZM716.525 222C716.2 221.365 715.964 220.576 715.817 219.632C714.108 221.536 711.887 222.488 709.152 222.488C706.564 222.488 704.416 221.74 702.707 220.242C701.014 218.745 700.168 216.857 700.168 214.578C700.168 211.779 701.201 209.63 703.269 208.133C705.352 206.635 708.355 205.879 712.277 205.862H715.524V204.349C715.524 203.128 715.207 202.151 714.572 201.419C713.954 200.687 712.969 200.32 711.618 200.32C710.43 200.32 709.494 200.605 708.811 201.175C708.143 201.744 707.81 202.526 707.81 203.519H700.754C700.754 201.989 701.226 200.573 702.17 199.271C703.114 197.968 704.449 196.951 706.174 196.219C707.899 195.47 709.836 195.096 711.984 195.096C715.24 195.096 717.819 195.918 719.724 197.562C721.644 199.189 722.604 201.484 722.604 204.446V215.896C722.621 218.403 722.971 220.299 723.654 221.585V222H716.525ZM710.69 217.093C711.732 217.093 712.692 216.865 713.571 216.409C714.45 215.937 715.101 215.311 715.524 214.529V209.988H712.888C709.356 209.988 707.476 211.209 707.248 213.65L707.224 214.065C707.224 214.944 707.533 215.669 708.151 216.238C708.77 216.808 709.616 217.093 710.69 217.093ZM738.619 211.404L736.08 213.943V222H729.024V184.5H736.08V205.276L737.447 203.519L744.21 195.584H752.682L743.136 206.595L753.512 222H745.406L738.619 211.404Z" fill="#091133"/>
<path opacity="0.5" d="M791 207.97C811.987 207.97 829 190.957 829 169.97C829 148.983 811.987 131.97 791 131.97C770.013 131.97 753 148.983 753 169.97C753 190.957 770.013 207.97 791 207.97Z" fill="#6F7CB2"/>
<path d="M671.33 304.12H323.6L343.47 242.97H354.12L356.25 258.83H631.59L633.01 242.97H645.78L671.33 304.12Z" fill="#6F7CB2"/>
<path opacity="0.2" d="M671.33 304.12H323.6L343.47 242.97H354.12L356.25 258.83H631.59L633.01 242.97H645.78L671.33 304.12Z" fill="black"/>
<path d="M695.46 317.71H292.38L282.44 292.8H703.98L695.46 317.71Z" fill="#6F7CB2"/>
<path d="M682.69 333.57H302.31L292.38 317.71H695.46L682.69 333.57Z" fill="#6F7CB2"/>
<path d="M682.68 329.04H302.31V347.16H682.68V329.04Z" fill="#6F7CB2"/>
<path d="M712.49 376.6H279.6V444.55H712.49V376.6Z" fill="#6F7CB2"/>
<path opacity="0.2" d="M712.49 376.6H279.6V444.55H712.49V376.6Z" fill="black"/>
<path d="M985 605.35L0 598.56L28.39 437.75H963.71L985 605.35Z" fill="#6F7CB2"/>
<g opacity="0.2">
<path opacity="0.2" d="M279 555.53H291.58C295.558 555.53 299.374 557.11 302.187 559.923C305 562.736 306.58 566.552 306.58 570.53V600.83H264V570.53C264 566.552 265.58 562.736 268.393 559.923C271.206 557.11 275.022 555.53 279 555.53Z" fill="black"/>
<path opacity="0.2" d="M371.25 555.53H383.83C387.808 555.53 391.624 557.11 394.437 559.923C397.25 562.736 398.83 566.552 398.83 570.53V600.83H356.25V570.53C356.25 566.552 357.83 562.736 360.643 559.923C363.456 557.11 367.272 555.53 371.25 555.53Z" fill="black"/>
<path opacity="0.2" d="M486.21 555.53H498.79C502.768 555.53 506.584 557.11 509.397 559.923C512.21 562.736 513.79 566.552 513.79 570.53V600.83H471.21V570.53C471.21 566.552 472.79 562.736 475.603 559.923C478.416 557.11 482.232 555.53 486.21 555.53Z" fill="black"/>
<path opacity="0.2" d="M605.43 555.53H618C621.978 555.53 625.794 557.11 628.607 559.923C631.42 562.736 633 566.552 633 570.53V600.83H590.43V570.53C590.43 566.552 592.011 562.736 594.824 559.923C597.637 557.11 601.452 555.53 605.43 555.53Z" fill="black"/>
<path opacity="0.2" d="M700.53 555.53H713.11C717.088 555.53 720.904 557.11 723.717 559.923C726.53 562.736 728.11 566.552 728.11 570.53V600.83H685.53V570.53C685.53 566.552 687.111 562.736 689.924 559.923C692.737 557.11 696.552 555.53 700.53 555.53Z" fill="black"/>
</g>
<path opacity="0.2" d="M515.21 444.55H469.79V535.15H515.21V444.55Z" fill="black"/>
<path d="M286.7 376.6H279.6V444.55H286.7V376.6Z" fill="#6F7CB2"/>
<path d="M327.86 376.6H320.76V444.55H327.86V376.6Z" fill="#6F7CB2"/>
<path d="M373.28 376.6H366.18V444.55H373.28V376.6Z" fill="#6F7CB2"/>
<path d="M417.28 376.6H410.18V444.55H417.28V376.6Z" fill="#6F7CB2"/>
<path d="M465.54 376.6H458.44V444.55H465.54V376.6Z" fill="#6F7CB2"/>
<path d="M530.82 376.6H523.72V444.55H530.82V376.6Z" fill="#6F7CB2"/>
<path d="M574.82 376.6H567.72V444.55H574.82V376.6Z" fill="#6F7CB2"/>
<path d="M624.5 376.6H617.4V444.55H624.5V376.6Z" fill="#6F7CB2"/>
<path d="M667.08 376.6H659.98V444.55H667.08V376.6Z" fill="#6F7CB2"/>
<path d="M712.5 376.6H705.4V444.55H712.5V376.6Z" fill="#6F7CB2"/>
<path d="M712.49 381.13H279.6L254.06 358.48H736.62L712.49 381.13Z" fill="#6F7CB2"/>
<path d="M296.63 381.13H279.6V390.19H296.63V381.13Z" fill="#6F7CB2"/>
<path d="M333.54 381.13H316.51V390.19H333.54V381.13Z" fill="#6F7CB2"/>
<path d="M377.53 381.13H360.5V390.19H377.53V381.13Z" fill="#6F7CB2"/>
<path d="M422.95 381.13H405.92V390.19H422.95V381.13Z" fill="#6F7CB2"/>
<path d="M471.21 381.13H454.18V390.19H471.21V381.13Z" fill="#6F7CB2"/>
<path d="M535.08 381.13H518.05V390.19H535.08V381.13Z" fill="#6F7CB2"/>
<path d="M580.5 381.13H563.47V390.19H580.5V381.13Z" fill="#6F7CB2"/>
<path d="M630.17 381.13H613.14V390.19H630.17V381.13Z" fill="#6F7CB2"/>
<path d="M672.75 381.13H655.72V390.19H672.75V381.13Z" fill="#6F7CB2"/>
<path d="M712.49 381.13H695.46V390.19H712.49V381.13Z" fill="#6F7CB2"/>
<path d="M739.46 358.48H252.64L246.96 342.63H743.72L739.46 358.48Z" fill="#6F7CB2"/>
<path opacity="0.2" d="M739.46 358.48H252.64L246.96 342.63H743.72L739.46 358.48Z" fill="black"/>
<path d="M492.5 353.95C498.768 353.95 503.85 345.837 503.85 335.83C503.85 325.823 498.768 317.71 492.5 317.71C486.231 317.71 481.15 325.823 481.15 335.83C481.15 345.837 486.231 353.95 492.5 353.95Z" fill="#6F7CB2"/>
<path opacity="0.2" d="M492.5 353.95C498.768 353.95 503.85 345.837 503.85 335.83C503.85 325.823 498.768 317.71 492.5 317.71C486.231 317.71 481.15 325.823 481.15 335.83C481.15 345.837 486.231 353.95 492.5 353.95Z" fill="black"/>
<path d="M492.5 347.15C496.421 347.15 499.6 342.082 499.6 335.83C499.6 329.578 496.421 324.51 492.5 324.51C488.579 324.51 485.4 329.578 485.4 335.83C485.4 342.082 488.579 347.15 492.5 347.15Z" fill="#6F7CB2"/>
<path d="M658.67 597.13L609.99 559.77C609.99 559.77 606.06 544.2 604.49 533.3C602.92 522.4 600.56 475.7 600.56 475.7C601.677 471.657 602.417 467.519 602.77 463.34C603.25 463.24 603.77 463.12 604.22 462.99C607.859 462.062 611.232 460.304 614.076 457.852C616.92 455.4 619.157 452.322 620.61 448.86C625.61 436.42 619.15 421.72 610.97 411.86C602.79 402 592.5 394.08 587.12 381.86C580.48 366.8 582.75 348.6 579.36 332.12C579.035 329.811 578.175 327.609 576.85 325.69C574.75 323.08 571.46 322.51 568.52 321.47C559.24 318.18 552.28 309.16 546.85 299.75C538.06 284.5 528.96 261.31 510.85 259.99C504.12 259.5 497.09 261.77 490.29 261.75C479.74 261.75 469.29 261.88 458.83 263.33C455.09 263.84 451.21 264.54 448.09 267.01C437.38 275.48 442.23 297.87 431.91 307.01C428.84 309.72 424.91 310.69 421.44 312.55C408.36 319.55 402.55 338.22 403.32 355.02C403.68 362.89 405.32 371.09 409.97 376.84C413.65 381.44 418.9 384.08 422.33 388.93C427.87 396.76 427.12 407.14 426.52 417.7C419.12 420.8 413.18 424.36 411.31 428.19C405.03 441.03 405.81 485.01 405.81 485.01C405.81 485.01 408.17 557.01 390.11 566.01L322.58 612.71C322.58 612.71 274.68 571.07 262.9 595.59C254.84 612.36 284.25 621.85 303.64 626.17C291.41 634.85 284.64 650.89 290.38 661.76C299.38 678.88 324.54 690.56 324.54 690.56C324.54 690.56 420.49 695.19 464.84 685.25H465.57C484.4 688.66 511.42 692.25 533.09 690.09C533.5 691.09 533.79 691.73 533.79 691.73C533.79 691.73 672.79 703.41 697.9 655.92C710.79 631.57 697.34 620.32 681.18 615.14C699.27 613.7 719.87 608.64 722.24 593.26C726.59 565.22 658.67 597.13 658.67 597.13ZM644.67 612.02C619.24 621.29 598.59 621.81 587.6 621.11C582.19 609.34 559.68 558.32 559.09 524.18C559.23 516.56 560.59 509.9 563.63 504.9C570.18 494.13 572.11 485.69 571.89 479.27C571.89 478.79 571.89 478.33 571.89 477.87C571.921 475.908 571.729 473.949 571.32 472.03C572.4 474.669 572.722 477.558 572.25 480.37C569.89 492.44 576.18 570.66 576.18 570.66C576.18 570.66 581.28 588.17 591.88 593.23L644.67 612.02ZM395.62 606.49L419.96 590.92C419.96 590.92 431.35 585.49 432.5 572.22L440.5 508.99C441.05 511.7 441.771 514.372 442.66 516.99C444.08 521.14 444.66 527.22 444.77 534.46C444.5 569.71 432.5 628.27 432.5 628.27H432.65L432.56 628.69L431.71 628.74C411.96 628.14 365.94 626.42 340.17 622.85L395.62 606.49ZM352.97 643.35V643.49H346.97L352.97 643.35Z" fill="url(#paint0_linear)"/>
<path d="M545.02 306.11C550.27 315.29 557.02 324.11 565.97 327.29C568.81 328.29 571.97 328.86 573.97 331.4C575.249 333.276 576.077 335.422 576.39 337.67C579.66 353.74 577.47 371.49 583.89 386.17C589.09 398.06 599.04 405.81 606.95 415.4C614.86 424.99 621.07 439.33 616.27 451.45C614.884 454.809 612.739 457.8 610.003 460.191C607.266 462.582 604.014 464.307 600.5 465.23C593.88 467.02 586.97 466.23 580.25 465.08C571.39 463.51 562.37 461.08 554.99 455.08C542.22 444.71 536.82 426.08 530.14 409.52C527 401.76 522.83 393.63 515.93 390.85C508.02 387.67 499.14 392.98 494.01 400.77C488.88 408.56 486.6 418.35 484.12 427.77C481.32 438.4 477.77 449.45 470.41 456.4C467.218 459.514 463.192 461.637 458.82 462.512C454.447 463.387 449.914 462.977 445.77 461.33C437.57 457.91 431.08 449.27 429.2 439.24C426.29 423.78 433.26 405.24 424.71 393.02C421.39 388.29 416.32 385.71 412.71 381.23C408.26 375.62 406.63 367.63 406.28 359.96C405.53 343.58 411.15 325.33 423.79 318.55C427.17 316.74 430.94 315.79 433.91 313.15C443.91 304.27 439.2 282.44 449.55 274.15C452.55 271.74 456.31 271.07 459.93 270.56C470.07 269.15 480.14 268.99 490.34 269.02C496.92 269.02 503.71 266.83 510.22 267.31C527.73 268.63 536.5 291.24 545.02 306.11Z" fill="#965D7B"/>
<path d="M357.29 637.16L361.12 682.53L629 680.94L623.9 631.41L533.33 620.87L374.51 630.45L357.29 637.16Z" fill="#575988"/>
<path opacity="0.05" d="M357.29 637.16L361.12 682.53L629 680.94L623.9 631.41L533.33 620.87L374.51 630.45L357.29 637.16Z" fill="black"/>
<path d="M533.56 668.88L444.38 677.23C444.38 677.23 505.48 692.79 541.15 685.23L533.56 668.88Z" fill="#F7C4A7"/>
<path opacity="0.1" d="M533.56 668.88L444.38 677.23C444.38 677.23 505.48 692.79 541.15 685.23L533.56 668.88Z" fill="black"/>
<path d="M465.63 349.35C465.63 349.35 483.09 395.27 457.28 415.76C431.47 436.25 452.73 493.56 452.73 493.56L552.16 489.01C552.16 489.01 562.03 424.5 556.71 410.83C556.71 410.83 533.18 417.66 527.87 403.24C522.56 388.82 518.76 349.35 518.76 349.35H465.63Z" fill="#F7C4A7"/>
<path d="M442.86 627.13C442.86 627.13 358.99 625.23 334.33 619.13C309.67 613.03 288.41 642.28 297.14 658.98C305.87 675.68 330.14 687.06 330.14 687.06C330.14 687.06 454.99 693.13 481.94 676.06C481.94 676.06 492.19 646.84 481.94 641.15H351.79L447.79 639.25L442.86 627.13Z" fill="#575988"/>
<path d="M576.07 618.41C576.07 618.41 604.15 624.48 642.86 609.3C642.86 609.3 715.34 607.02 691.06 653.3C666.78 699.58 532.43 688.21 532.43 688.21C532.43 688.21 524.43 671.13 532.43 666.58C540.43 662.03 609.85 632.81 631.43 634.32L571.43 646.08L576.07 618.41Z" fill="#575988"/>
<path opacity="0.1" d="M522.2 371.44C520.75 360.63 519.9 351.82 519.9 351.82H466.77C469.223 358.779 470.926 365.98 471.85 373.3C479.3 378.516 488.249 381.157 497.337 380.821C506.425 380.486 515.155 377.192 522.2 371.44Z" fill="black"/>
<path d="M494.66 378.37C517.712 378.37 536.4 359.682 536.4 336.63C536.4 313.578 517.712 294.89 494.66 294.89C471.608 294.89 452.92 313.578 452.92 336.63C452.92 359.682 471.608 378.37 494.66 378.37Z" fill="#F7C4A7"/>
<path d="M470.19 409.31C470.19 409.31 420.1 418.8 414.03 431.31C407.96 443.82 408.72 486.72 408.72 486.72C408.72 486.72 411 556.93 393.54 565.65L328.27 611.19C328.27 611.19 281.97 570.58 270.59 594.49C259.21 618.4 325.24 627.13 325.24 627.13L398.86 605.13L422.39 589.95C422.39 589.95 433.39 584.64 434.53 571.73L444.4 493.55L483.87 482.17H547.6L556.14 457.79C556.14 457.79 571.89 470.41 569.61 482.17C567.33 493.93 573.4 570.17 573.4 570.17C573.4 570.17 578.33 587.25 588.58 592.17L647.79 613.49C647.79 613.49 710.41 619.56 714.58 592.24C718.75 564.92 653.1 596.03 653.1 596.03L606.04 559.6C606.04 559.6 602.25 544.42 600.73 533.79C599.21 523.16 596.94 477.63 596.94 477.63C596.94 477.63 611.36 429.81 569.62 421.47L515.73 404.77L470.19 409.31Z" fill="#F7C4A7"/>
<path opacity="0.1" d="M436.6 418.98L444.38 470.4C444.38 470.4 436.38 494.31 444.38 517.84C452.38 541.37 434.5 629.03 434.5 629.03C434.5 629.03 528.23 659.03 585.5 624.48C585.5 624.48 543.38 535.68 561.21 506.08C579.04 476.48 561.5 464.9 561.5 464.9L564.3 410.49L551.4 406.7L543.81 460.49C543.81 460.49 491.44 496.92 452.73 465.04L444.38 406.6L436.6 418.98Z" fill="black"/>
<path opacity="0.07" d="M490.74 480.1C486.687 473.621 480.365 468.885 473.008 466.816C465.651 464.747 457.786 465.493 450.95 468.91C463.66 478.42 477.67 480.96 490.74 480.1Z" fill="white"/>
<path opacity="0.07" d="M512.25 474.4C516.303 467.921 522.625 463.185 529.983 461.116C537.34 459.047 545.204 459.793 552.04 463.21C539.34 472.72 525.32 475.27 512.25 474.4Z" fill="white"/>
<path opacity="0.1" d="M436.6 418.98L444.38 467.74C444.38 467.74 436.38 491.65 444.38 515.18C452.38 538.71 434.5 626.37 434.5 626.37C434.5 626.37 528.23 656.37 585.5 621.82C585.5 621.82 543.38 533.02 561.21 503.42C579.04 473.82 561.5 462.24 561.5 462.24L564.24 407.79L551.34 404L543.75 457.89C543.75 457.89 491.38 494.32 452.67 462.44L444.32 404L436.6 418.98Z" fill="black"/>
<path d="M436.22 418.6L444.38 468.5C444.38 468.5 436.38 492.41 444.38 515.94C452.38 539.47 434.5 627.13 434.5 627.13C434.5 627.13 528.23 657.13 585.5 622.58C585.5 622.58 543.38 533.78 561.21 504.18C579.04 474.58 561.5 463 561.5 463L564.24 408.55L551.34 404.76L543.75 458.65C543.75 458.65 491.38 495.08 452.67 463.2L444.32 404.76L436.22 418.6Z" fill="#FC6681"/>
<path d="M474.74 645.73L494.5 643.07C494.5 643.07 517.27 613.85 533.59 636.24C533.59 636.24 540.42 650.66 548.77 653.32C554.48 655.045 560.319 656.313 566.23 657.11L532.46 666.6C532.46 666.6 517.66 675.33 502.1 673.05C492.941 671.654 483.582 672.435 474.78 675.33L474.74 645.73Z" fill="#F7C4A7"/>
<path opacity="0.1" d="M452.92 521.82C452.92 521.82 488.59 527.13 494.66 517.65L452.92 521.82Z" fill="black"/>
<path opacity="0.1" d="M520.5 515.75C520.5 515.75 527.33 522.58 554.65 517.65L520.5 515.75Z" fill="black"/>
<path opacity="0.1" d="M451.02 409.87C451.02 409.87 477.2 413.66 482.14 411.39L451.02 409.87Z" fill="black"/>
<path opacity="0.1" d="M508.71 409.87C508.71 409.87 534.89 413.66 539.83 411.39L508.71 409.87Z" fill="black"/>
<path opacity="0.1" d="M477.59 642.88C477.59 642.88 484.8 676.88 477.59 678.08C470.38 679.28 460.13 672.48 460.13 671.72C460.13 670.96 464.68 649.33 464.68 649.33L477.59 642.88Z" fill="black"/>
<path d="M476.83 642.88C476.83 642.88 484.04 676.88 476.83 678.08C469.62 679.28 459.37 672.48 459.37 671.72C459.37 670.96 463.92 649.33 463.92 649.33L476.83 642.88Z" fill="#575988"/>
<path opacity="0.1" d="M441.6 404.9C438.42 412.29 437.29 421.01 440.67 428.31C443.25 433.88 448.29 438.39 449.26 444.45C450.48 452.05 444.85 459.78 446.95 467.18C447.75 470.02 449.62 472.42 451.52 474.67C457.3 481.5 464.98 488.11 473.9 487.58C475.31 473.8 463.4 460.43 467.3 447.14C468.7 442.38 471.98 438.42 473.96 433.88C477.25 426.35 476.78 417.75 475.59 409.62C473.86 397.83 469.48 383.36 457.79 377.84C452.41 375.3 444.79 375.12 442.87 382.01C441.87 385.69 444.27 389.15 444.6 392.75C445.02 397.32 443.37 400.79 441.6 404.9Z" fill="black"/>
<path d="M441.6 403.76C438.42 411.15 437.29 419.87 440.67 427.17C443.25 432.74 448.29 437.25 449.26 443.31C450.48 450.91 444.85 458.64 446.95 466.04C447.75 468.88 449.62 471.28 451.52 473.53C457.3 480.36 464.98 486.97 473.9 486.44C475.31 472.66 463.4 459.29 467.3 446C468.7 441.24 471.98 437.28 473.96 432.74C477.25 425.21 476.78 416.61 475.59 408.48C473.86 396.69 469.48 382.22 457.79 376.7C452.41 374.16 444.79 373.98 442.87 380.87C441.87 384.55 444.27 388.01 444.6 391.61C445.02 396.19 443.37 399.66 441.6 403.76Z" fill="#965D7B"/>
<path opacity="0.1" d="M444.57 316.14C444.57 316.14 499.98 308.55 501.49 319.93C503 331.31 551.96 349.93 551.96 349.93L539.82 319.93L517.43 282.74C517.43 282.74 476.43 279.74 474.55 282.74C472.67 285.74 451.02 295.64 451.02 295.64L444.57 316.14Z" fill="black"/>
<path d="M444.57 315.38C444.57 315.38 499.98 307.79 501.49 319.17C503 330.55 551.96 349.17 551.96 349.17L539.82 319.17L517.43 281.99C517.43 281.99 476.43 278.99 474.55 281.99C472.67 284.99 451.02 294.89 451.02 294.89L444.57 315.38Z" fill="#965D7B"/>
<path opacity="0.1" d="M540.99 396.49C543.684 399.717 545.588 403.528 546.55 407.62C547.47 411.53 547.5 415.62 548.38 419.54C550.25 427.89 555.77 434.91 561.54 441.23C563.407 443.519 565.686 445.439 568.26 446.89C570.9 448.19 574.26 448.46 576.71 446.89C574.39 444.99 573.13 442.08 572.3 439.19C571.132 435.161 570.612 430.972 570.76 426.78C571.01 419.78 573.06 412.39 570.15 406.01C568.47 402.33 565.34 399.53 562.15 397.01C559.933 395.208 557.541 393.633 555.01 392.31C550.3 389.96 544.89 388.93 539.69 388.42C532.91 387.72 538.84 393.91 540.99 396.49Z" fill="black"/>
<path d="M540.99 395.34C543.687 398.572 545.591 402.391 546.55 406.49C547.47 410.4 547.5 414.49 548.38 418.41C550.25 426.76 555.77 433.78 561.54 440.1C563.407 442.389 565.686 444.309 568.26 445.76C570.9 447.06 574.26 447.33 576.71 445.76C574.39 443.86 573.13 440.95 572.3 438.06C571.132 434.031 570.612 429.842 570.76 425.65C571.01 418.65 573.06 411.26 570.15 404.88C568.47 401.2 565.34 398.4 562.15 395.88C559.933 394.078 557.541 392.503 555.01 391.18C550.3 388.83 544.89 387.8 539.69 387.29C532.91 386.58 538.84 392.77 540.99 395.34Z" fill="#965D7B"/>
<path opacity="0.1" d="M516.18 165.41H509.3C509.951 165.44 510.601 165.337 511.211 165.109C511.821 164.88 512.378 164.53 512.849 164.08C513.32 163.63 513.695 163.089 513.951 162.49C514.207 161.891 514.339 161.246 514.339 160.595C514.339 159.944 514.207 159.299 513.951 158.7C513.695 158.101 513.32 157.56 512.849 157.11C512.378 156.66 511.821 156.31 511.211 156.082C510.601 155.853 509.951 155.75 509.3 155.78H453.57C452.331 155.837 451.161 156.368 450.304 157.265C449.447 158.162 448.969 159.355 448.969 160.595C448.969 161.835 449.447 163.028 450.304 163.925C451.161 164.822 452.331 165.354 453.57 165.41H460.45C459.799 165.38 459.149 165.483 458.539 165.712C457.929 165.94 457.372 166.29 456.901 166.74C456.429 167.19 456.055 167.731 455.798 168.33C455.542 168.929 455.41 169.574 455.41 170.225C455.41 170.876 455.542 171.521 455.798 172.12C456.055 172.719 456.429 173.26 456.901 173.71C457.372 174.16 457.929 174.51 458.539 174.739C459.149 174.967 459.799 175.07 460.45 175.04H450.82C450.169 175.01 449.519 175.113 448.909 175.342C448.299 175.57 447.742 175.92 447.271 176.37C446.799 176.82 446.425 177.361 446.168 177.96C445.912 178.559 445.78 179.204 445.78 179.855C445.78 180.506 445.912 181.151 446.168 181.75C446.425 182.349 446.799 182.89 447.271 183.34C447.742 183.79 448.299 184.14 448.909 184.369C449.519 184.597 450.169 184.7 450.82 184.67H506.55C507.201 184.7 507.851 184.597 508.461 184.369C509.071 184.14 509.628 183.79 510.099 183.34C510.57 182.89 510.945 182.349 511.201 181.75C511.457 181.151 511.589 180.506 511.589 179.855C511.589 179.204 511.457 178.559 511.201 177.96C510.945 177.361 510.57 176.82 510.099 176.37C509.628 175.92 509.071 175.57 508.461 175.342C507.851 175.113 507.201 175.01 506.55 175.04H516.18C516.831 175.07 517.481 174.967 518.091 174.739C518.701 174.51 519.258 174.16 519.729 173.71C520.2 173.26 520.575 172.719 520.831 172.12C521.087 171.521 521.219 170.876 521.219 170.225C521.219 169.574 521.087 168.929 520.831 168.33C520.575 167.731 520.2 167.19 519.729 166.74C519.258 166.29 518.701 165.94 518.091 165.712C517.481 165.483 516.831 165.38 516.18 165.41Z" fill="#252223"/>
<path opacity="0.1" d="M786.18 165.41H779.3C779.951 165.44 780.601 165.337 781.211 165.109C781.821 164.88 782.378 164.53 782.849 164.08C783.32 163.63 783.695 163.089 783.951 162.49C784.207 161.891 784.339 161.246 784.339 160.595C784.339 159.944 784.207 159.299 783.951 158.7C783.695 158.101 783.32 157.56 782.849 157.11C782.378 156.66 781.821 156.31 781.211 156.082C780.601 155.853 779.951 155.75 779.3 155.78H723.57C722.331 155.837 721.161 156.368 720.304 157.265C719.447 158.162 718.969 159.355 718.969 160.595C718.969 161.835 719.447 163.028 720.304 163.925C721.161 164.822 722.331 165.354 723.57 165.41H730.45C729.799 165.38 729.149 165.483 728.539 165.712C727.929 165.94 727.372 166.29 726.901 166.74C726.429 167.19 726.055 167.731 725.798 168.33C725.542 168.929 725.41 169.574 725.41 170.225C725.41 170.876 725.542 171.521 725.798 172.12C726.055 172.719 726.429 173.26 726.901 173.71C727.372 174.16 727.929 174.51 728.539 174.739C729.149 174.967 729.799 175.07 730.45 175.04H720.82C720.169 175.01 719.519 175.113 718.909 175.342C718.299 175.57 717.742 175.92 717.271 176.37C716.799 176.82 716.425 177.361 716.168 177.96C715.912 178.559 715.78 179.204 715.78 179.855C715.78 180.506 715.912 181.151 716.168 181.75C716.425 182.349 716.799 182.89 717.271 183.34C717.742 183.79 718.299 184.14 718.909 184.369C719.519 184.597 720.169 184.7 720.82 184.67H776.55C777.201 184.7 777.851 184.597 778.461 184.369C779.071 184.14 779.628 183.79 780.099 183.34C780.57 182.89 780.945 182.349 781.201 181.75C781.457 181.151 781.589 180.506 781.589 179.855C781.589 179.204 781.457 178.559 781.201 177.96C780.945 177.361 780.57 176.82 780.099 176.37C779.628 175.92 779.071 175.57 778.461 175.342C777.851 175.113 777.201 175.01 776.55 175.04H786.18C786.831 175.07 787.481 174.967 788.091 174.739C788.701 174.51 789.258 174.16 789.729 173.71C790.2 173.26 790.575 172.719 790.831 172.12C791.087 171.521 791.219 170.876 791.219 170.225C791.219 169.574 791.087 168.929 790.831 168.33C790.575 167.731 790.2 167.19 789.729 166.74C789.258 166.29 788.701 165.94 788.091 165.712C787.481 165.483 786.831 165.38 786.18 165.41Z" fill="#252223"/>
<path opacity="0.1" d="M211.18 288.41H204.3C204.951 288.44 205.601 288.337 206.211 288.108C206.821 287.88 207.378 287.53 207.849 287.08C208.32 286.63 208.695 286.089 208.951 285.49C209.207 284.891 209.339 284.246 209.339 283.595C209.339 282.944 209.207 282.299 208.951 281.7C208.695 281.101 208.32 280.56 207.849 280.11C207.378 279.66 206.821 279.31 206.211 279.081C205.601 278.853 204.951 278.75 204.3 278.78H148.57C147.331 278.836 146.161 279.368 145.304 280.265C144.447 281.162 143.969 282.355 143.969 283.595C143.969 284.835 144.447 286.028 145.304 286.925C146.161 287.822 147.331 288.354 148.57 288.41H155.45C154.211 288.466 153.041 288.998 152.184 289.895C151.327 290.792 150.849 291.985 150.849 293.225C150.849 294.465 151.327 295.658 152.184 296.555C153.041 297.452 154.211 297.983 155.45 298.04H145.82C145.169 298.01 144.519 298.113 143.909 298.341C143.299 298.57 142.742 298.92 142.271 299.37C141.8 299.82 141.425 300.361 141.168 300.96C140.912 301.559 140.78 302.204 140.78 302.855C140.78 303.506 140.912 304.151 141.168 304.75C141.425 305.349 141.8 305.89 142.271 306.34C142.742 306.79 143.299 307.14 143.909 307.368C144.519 307.597 145.169 307.7 145.82 307.67H201.55C202.201 307.7 202.851 307.597 203.461 307.368C204.071 307.14 204.628 306.79 205.099 306.34C205.57 305.89 205.945 305.349 206.201 304.75C206.457 304.151 206.589 303.506 206.589 302.855C206.589 302.204 206.457 301.559 206.201 300.96C205.945 300.361 205.57 299.82 205.099 299.37C204.628 298.92 204.071 298.57 203.461 298.341C202.851 298.113 202.201 298.01 201.55 298.04H211.18C212.419 297.983 213.588 297.452 214.445 296.555C215.302 295.658 215.78 294.465 215.78 293.225C215.78 291.985 215.302 290.792 214.445 289.895C213.588 288.998 212.419 288.466 211.18 288.41Z" fill="#252223"/>
<path d="M788.73 675.12C788.73 675.12 764.06 591.36 793.36 529.71C805.66 503.84 809.74 474.79 804.06 446.71C801.344 433.378 797.411 420.323 792.31 407.71" stroke="#535461" stroke-width="2" stroke-miterlimit="10"/>
<path d="M810.5 368.8C810.5 379.07 791.91 408.8 791.91 408.8C791.91 408.8 773.32 379.03 773.32 368.8C773.262 366.323 773.701 363.86 774.609 361.555C775.517 359.249 776.877 357.149 778.608 355.377C780.34 353.605 782.408 352.197 784.691 351.235C786.975 350.274 789.427 349.779 791.905 349.779C794.383 349.779 796.835 350.274 799.118 351.235C801.402 352.197 803.47 353.605 805.202 355.377C806.933 357.149 808.293 359.249 809.201 361.555C810.109 363.86 810.547 366.323 810.49 368.8H810.5Z" fill="#6F7CB2"/>
<path d="M841.26 425.66C835.68 434.28 803.9 449.16 803.9 449.16C803.9 449.16 804.48 414.07 810.06 405.45C812.797 401.447 816.99 398.671 821.744 397.716C826.499 396.761 831.438 397.702 835.509 400.337C839.58 402.973 842.46 407.095 843.534 411.824C844.608 416.553 843.792 421.514 841.26 425.65V425.66Z" fill="#6F7CB2"/>
<path d="M839.91 522.83C830.74 527.45 795.8 524.26 795.8 524.26C795.8 524.26 814.01 494.26 823.18 489.64C825.365 488.483 827.759 487.773 830.221 487.552C832.684 487.332 835.166 487.604 837.521 488.355C839.877 489.105 842.06 490.318 843.941 491.922C845.823 493.526 847.365 495.489 848.479 497.697C849.592 499.904 850.254 502.312 850.426 504.778C850.597 507.244 850.275 509.72 849.478 512.061C848.681 514.401 847.425 516.559 845.784 518.408C844.143 520.258 842.149 521.761 839.92 522.83H839.91Z" fill="#6F7CB2"/>
<path d="M822.34 596.12C814.09 602.22 779.1 604.98 779.1 604.98C779.1 604.98 791.98 572.34 800.23 566.23C802.191 564.755 804.425 563.683 806.802 563.075C809.179 562.468 811.654 562.337 814.082 562.69C816.51 563.044 818.844 563.874 820.95 565.134C823.055 566.394 824.891 568.059 826.35 570.031C827.809 572.004 828.863 574.246 829.452 576.628C830.04 579.01 830.152 581.486 829.779 583.911C829.406 586.336 828.557 588.664 827.28 590.759C826.003 592.855 824.324 594.677 822.34 596.12Z" fill="#6F7CB2"/>
<path d="M764.87 451.15C772.23 458.3 806.54 465.71 806.54 465.71C806.54 465.71 798.14 431.64 790.78 424.48C787.219 421.182 782.509 419.407 777.658 419.536C772.806 419.664 768.196 421.684 764.814 425.165C761.432 428.647 759.546 433.312 759.558 438.166C759.57 443.02 761.48 447.676 764.88 451.14L764.87 451.15Z" fill="#6F7CB2"/>
<path d="M745.41 537.12C754.58 541.74 789.52 538.55 789.52 538.55C789.52 538.55 771.31 508.55 762.14 503.93C759.955 502.773 757.561 502.063 755.099 501.842C752.636 501.622 750.154 501.894 747.798 502.645C745.442 503.395 743.26 504.608 741.378 506.212C739.497 507.816 737.954 509.779 736.841 511.986C735.727 514.194 735.066 516.602 734.894 519.068C734.722 521.535 735.045 524.01 735.842 526.351C736.639 528.691 737.894 530.849 739.536 532.698C741.177 534.548 743.171 536.051 745.4 537.12H745.41Z" fill="#6F7CB2"/>
<path d="M737.96 623.28C746.21 629.38 781.2 632.14 781.2 632.14C781.2 632.14 768.32 599.49 760.06 593.39C758.099 591.915 755.866 590.843 753.488 590.235C751.111 589.628 748.637 589.497 746.209 589.85C743.78 590.204 741.446 591.034 739.341 592.294C737.235 593.554 735.4 595.219 733.94 597.191C732.481 599.164 731.427 601.406 730.838 603.788C730.25 606.17 730.139 608.646 730.512 611.071C730.884 613.496 731.734 615.824 733.01 617.919C734.287 620.015 735.966 621.837 737.95 623.28H737.96Z" fill="#6F7CB2"/>
<path d="M810.5 368.8C810.5 379.07 791.91 408.8 791.91 408.8C791.91 408.8 773.32 379.03 773.32 368.8C773.262 366.323 773.701 363.86 774.609 361.555C775.517 359.249 776.877 357.149 778.608 355.377C780.34 353.605 782.408 352.197 784.691 351.235C786.975 350.274 789.427 349.779 791.905 349.779C794.383 349.779 796.835 350.274 799.118 351.235C801.402 352.197 803.47 353.605 805.202 355.377C806.933 357.149 808.293 359.249 809.201 361.555C810.109 363.86 810.547 366.323 810.49 368.8H810.5Z" fill="#FC6681"/>
<path d="M841.26 425.66C835.68 434.28 803.9 449.16 803.9 449.16C803.9 449.16 804.48 414.07 810.06 405.45C812.797 401.447 816.99 398.671 821.744 397.716C826.499 396.761 831.438 397.702 835.509 400.337C839.58 402.973 842.46 407.095 843.534 411.824C844.608 416.553 843.792 421.514 841.26 425.65V425.66Z" fill="#FC6681"/>
<path d="M839.91 522.83C830.74 527.45 795.8 524.26 795.8 524.26C795.8 524.26 814.01 494.26 823.18 489.64C825.365 488.483 827.759 487.773 830.221 487.552C832.684 487.332 835.166 487.604 837.521 488.355C839.877 489.105 842.06 490.318 843.941 491.922C845.823 493.526 847.365 495.489 848.479 497.697C849.592 499.904 850.254 502.312 850.426 504.778C850.597 507.244 850.275 509.72 849.478 512.061C848.681 514.401 847.425 516.559 845.784 518.408C844.143 520.258 842.149 521.761 839.92 522.83H839.91Z" fill="#FC6681"/>
<path d="M822.34 596.12C814.09 602.22 779.1 604.98 779.1 604.98C779.1 604.98 791.98 572.34 800.23 566.23C802.191 564.755 804.425 563.683 806.802 563.075C809.179 562.468 811.654 562.337 814.082 562.69C816.51 563.044 818.844 563.874 820.95 565.134C823.055 566.394 824.891 568.059 826.35 570.031C827.809 572.004 828.863 574.246 829.452 576.628C830.04 579.01 830.152 581.486 829.779 583.911C829.406 586.336 828.557 588.664 827.28 590.759C826.003 592.855 824.324 594.677 822.34 596.12Z" fill="#FC6681"/>
<path d="M764.87 451.15C772.23 458.3 806.54 465.71 806.54 465.71C806.54 465.71 798.14 431.64 790.78 424.48C787.219 421.182 782.509 419.407 777.658 419.536C772.806 419.664 768.196 421.684 764.814 425.165C761.432 428.647 759.546 433.312 759.558 438.166C759.57 443.02 761.48 447.676 764.88 451.14L764.87 451.15Z" fill="#FC6681"/>
<path d="M745.41 537.12C754.58 541.74 789.52 538.55 789.52 538.55C789.52 538.55 771.31 508.55 762.14 503.93C759.955 502.773 757.561 502.063 755.099 501.842C752.636 501.622 750.154 501.894 747.798 502.645C745.442 503.395 743.26 504.608 741.378 506.212C739.497 507.816 737.954 509.779 736.841 511.986C735.727 514.194 735.066 516.602 734.894 519.068C734.722 521.535 735.045 524.01 735.842 526.351C736.639 528.691 737.894 530.849 739.536 532.698C741.177 534.548 743.171 536.051 745.4 537.12H745.41Z" fill="#FC6681"/>
<path d="M737.96 623.28C746.21 629.38 781.2 632.14 781.2 632.14C781.2 632.14 768.32 599.49 760.06 593.39C758.099 591.915 755.866 590.843 753.488 590.235C751.111 589.628 748.637 589.497 746.209 589.85C743.78 590.204 741.446 591.034 739.341 592.294C737.235 593.554 735.4 595.219 733.94 597.191C732.481 599.164 731.427 601.406 730.838 603.788C730.25 606.17 730.139 608.646 730.512 611.071C730.884 613.496 731.734 615.824 733.01 617.919C734.287 620.015 735.966 621.837 737.95 623.28H737.96Z" fill="#FC6681"/>
<path d="M206.73 673.12C206.73 673.12 182.06 589.36 211.36 527.71C223.66 501.84 227.74 472.79 222.06 444.71C219.344 431.378 215.411 418.323 210.31 405.71" stroke="#535461" stroke-width="2" stroke-miterlimit="10"/>
<path d="M228.5 366.8C228.5 377.07 209.91 406.8 209.91 406.8C209.91 406.8 191.32 377.03 191.32 366.8C191.262 364.323 191.701 361.86 192.609 359.555C193.517 357.249 194.877 355.149 196.608 353.377C198.34 351.605 200.408 350.197 202.691 349.235C204.975 348.274 207.427 347.779 209.905 347.779C212.382 347.779 214.835 348.274 217.118 349.235C219.402 350.197 221.47 351.605 223.202 353.377C224.933 355.149 226.293 357.249 227.201 359.555C228.109 361.86 228.547 364.323 228.49 366.8H228.5Z" fill="#6F7CB2"/>
<path d="M259.26 423.66C253.68 432.28 221.9 447.16 221.9 447.16C221.9 447.16 222.48 412.07 228.06 403.45C230.797 399.447 234.99 396.671 239.744 395.716C244.499 394.761 249.438 395.702 253.509 398.337C257.58 400.973 260.46 405.095 261.534 409.824C262.609 414.553 261.792 419.514 259.26 423.65V423.66Z" fill="#6F7CB2"/>
<path d="M257.91 520.83C248.74 525.45 213.8 522.26 213.8 522.26C213.8 522.26 232.01 492.26 241.18 487.64C245.567 485.536 250.605 485.235 255.212 486.804C259.818 488.373 263.626 491.685 265.817 496.03C268.009 500.375 268.409 505.406 266.933 510.043C265.456 514.679 262.22 518.552 257.92 520.83H257.91Z" fill="#6F7CB2"/>
<path d="M240.34 594.12C232.09 600.22 197.1 602.98 197.1 602.98C197.1 602.98 209.98 570.34 218.23 564.23C220.191 562.755 222.425 561.683 224.802 561.075C227.179 560.468 229.654 560.337 232.082 560.69C234.51 561.044 236.844 561.874 238.95 563.134C241.055 564.394 242.891 566.059 244.35 568.031C245.809 570.004 246.863 572.246 247.452 574.628C248.04 577.01 248.151 579.486 247.779 581.911C247.406 584.336 246.557 586.664 245.28 588.759C244.003 590.855 242.324 592.677 240.34 594.12Z" fill="#6F7CB2"/>
<path d="M182.87 449.15C190.23 456.3 224.54 463.71 224.54 463.71C224.54 463.71 216.14 429.64 208.78 422.48C205.219 419.182 200.509 417.407 195.658 417.536C190.806 417.664 186.196 419.684 182.814 423.165C179.432 426.647 177.546 431.312 177.558 436.166C177.57 441.02 179.48 445.676 182.88 449.14L182.87 449.15Z" fill="#6F7CB2"/>
<path d="M163.41 535.12C172.58 539.74 207.52 536.55 207.52 536.55C207.52 536.55 189.31 506.55 180.14 501.93C175.752 499.826 170.715 499.525 166.108 501.094C161.502 502.663 157.694 505.975 155.502 510.32C153.311 514.665 152.911 519.696 154.387 524.333C155.864 528.969 159.1 532.842 163.4 535.12H163.41Z" fill="#6F7CB2"/>
<path d="M155.96 621.28C164.21 627.38 199.2 630.14 199.2 630.14C199.2 630.14 186.32 597.49 178.06 591.39C176.099 589.915 173.865 588.843 171.488 588.235C169.11 587.628 166.636 587.497 164.208 587.85C161.78 588.204 159.446 589.034 157.34 590.294C155.235 591.554 153.399 593.219 151.94 595.191C150.481 597.164 149.426 599.406 148.838 601.788C148.249 604.17 148.138 606.646 148.511 609.071C148.884 611.496 149.733 613.824 151.01 615.919C152.287 618.015 153.965 619.837 155.95 621.28H155.96Z" fill="#6F7CB2"/>
<path d="M228.5 366.8C228.5 377.07 209.91 406.8 209.91 406.8C209.91 406.8 191.32 377.03 191.32 366.8C191.262 364.323 191.701 361.86 192.609 359.555C193.517 357.249 194.877 355.149 196.608 353.377C198.34 351.605 200.408 350.197 202.691 349.235C204.975 348.274 207.427 347.779 209.905 347.779C212.382 347.779 214.835 348.274 217.118 349.235C219.402 350.197 221.47 351.605 223.202 353.377C224.933 355.149 226.293 357.249 227.201 359.555C228.109 361.86 228.547 364.323 228.49 366.8H228.5Z" fill="#FC6681"/>
<path d="M259.26 423.66C253.68 432.28 221.9 447.16 221.9 447.16C221.9 447.16 222.48 412.07 228.06 403.45C230.797 399.447 234.99 396.671 239.744 395.716C244.499 394.761 249.438 395.702 253.509 398.337C257.58 400.973 260.46 405.095 261.534 409.824C262.609 414.553 261.792 419.514 259.26 423.65V423.66Z" fill="#FC6681"/>
<path d="M257.91 520.83C248.74 525.45 213.8 522.26 213.8 522.26C213.8 522.26 232.01 492.26 241.18 487.64C245.567 485.536 250.605 485.235 255.212 486.804C259.818 488.373 263.626 491.685 265.817 496.03C268.009 500.375 268.409 505.406 266.933 510.043C265.456 514.679 262.22 518.552 257.92 520.83H257.91Z" fill="#FC6681"/>
<path d="M240.34 594.12C232.09 600.22 197.1 602.98 197.1 602.98C197.1 602.98 209.98 570.34 218.23 564.23C220.191 562.755 222.425 561.683 224.802 561.075C227.179 560.468 229.654 560.337 232.082 560.69C234.51 561.044 236.844 561.874 238.95 563.134C241.055 564.394 242.891 566.059 244.35 568.031C245.809 570.004 246.863 572.246 247.452 574.628C248.04 577.01 248.151 579.486 247.779 581.911C247.406 584.336 246.557 586.664 245.28 588.759C244.003 590.855 242.324 592.677 240.34 594.12Z" fill="#FC6681"/>
<path d="M182.87 449.15C190.23 456.3 224.54 463.71 224.54 463.71C224.54 463.71 216.14 429.64 208.78 422.48C205.219 419.182 200.509 417.407 195.658 417.536C190.806 417.664 186.196 419.684 182.814 423.165C179.432 426.647 177.546 431.312 177.558 436.166C177.57 441.02 179.48 445.676 182.88 449.14L182.87 449.15Z" fill="#FC6681"/>
<path d="M163.41 535.12C172.58 539.74 207.52 536.55 207.52 536.55C207.52 536.55 189.31 506.55 180.14 501.93C175.752 499.826 170.715 499.525 166.108 501.094C161.502 502.663 157.694 505.975 155.502 510.32C153.311 514.665 152.911 519.696 154.387 524.333C155.864 528.969 159.1 532.842 163.4 535.12H163.41Z" fill="#FC6681"/>
<path d="M155.96 621.28C164.21 627.38 199.2 630.14 199.2 630.14C199.2 630.14 186.32 597.49 178.06 591.39C176.099 589.915 173.865 588.843 171.488 588.235C169.11 587.628 166.636 587.497 164.208 587.85C161.78 588.204 159.446 589.034 157.34 590.294C155.235 591.554 153.399 593.219 151.94 595.191C150.481 597.164 149.426 599.406 148.838 601.788C148.249 604.17 148.138 606.646 148.511 609.071C148.884 611.496 149.733 613.824 151.01 615.919C152.287 618.015 153.965 619.837 155.95 621.28H155.96Z" fill="#FC6681"/>
</g>
<defs>
<linearGradient id="paint0_linear" x1="492.01" y1="692.98" x2="492.01" y2="259.98" gradientUnits="userSpaceOnUse">
<stop stop-color="#808080" stop-opacity="0.25"/>
<stop offset="0.54" stop-color="#808080" stop-opacity="0.12"/>
<stop offset="1" stop-color="#808080" stop-opacity="0.1"/>
</linearGradient>
<clipPath id="clip0">
<rect width="985" height="692.97" fill="white"/>
</clipPath>
</defs>
</svg>
