<svg width="985" height="693" viewBox="0 0 985 693" fill="none" xmlns="http://www.w3.org/2000/svg">
<g clip-path="url(#clip0)">
<path opacity="0.2" d="M223.898 38.3123C211.778 39.8923 198.608 42.5523 190.598 53.1423C181.128 65.6623 182.398 84.6923 186.688 100.542C190.978 116.392 197.758 131.842 197.688 148.442C197.498 174.832 179.478 197.232 158.968 209.042C138.458 220.852 115.308 224.662 93.1678 231.552C72.5185 238.009 52.7711 247.058 34.3978 258.482C18.8078 268.152 3.12779 280.792 -3.11221 299.872C-13.3422 331.162 5.47778 364.372 24.0678 390.062C81.0678 468.832 153.728 544.412 242.548 552.062C308.898 557.732 375.318 524.172 440.948 536.482C471.098 542.122 499.188 557.142 527.488 570.372C555.788 583.602 585.558 595.372 616.068 593.872C646.578 592.372 678.218 575.072 691.438 543.382C699.248 524.652 700.038 502.932 707.258 483.892C729.378 425.482 798.318 416.002 838.318 372.042C859.318 348.952 871.318 317.242 881.318 285.822C897.468 234.702 909.578 180.822 906.878 126.472C905.698 102.812 901.278 78.2423 888.148 59.9823C878.598 46.6923 865.268 37.8723 852.248 29.3423C822.608 9.92229 790.788 -10.1277 756.738 -7.81771C737.118 -6.48771 718.558 2.24229 699.838 9.08229C664.178 22.0823 626.978 28.5223 589.968 34.8723C528.818 45.3723 466.788 55.8723 404.808 50.6323C377.438 48.3023 351.588 39.0023 324.658 35.1923C291.908 30.5623 256.518 34.0623 223.898 38.3123Z" fill="#6F7CB2"/>
<path d="M249.932 192.386H239.043V222H231.719V192.386H220.977V186.453H249.932V192.386ZM265.873 222C265.548 221.365 265.312 220.576 265.165 219.632C263.456 221.536 261.234 222.488 258.5 222.488C255.912 222.488 253.764 221.74 252.055 220.242C250.362 218.745 249.516 216.857 249.516 214.578C249.516 211.779 250.549 209.63 252.616 208.133C254.7 206.635 257.702 205.879 261.625 205.862H264.872V204.349C264.872 203.128 264.555 202.151 263.92 201.419C263.301 200.687 262.317 200.32 260.966 200.32C259.778 200.32 258.842 200.605 258.158 201.175C257.491 201.744 257.157 202.526 257.157 203.519H250.102C250.102 201.989 250.574 200.573 251.518 199.271C252.462 197.968 253.796 196.951 255.521 196.219C257.247 195.47 259.184 195.096 261.332 195.096C264.587 195.096 267.167 195.918 269.071 197.562C270.992 199.189 271.952 201.484 271.952 204.446V215.896C271.968 218.403 272.318 220.299 273.002 221.585V222H265.873ZM260.038 217.093C261.08 217.093 262.04 216.865 262.919 216.409C263.798 215.937 264.449 215.311 264.872 214.529V209.988H262.235C258.703 209.988 256.824 211.209 256.596 213.65L256.571 214.065C256.571 214.944 256.881 215.669 257.499 216.238C258.118 216.808 258.964 217.093 260.038 217.093ZM287.967 211.404L285.428 213.943V222H278.372V184.5H285.428V205.276L286.795 203.519L293.558 195.584H302.029L292.483 206.595L302.859 222H294.754L287.967 211.404ZM317.751 222.488C313.877 222.488 310.72 221.3 308.278 218.924C305.853 216.548 304.641 213.382 304.641 209.427V208.743C304.641 206.09 305.153 203.722 306.179 201.639C307.204 199.539 308.653 197.928 310.524 196.805C312.412 195.665 314.561 195.096 316.97 195.096C320.583 195.096 323.423 196.235 325.49 198.514C327.574 200.792 328.615 204.023 328.615 208.206V211.087H311.794C312.022 212.812 312.705 214.196 313.845 215.237C315 216.279 316.457 216.8 318.215 216.8C320.933 216.8 323.057 215.815 324.587 213.846L328.054 217.728C326.996 219.225 325.563 220.397 323.757 221.243C321.95 222.073 319.948 222.488 317.751 222.488ZM316.945 200.809C315.546 200.809 314.406 201.281 313.527 202.225C312.665 203.169 312.111 204.52 311.867 206.277H321.682V205.716C321.649 204.153 321.226 202.949 320.412 202.103C319.598 201.24 318.443 200.809 316.945 200.809ZM362.402 222C362.077 221.365 361.841 220.576 361.694 219.632C359.985 221.536 357.764 222.488 355.029 222.488C352.441 222.488 350.293 221.74 348.584 220.242C346.891 218.745 346.045 216.857 346.045 214.578C346.045 211.779 347.078 209.63 349.146 208.133C351.229 206.635 354.232 205.879 358.154 205.862H361.401V204.349C361.401 203.128 361.084 202.151 360.449 201.419C359.831 200.687 358.846 200.32 357.495 200.32C356.307 200.32 355.371 200.605 354.688 201.175C354.02 201.744 353.687 202.526 353.687 203.519H346.631C346.631 201.989 347.103 200.573 348.047 199.271C348.991 197.968 350.326 196.951 352.051 196.219C353.776 195.47 355.713 195.096 357.861 195.096C361.117 195.096 363.696 195.918 365.601 197.562C367.521 199.189 368.481 201.484 368.481 204.446V215.896C368.498 218.403 368.848 220.299 369.531 221.585V222H362.402ZM356.567 217.093C357.609 217.093 358.569 216.865 359.448 216.409C360.327 215.937 360.978 215.311 361.401 214.529V209.988H358.765C355.233 209.988 353.353 211.209 353.125 213.65L353.101 214.065C353.101 214.944 353.41 215.669 354.028 216.238C354.647 216.808 355.493 217.093 356.567 217.093ZM389.109 204.52L391.16 186.453H411.082V192.337H396.946L396.067 199.979C397.744 199.083 399.526 198.636 401.414 198.636C404.799 198.636 407.452 199.686 409.373 201.785C411.294 203.885 412.254 206.823 412.254 210.599C412.254 212.894 411.766 214.952 410.789 216.775C409.829 218.582 408.445 219.99 406.639 220.999C404.832 221.992 402.7 222.488 400.242 222.488C398.094 222.488 396.1 222.057 394.261 221.194C392.422 220.315 390.965 219.087 389.891 217.508C388.833 215.929 388.271 214.131 388.206 212.112H395.188C395.335 213.593 395.848 214.749 396.727 215.579C397.622 216.393 398.785 216.8 400.218 216.8C401.813 216.8 403.042 216.23 403.904 215.091C404.767 213.935 405.198 212.308 405.198 210.208C405.198 208.19 404.702 206.644 403.709 205.569C402.716 204.495 401.308 203.958 399.485 203.958C397.809 203.958 396.45 204.397 395.408 205.276L394.725 205.911L389.109 204.52ZM438.131 195.584L438.351 198.538C440.222 196.243 442.753 195.096 445.943 195.096C449.345 195.096 451.681 196.438 452.95 199.124C454.806 196.438 457.451 195.096 460.885 195.096C463.749 195.096 465.882 195.934 467.281 197.61C468.681 199.271 469.381 201.777 469.381 205.13V222H462.301V205.154C462.301 203.657 462.008 202.566 461.422 201.883C460.836 201.183 459.802 200.833 458.321 200.833C456.205 200.833 454.741 201.842 453.927 203.86L453.951 222H446.896V205.179C446.896 203.649 446.594 202.542 445.992 201.858C445.39 201.175 444.365 200.833 442.916 200.833C440.914 200.833 439.465 201.663 438.57 203.323V222H431.515V195.584H438.131ZM483.271 222H476.191V195.584H483.271V222ZM475.776 188.748C475.776 187.69 476.126 186.819 476.826 186.136C477.542 185.452 478.511 185.11 479.731 185.11C480.936 185.11 481.896 185.452 482.612 186.136C483.328 186.819 483.687 187.69 483.687 188.748C483.687 189.822 483.32 190.701 482.588 191.385C481.872 192.068 480.92 192.41 479.731 192.41C478.543 192.41 477.583 192.068 476.851 191.385C476.134 190.701 475.776 189.822 475.776 188.748ZM496.601 195.584L496.82 198.636C498.708 196.276 501.239 195.096 504.413 195.096C507.213 195.096 509.296 195.918 510.663 197.562C512.03 199.205 512.73 201.663 512.763 204.935V222H505.707V205.105C505.707 203.608 505.382 202.526 504.73 201.858C504.079 201.175 502.997 200.833 501.483 200.833C499.498 200.833 498.008 201.679 497.016 203.372V222H489.96V195.584H496.601ZM534.954 219.314C533.213 221.43 530.804 222.488 527.728 222.488C524.896 222.488 522.731 221.674 521.233 220.047C519.752 218.419 518.995 216.035 518.963 212.894V195.584H526.019V212.649C526.019 215.4 527.272 216.775 529.778 216.775C532.171 216.775 533.815 215.945 534.71 214.285V195.584H541.79V222H535.149L534.954 219.314ZM556.56 189.09V195.584H561.076V200.76H556.56V213.943C556.56 214.92 556.747 215.62 557.121 216.043C557.495 216.466 558.212 216.678 559.27 216.678C560.051 216.678 560.743 216.621 561.345 216.507V221.854C559.961 222.277 558.537 222.488 557.072 222.488C552.124 222.488 549.602 219.99 549.504 214.993V200.76H545.646V195.584H549.504V189.09H556.56ZM578.165 222.488C574.291 222.488 571.134 221.3 568.692 218.924C566.267 216.548 565.055 213.382 565.055 209.427V208.743C565.055 206.09 565.567 203.722 566.593 201.639C567.618 199.539 569.067 197.928 570.938 196.805C572.826 195.665 574.975 195.096 577.384 195.096C580.997 195.096 583.837 196.235 585.904 198.514C587.988 200.792 589.029 204.023 589.029 208.206V211.087H572.208C572.436 212.812 573.119 214.196 574.259 215.237C575.414 216.279 576.871 216.8 578.629 216.8C581.347 216.8 583.471 215.815 585.001 213.846L588.468 217.728C587.41 219.225 585.978 220.397 584.171 221.243C582.364 222.073 580.362 222.488 578.165 222.488ZM577.359 200.809C575.96 200.809 574.82 201.281 573.941 202.225C573.079 203.169 572.525 204.52 572.281 206.277H582.096V205.716C582.063 204.153 581.64 202.949 580.826 202.103C580.012 201.24 578.857 200.809 577.359 200.809ZM631.312 209.036C631.312 213.268 630.409 216.572 628.603 218.948C626.796 221.308 624.273 222.488 621.034 222.488C618.17 222.488 615.883 221.39 614.174 219.192L613.856 222H607.509V184.5H614.564V197.952C616.192 196.048 618.332 195.096 620.985 195.096C624.208 195.096 626.731 196.284 628.554 198.66C630.393 201.02 631.312 204.349 631.312 208.646V209.036ZM624.257 208.523C624.257 205.854 623.834 203.909 622.987 202.688C622.141 201.451 620.88 200.833 619.203 200.833C616.957 200.833 615.411 201.753 614.564 203.592V214.017C615.427 215.872 616.99 216.8 619.252 216.8C621.531 216.8 623.028 215.677 623.744 213.431C624.086 212.356 624.257 210.721 624.257 208.523ZM651.526 202.2C650.566 202.07 649.72 202.005 648.987 202.005C646.318 202.005 644.568 202.908 643.738 204.715V222H636.683V195.584H643.348L643.543 198.733C644.959 196.308 646.92 195.096 649.427 195.096C650.208 195.096 650.94 195.201 651.624 195.413L651.526 202.2ZM667.614 222.488C663.741 222.488 660.583 221.3 658.142 218.924C655.716 216.548 654.504 213.382 654.504 209.427V208.743C654.504 206.09 655.017 203.722 656.042 201.639C657.067 199.539 658.516 197.928 660.388 196.805C662.276 195.665 664.424 195.096 666.833 195.096C670.446 195.096 673.286 196.235 675.354 198.514C677.437 200.792 678.479 204.023 678.479 208.206V211.087H661.657C661.885 212.812 662.569 214.196 663.708 215.237C664.864 216.279 666.32 216.8 668.078 216.8C670.796 216.8 672.92 215.815 674.45 213.846L677.917 217.728C676.859 219.225 675.427 220.397 673.62 221.243C671.813 222.073 669.812 222.488 667.614 222.488ZM666.809 200.809C665.409 200.809 664.27 201.281 663.391 202.225C662.528 203.169 661.975 204.52 661.73 206.277H671.545V205.716C671.512 204.153 671.089 202.949 670.275 202.103C669.462 201.24 668.306 200.809 666.809 200.809ZM698.814 222C698.489 221.365 698.253 220.576 698.106 219.632C696.397 221.536 694.176 222.488 691.441 222.488C688.854 222.488 686.705 221.74 684.996 220.242C683.303 218.745 682.457 216.857 682.457 214.578C682.457 211.779 683.491 209.63 685.558 208.133C687.641 206.635 690.644 205.879 694.566 205.862H697.813V204.349C697.813 203.128 697.496 202.151 696.861 201.419C696.243 200.687 695.258 200.32 693.907 200.32C692.719 200.32 691.783 200.605 691.1 201.175C690.432 201.744 690.099 202.526 690.099 203.519H683.043C683.043 201.989 683.515 200.573 684.459 199.271C685.403 197.968 686.738 196.951 688.463 196.219C690.188 195.47 692.125 195.096 694.273 195.096C697.529 195.096 700.108 195.918 702.013 197.562C703.933 199.189 704.894 201.484 704.894 204.446V215.896C704.91 218.403 705.26 220.299 705.943 221.585V222H698.814ZM692.979 217.093C694.021 217.093 694.981 216.865 695.86 216.409C696.739 215.937 697.39 215.311 697.813 214.529V209.988H695.177C691.645 209.988 689.765 211.209 689.537 213.65L689.513 214.065C689.513 214.944 689.822 215.669 690.44 216.238C691.059 216.808 691.905 217.093 692.979 217.093ZM720.908 211.404L718.369 213.943V222H711.313V184.5H718.369V205.276L719.736 203.519L726.499 195.584H734.971L725.425 206.595L735.801 222H727.695L720.908 211.404Z" fill="#091133"/>
<path opacity="0.5" d="M791 207.97C811.987 207.97 829 190.957 829 169.97C829 148.983 811.987 131.97 791 131.97C770.013 131.97 753 148.983 753 169.97C753 190.957 770.013 207.97 791 207.97Z" fill="#6F7CB2"/>
<path d="M671.33 304.12H323.6L343.47 242.97H354.12L356.25 258.83H631.59L633.01 242.97H645.78L671.33 304.12Z" fill="#6F7CB2"/>
<path opacity="0.2" d="M671.33 304.12H323.6L343.47 242.97H354.12L356.25 258.83H631.59L633.01 242.97H645.78L671.33 304.12Z" fill="black"/>
<path d="M695.46 317.71H292.38L282.44 292.8H703.98L695.46 317.71Z" fill="#6F7CB2"/>
<path d="M682.69 333.57H302.31L292.38 317.71H695.46L682.69 333.57Z" fill="#6F7CB2"/>
<path d="M682.68 329.04H302.31V347.16H682.68V329.04Z" fill="#6F7CB2"/>
<path d="M712.49 376.6H279.6V444.55H712.49V376.6Z" fill="#6F7CB2"/>
<path opacity="0.2" d="M712.49 376.6H279.6V444.55H712.49V376.6Z" fill="black"/>
<path d="M985 605.35L0 598.56L28.39 437.75H963.71L985 605.35Z" fill="#6F7CB2"/>
<g opacity="0.2">
<path opacity="0.2" d="M279 555.53H291.58C295.558 555.53 299.374 557.11 302.187 559.923C305 562.736 306.58 566.552 306.58 570.53V600.83H264V570.53C264 566.552 265.58 562.736 268.393 559.923C271.206 557.11 275.022 555.53 279 555.53Z" fill="black"/>
<path opacity="0.2" d="M371.25 555.53H383.83C387.808 555.53 391.624 557.11 394.437 559.923C397.25 562.736 398.83 566.552 398.83 570.53V600.83H356.25V570.53C356.25 566.552 357.83 562.736 360.643 559.923C363.456 557.11 367.272 555.53 371.25 555.53Z" fill="black"/>
<path opacity="0.2" d="M486.21 555.53H498.79C502.768 555.53 506.584 557.11 509.397 559.923C512.21 562.736 513.79 566.552 513.79 570.53V600.83H471.21V570.53C471.21 566.552 472.79 562.736 475.603 559.923C478.416 557.11 482.232 555.53 486.21 555.53V555.53Z" fill="black"/>
<path opacity="0.2" d="M605.43 555.53H618C621.978 555.53 625.794 557.11 628.607 559.923C631.42 562.736 633 566.552 633 570.53V600.83H590.43V570.53C590.43 566.552 592.011 562.736 594.824 559.923C597.637 557.11 601.452 555.53 605.43 555.53Z" fill="black"/>
<path opacity="0.2" d="M700.53 555.53H713.11C717.088 555.53 720.904 557.11 723.717 559.923C726.53 562.736 728.11 566.552 728.11 570.53V600.83H685.53V570.53C685.53 566.552 687.111 562.736 689.924 559.923C692.737 557.11 696.552 555.53 700.53 555.53Z" fill="black"/>
</g>
<path opacity="0.2" d="M515.21 444.55H469.79V535.15H515.21V444.55Z" fill="black"/>
<path d="M286.7 376.6H279.6V444.55H286.7V376.6Z" fill="#6F7CB2"/>
<path d="M327.86 376.6H320.76V444.55H327.86V376.6Z" fill="#6F7CB2"/>
<path d="M373.28 376.6H366.18V444.55H373.28V376.6Z" fill="#6F7CB2"/>
<path d="M417.28 376.6H410.18V444.55H417.28V376.6Z" fill="#6F7CB2"/>
<path d="M465.54 376.6H458.44V444.55H465.54V376.6Z" fill="#6F7CB2"/>
<path d="M530.82 376.6H523.72V444.55H530.82V376.6Z" fill="#6F7CB2"/>
<path d="M574.82 376.6H567.72V444.55H574.82V376.6Z" fill="#6F7CB2"/>
<path d="M624.5 376.6H617.4V444.55H624.5V376.6Z" fill="#6F7CB2"/>
<path d="M667.08 376.6H659.98V444.55H667.08V376.6Z" fill="#6F7CB2"/>
<path d="M712.5 376.6H705.4V444.55H712.5V376.6Z" fill="#6F7CB2"/>
<path d="M712.49 381.13H279.6L254.06 358.48H736.62L712.49 381.13Z" fill="#6F7CB2"/>
<path d="M296.63 381.13H279.6V390.19H296.63V381.13Z" fill="#6F7CB2"/>
<path d="M333.54 381.13H316.51V390.19H333.54V381.13Z" fill="#6F7CB2"/>
<path d="M377.53 381.13H360.5V390.19H377.53V381.13Z" fill="#6F7CB2"/>
<path d="M422.95 381.13H405.92V390.19H422.95V381.13Z" fill="#6F7CB2"/>
<path d="M471.21 381.13H454.18V390.19H471.21V381.13Z" fill="#6F7CB2"/>
<path d="M535.08 381.13H518.05V390.19H535.08V381.13Z" fill="#6F7CB2"/>
<path d="M580.5 381.13H563.47V390.19H580.5V381.13Z" fill="#6F7CB2"/>
<path d="M630.17 381.13H613.14V390.19H630.17V381.13Z" fill="#6F7CB2"/>
<path d="M672.75 381.13H655.72V390.19H672.75V381.13Z" fill="#6F7CB2"/>
<path d="M712.49 381.13H695.46V390.19H712.49V381.13Z" fill="#6F7CB2"/>
<path d="M739.46 358.48H252.64L246.96 342.63H743.72L739.46 358.48Z" fill="#6F7CB2"/>
<path opacity="0.2" d="M739.46 358.48H252.64L246.96 342.63H743.72L739.46 358.48Z" fill="black"/>
<path d="M492.5 353.95C498.768 353.95 503.85 345.837 503.85 335.83C503.85 325.823 498.768 317.71 492.5 317.71C486.231 317.71 481.15 325.823 481.15 335.83C481.15 345.837 486.231 353.95 492.5 353.95Z" fill="#6F7CB2"/>
<path opacity="0.2" d="M492.5 353.95C498.768 353.95 503.85 345.837 503.85 335.83C503.85 325.823 498.768 317.71 492.5 317.71C486.231 317.71 481.15 325.823 481.15 335.83C481.15 345.837 486.231 353.95 492.5 353.95Z" fill="black"/>
<path d="M492.5 347.15C496.421 347.15 499.6 342.082 499.6 335.83C499.6 329.578 496.421 324.51 492.5 324.51C488.579 324.51 485.4 329.578 485.4 335.83C485.4 342.082 488.579 347.15 492.5 347.15Z" fill="#6F7CB2"/>
<path d="M658.67 597.13L609.99 559.77C609.99 559.77 606.06 544.2 604.49 533.3C602.92 522.4 600.56 475.7 600.56 475.7C601.677 471.657 602.417 467.519 602.77 463.34C603.25 463.24 603.77 463.12 604.22 462.99C607.859 462.062 611.232 460.304 614.076 457.852C616.92 455.4 619.157 452.322 620.61 448.86C625.61 436.42 619.15 421.72 610.97 411.86C602.79 402 592.5 394.08 587.12 381.86C580.48 366.8 582.75 348.6 579.36 332.12C579.035 329.811 578.175 327.609 576.85 325.69C574.75 323.08 571.46 322.51 568.52 321.47C559.24 318.18 552.28 309.16 546.85 299.75C538.06 284.5 528.96 261.31 510.85 259.99C504.12 259.5 497.09 261.77 490.29 261.75C479.74 261.75 469.29 261.88 458.83 263.33C455.09 263.84 451.21 264.54 448.09 267.01C437.38 275.48 442.23 297.87 431.91 307.01C428.84 309.72 424.91 310.69 421.44 312.55C408.36 319.55 402.55 338.22 403.32 355.02C403.68 362.89 405.32 371.09 409.97 376.84C413.65 381.44 418.9 384.08 422.33 388.93C427.87 396.76 427.12 407.14 426.52 417.7C419.12 420.8 413.18 424.36 411.31 428.19C405.03 441.03 405.81 485.01 405.81 485.01C405.81 485.01 408.17 557.01 390.11 566.01L322.58 612.71C322.58 612.71 274.68 571.07 262.9 595.59C254.84 612.36 284.25 621.85 303.64 626.17C291.41 634.85 284.64 650.89 290.38 661.76C299.38 678.88 324.54 690.56 324.54 690.56C324.54 690.56 420.49 695.19 464.84 685.25H465.57C484.4 688.66 511.42 692.25 533.09 690.09C533.5 691.09 533.79 691.73 533.79 691.73C533.79 691.73 672.79 703.41 697.9 655.92C710.79 631.57 697.34 620.32 681.18 615.14C699.27 613.7 719.87 608.64 722.24 593.26C726.59 565.22 658.67 597.13 658.67 597.13ZM644.67 612.02C619.24 621.29 598.59 621.81 587.6 621.11C582.19 609.34 559.68 558.32 559.09 524.18C559.23 516.56 560.59 509.9 563.63 504.9C570.18 494.13 572.11 485.69 571.89 479.27C571.89 478.79 571.89 478.33 571.89 477.87C571.921 475.908 571.729 473.949 571.32 472.03C572.4 474.669 572.722 477.558 572.25 480.37C569.89 492.44 576.18 570.66 576.18 570.66C576.18 570.66 581.28 588.17 591.88 593.23L644.67 612.02ZM395.62 606.49L419.96 590.92C419.96 590.92 431.35 585.49 432.5 572.22L440.5 508.99C441.05 511.7 441.771 514.372 442.66 516.99C444.08 521.14 444.66 527.22 444.77 534.46C444.5 569.71 432.5 628.27 432.5 628.27H432.65L432.56 628.69L431.71 628.74C411.96 628.14 365.94 626.42 340.17 622.85L395.62 606.49ZM352.97 643.35V643.49H346.97L352.97 643.35Z" fill="url(#paint0_linear)"/>
<path d="M545.02 306.11C550.27 315.29 557.02 324.11 565.97 327.29C568.81 328.29 571.97 328.86 573.97 331.4C575.249 333.276 576.077 335.422 576.39 337.67C579.66 353.74 577.47 371.49 583.89 386.17C589.09 398.06 599.04 405.81 606.95 415.4C614.86 424.99 621.07 439.33 616.27 451.45C614.884 454.809 612.739 457.8 610.003 460.191C607.266 462.582 604.014 464.307 600.5 465.23C593.88 467.02 586.97 466.23 580.25 465.08C571.39 463.51 562.37 461.08 554.99 455.08C542.22 444.71 536.82 426.08 530.14 409.52C527 401.76 522.83 393.63 515.93 390.85C508.02 387.67 499.14 392.98 494.01 400.77C488.88 408.56 486.6 418.35 484.12 427.77C481.32 438.4 477.77 449.45 470.41 456.4C467.218 459.514 463.192 461.637 458.82 462.512C454.447 463.387 449.914 462.977 445.77 461.33C437.57 457.91 431.08 449.27 429.2 439.24C426.29 423.78 433.26 405.24 424.71 393.02C421.39 388.29 416.32 385.71 412.71 381.23C408.26 375.62 406.63 367.63 406.28 359.96C405.53 343.58 411.15 325.33 423.79 318.55C427.17 316.74 430.94 315.79 433.91 313.15C443.91 304.27 439.2 282.44 449.55 274.15C452.55 271.74 456.31 271.07 459.93 270.56C470.07 269.15 480.14 268.99 490.34 269.02C496.92 269.02 503.71 266.83 510.22 267.31C527.73 268.63 536.5 291.24 545.02 306.11Z" fill="#965D7B"/>
<path d="M357.29 637.16L361.12 682.53L629 680.94L623.9 631.41L533.33 620.87L374.51 630.45L357.29 637.16Z" fill="#575988"/>
<path opacity="0.05" d="M357.29 637.16L361.12 682.53L629 680.94L623.9 631.41L533.33 620.87L374.51 630.45L357.29 637.16Z" fill="black"/>
<path d="M533.56 668.88L444.38 677.23C444.38 677.23 505.48 692.79 541.15 685.23L533.56 668.88Z" fill="#F7C4A7"/>
<path opacity="0.1" d="M533.56 668.88L444.38 677.23C444.38 677.23 505.48 692.79 541.15 685.23L533.56 668.88Z" fill="black"/>
<path d="M465.63 349.35C465.63 349.35 483.09 395.27 457.28 415.76C431.47 436.25 452.73 493.56 452.73 493.56L552.16 489.01C552.16 489.01 562.03 424.5 556.71 410.83C556.71 410.83 533.18 417.66 527.87 403.24C522.56 388.82 518.76 349.35 518.76 349.35H465.63Z" fill="#F7C4A7"/>
<path d="M442.86 627.13C442.86 627.13 358.99 625.23 334.33 619.13C309.67 613.03 288.41 642.28 297.14 658.98C305.87 675.68 330.14 687.06 330.14 687.06C330.14 687.06 454.99 693.13 481.94 676.06C481.94 676.06 492.19 646.84 481.94 641.15H351.79L447.79 639.25L442.86 627.13Z" fill="#575988"/>
<path d="M576.07 618.41C576.07 618.41 604.15 624.48 642.86 609.3C642.86 609.3 715.34 607.02 691.06 653.3C666.78 699.58 532.43 688.21 532.43 688.21C532.43 688.21 524.43 671.13 532.43 666.58C540.43 662.03 609.85 632.81 631.43 634.32L571.43 646.08L576.07 618.41Z" fill="#575988"/>
<path opacity="0.1" d="M522.2 371.44C520.75 360.63 519.9 351.82 519.9 351.82H466.77C469.223 358.779 470.926 365.98 471.85 373.3C479.3 378.516 488.249 381.157 497.337 380.821C506.425 380.486 515.155 377.192 522.2 371.44V371.44Z" fill="black"/>
<path d="M494.66 378.37C517.712 378.37 536.4 359.682 536.4 336.63C536.4 313.578 517.712 294.89 494.66 294.89C471.608 294.89 452.92 313.578 452.92 336.63C452.92 359.682 471.608 378.37 494.66 378.37Z" fill="#F7C4A7"/>
<path d="M470.19 409.31C470.19 409.31 420.1 418.8 414.03 431.31C407.96 443.82 408.72 486.72 408.72 486.72C408.72 486.72 411 556.93 393.54 565.65L328.27 611.19C328.27 611.19 281.97 570.58 270.59 594.49C259.21 618.4 325.24 627.13 325.24 627.13L398.86 605.13L422.39 589.95C422.39 589.95 433.39 584.64 434.53 571.73L444.4 493.55L483.87 482.17H547.6L556.14 457.79C556.14 457.79 571.89 470.41 569.61 482.17C567.33 493.93 573.4 570.17 573.4 570.17C573.4 570.17 578.33 587.25 588.58 592.17L647.79 613.49C647.79 613.49 710.41 619.56 714.58 592.24C718.75 564.92 653.1 596.03 653.1 596.03L606.04 559.6C606.04 559.6 602.25 544.42 600.73 533.79C599.21 523.16 596.94 477.63 596.94 477.63C596.94 477.63 611.36 429.81 569.62 421.47L515.73 404.77L470.19 409.31Z" fill="#F7C4A7"/>
<path opacity="0.1" d="M436.6 418.98L444.38 470.4C444.38 470.4 436.38 494.31 444.38 517.84C452.38 541.37 434.5 629.03 434.5 629.03C434.5 629.03 528.23 659.03 585.5 624.48C585.5 624.48 543.38 535.68 561.21 506.08C579.04 476.48 561.5 464.9 561.5 464.9L564.3 410.49L551.4 406.7L543.81 460.49C543.81 460.49 491.44 496.92 452.73 465.04L444.38 406.6L436.6 418.98Z" fill="black"/>
<path opacity="0.07" d="M490.74 480.1C486.687 473.621 480.365 468.885 473.008 466.816C465.651 464.747 457.786 465.493 450.95 468.91C463.66 478.42 477.67 480.96 490.74 480.1Z" fill="white"/>
<path opacity="0.07" d="M512.25 474.4C516.303 467.921 522.625 463.185 529.983 461.116C537.34 459.047 545.204 459.793 552.04 463.21C539.34 472.72 525.32 475.27 512.25 474.4Z" fill="white"/>
<path opacity="0.1" d="M436.6 418.98L444.38 467.74C444.38 467.74 436.38 491.65 444.38 515.18C452.38 538.71 434.5 626.37 434.5 626.37C434.5 626.37 528.23 656.37 585.5 621.82C585.5 621.82 543.38 533.02 561.21 503.42C579.04 473.82 561.5 462.24 561.5 462.24L564.24 407.79L551.34 404L543.75 457.89C543.75 457.89 491.38 494.32 452.67 462.44L444.32 404L436.6 418.98Z" fill="black"/>
<path d="M436.22 418.6L444.38 468.5C444.38 468.5 436.38 492.41 444.38 515.94C452.38 539.47 434.5 627.13 434.5 627.13C434.5 627.13 528.23 657.13 585.5 622.58C585.5 622.58 543.38 533.78 561.21 504.18C579.04 474.58 561.5 463 561.5 463L564.24 408.55L551.34 404.76L543.75 458.65C543.75 458.65 491.38 495.08 452.67 463.2L444.32 404.76L436.22 418.6Z" fill="#FC6681"/>
<path d="M474.74 645.73L494.5 643.07C494.5 643.07 517.27 613.85 533.59 636.24C533.59 636.24 540.42 650.66 548.77 653.32C554.48 655.045 560.319 656.313 566.23 657.11L532.46 666.6C532.46 666.6 517.66 675.33 502.1 673.05C492.941 671.654 483.582 672.435 474.78 675.33L474.74 645.73Z" fill="#F7C4A7"/>
<path opacity="0.1" d="M452.92 521.82C452.92 521.82 488.59 527.13 494.66 517.65Z" fill="black"/>
<path opacity="0.1" d="M520.5 515.75C520.5 515.75 527.33 522.58 554.65 517.65Z" fill="black"/>
<path opacity="0.1" d="M451.02 409.87C451.02 409.87 477.2 413.66 482.14 411.39Z" fill="black"/>
<path opacity="0.1" d="M508.71 409.87C508.71 409.87 534.89 413.66 539.83 411.39Z" fill="black"/>
<path opacity="0.1" d="M477.59 642.88C477.59 642.88 484.8 676.88 477.59 678.08C470.38 679.28 460.13 672.48 460.13 671.72C460.13 670.96 464.68 649.33 464.68 649.33L477.59 642.88Z" fill="black"/>
<path d="M476.83 642.88C476.83 642.88 484.04 676.88 476.83 678.08C469.62 679.28 459.37 672.48 459.37 671.72C459.37 670.96 463.92 649.33 463.92 649.33L476.83 642.88Z" fill="#575988"/>
<path opacity="0.1" d="M441.6 404.9C438.42 412.29 437.29 421.01 440.67 428.31C443.25 433.88 448.29 438.39 449.26 444.45C450.48 452.05 444.85 459.78 446.95 467.18C447.75 470.02 449.62 472.42 451.52 474.67C457.3 481.5 464.98 488.11 473.9 487.58C475.31 473.8 463.4 460.43 467.3 447.14C468.7 442.38 471.98 438.42 473.96 433.88C477.25 426.35 476.78 417.75 475.59 409.62C473.86 397.83 469.48 383.36 457.79 377.84C452.41 375.3 444.79 375.12 442.87 382.01C441.87 385.69 444.27 389.15 444.6 392.75C445.02 397.32 443.37 400.79 441.6 404.9Z" fill="black"/>
<path d="M441.6 403.76C438.42 411.15 437.29 419.87 440.67 427.17C443.25 432.74 448.29 437.25 449.26 443.31C450.48 450.91 444.85 458.64 446.95 466.04C447.75 468.88 449.62 471.28 451.52 473.53C457.3 480.36 464.98 486.97 473.9 486.44C475.31 472.66 463.4 459.29 467.3 446C468.7 441.24 471.98 437.28 473.96 432.74C477.25 425.21 476.78 416.61 475.59 408.48C473.86 396.69 469.48 382.22 457.79 376.7C452.41 374.16 444.79 373.98 442.87 380.87C441.87 384.55 444.27 388.01 444.6 391.61C445.02 396.19 443.37 399.66 441.6 403.76Z" fill="#965D7B"/>
<path opacity="0.1" d="M444.57 316.14C444.57 316.14 499.98 308.55 501.49 319.93C503 331.31 551.96 349.93 551.96 349.93L539.82 319.93L517.43 282.74C517.43 282.74 476.43 279.74 474.55 282.74C472.67 285.74 451.02 295.64 451.02 295.64L444.57 316.14Z" fill="black"/>
<path d="M444.57 315.38C444.57 315.38 499.98 307.79 501.49 319.17C503 330.55 551.96 349.17 551.96 349.17L539.82 319.17L517.43 281.99C517.43 281.99 476.43 278.99 474.55 281.99C472.67 284.99 451.02 294.89 451.02 294.89L444.57 315.38Z" fill="#965D7B"/>
<path opacity="0.1" d="M540.99 396.49C543.684 399.717 545.588 403.528 546.55 407.62C547.47 411.53 547.5 415.62 548.38 419.54C550.25 427.89 555.77 434.91 561.54 441.23C563.407 443.519 565.686 445.439 568.26 446.89C570.9 448.19 574.26 448.46 576.71 446.89C574.39 444.99 573.13 442.08 572.3 439.19C571.132 435.161 570.612 430.972 570.76 426.78C571.01 419.78 573.06 412.39 570.15 406.01C568.47 402.33 565.34 399.53 562.15 397.01C559.933 395.208 557.541 393.633 555.01 392.31C550.3 389.96 544.89 388.93 539.69 388.42C532.91 387.72 538.84 393.91 540.99 396.49Z" fill="black"/>
<path d="M540.99 395.34C543.687 398.572 545.591 402.391 546.55 406.49C547.47 410.4 547.5 414.49 548.38 418.41C550.25 426.76 555.77 433.78 561.54 440.1C563.407 442.389 565.686 444.309 568.26 445.76C570.9 447.06 574.26 447.33 576.71 445.76C574.39 443.86 573.13 440.95 572.3 438.06C571.132 434.031 570.612 429.842 570.76 425.65C571.01 418.65 573.06 411.26 570.15 404.88C568.47 401.2 565.34 398.4 562.15 395.88C559.933 394.078 557.541 392.503 555.01 391.18C550.3 388.83 544.89 387.8 539.69 387.29C532.91 386.58 538.84 392.77 540.99 395.34Z" fill="#965D7B"/>
<path opacity="0.1" d="M516.18 165.41H509.3C509.951 165.44 510.601 165.337 511.211 165.109C511.821 164.88 512.378 164.53 512.849 164.08C513.32 163.63 513.695 163.089 513.951 162.49C514.207 161.891 514.339 161.246 514.339 160.595C514.339 159.944 514.207 159.299 513.951 158.7C513.695 158.101 513.32 157.56 512.849 157.11C512.378 156.66 511.821 156.31 511.211 156.082C510.601 155.853 509.951 155.75 509.3 155.78H453.57C452.331 155.837 451.161 156.368 450.304 157.265C449.447 158.162 448.969 159.355 448.969 160.595C448.969 161.835 449.447 163.028 450.304 163.925C451.161 164.822 452.331 165.354 453.57 165.41H460.45C459.799 165.38 459.149 165.483 458.539 165.712C457.929 165.94 457.372 166.29 456.901 166.74C456.429 167.19 456.055 167.731 455.798 168.33C455.542 168.929 455.41 169.574 455.41 170.225C455.41 170.876 455.542 171.521 455.798 172.12C456.055 172.719 456.429 173.26 456.901 173.71C457.372 174.16 457.929 174.51 458.539 174.739C459.149 174.967 459.799 175.07 460.45 175.04H450.82C450.169 175.01 449.519 175.113 448.909 175.342C448.299 175.57 447.742 175.92 447.271 176.37C446.799 176.82 446.425 177.361 446.168 177.96C445.912 178.559 445.78 179.204 445.78 179.855C445.78 180.506 445.912 181.151 446.168 181.75C446.425 182.349 446.799 182.89 447.271 183.34C447.742 183.79 448.299 184.14 448.909 184.369C449.519 184.597 450.169 184.7 450.82 184.67H506.55C507.201 184.7 507.851 184.597 508.461 184.369C509.071 184.14 509.628 183.79 510.099 183.34C510.57 182.89 510.945 182.349 511.201 181.75C511.457 181.151 511.589 180.506 511.589 179.855C511.589 179.204 511.457 178.559 511.201 177.96C510.945 177.361 510.57 176.82 510.099 176.37C509.628 175.92 509.071 175.57 508.461 175.342C507.851 175.113 507.201 175.01 506.55 175.04H516.18C516.831 175.07 517.481 174.967 518.091 174.739C518.701 174.51 519.258 174.16 519.729 173.71C520.2 173.26 520.575 172.719 520.831 172.12C521.087 171.521 521.219 170.876 521.219 170.225C521.219 169.574 521.087 168.929 520.831 168.33C520.575 167.731 520.2 167.19 519.729 166.74C519.258 166.29 518.701 165.94 518.091 165.712C517.481 165.483 516.831 165.38 516.18 165.41V165.41Z" fill="#252223"/>
<path opacity="0.1" d="M786.18 165.41H779.3C779.951 165.44 780.601 165.337 781.211 165.109C781.821 164.88 782.378 164.53 782.849 164.08C783.32 163.63 783.695 163.089 783.951 162.49C784.207 161.891 784.339 161.246 784.339 160.595C784.339 159.944 784.207 159.299 783.951 158.7C783.695 158.101 783.32 157.56 782.849 157.11C782.378 156.66 781.821 156.31 781.211 156.082C780.601 155.853 779.951 155.75 779.3 155.78H723.57C722.331 155.837 721.161 156.368 720.304 157.265C719.447 158.162 718.969 159.355 718.969 160.595C718.969 161.835 719.447 163.028 720.304 163.925C721.161 164.822 722.331 165.354 723.57 165.41H730.45C729.799 165.38 729.149 165.483 728.539 165.712C727.929 165.94 727.372 166.29 726.901 166.74C726.429 167.19 726.055 167.731 725.798 168.33C725.542 168.929 725.41 169.574 725.41 170.225C725.41 170.876 725.542 171.521 725.798 172.12C726.055 172.719 726.429 173.26 726.901 173.71C727.372 174.16 727.929 174.51 728.539 174.739C729.149 174.967 729.799 175.07 730.45 175.04H720.82C720.169 175.01 719.519 175.113 718.909 175.342C718.299 175.57 717.742 175.92 717.271 176.37C716.799 176.82 716.425 177.361 716.168 177.96C715.912 178.559 715.78 179.204 715.78 179.855C715.78 180.506 715.912 181.151 716.168 181.75C716.425 182.349 716.799 182.89 717.271 183.34C717.742 183.79 718.299 184.14 718.909 184.369C719.519 184.597 720.169 184.7 720.82 184.67H776.55C777.201 184.7 777.851 184.597 778.461 184.369C779.071 184.14 779.628 183.79 780.099 183.34C780.57 182.89 780.945 182.349 781.201 181.75C781.457 181.151 781.589 180.506 781.589 179.855C781.589 179.204 781.457 178.559 781.201 177.96C780.945 177.361 780.57 176.82 780.099 176.37C779.628 175.92 779.071 175.57 778.461 175.342C777.851 175.113 777.201 175.01 776.55 175.04H786.18C786.831 175.07 787.481 174.967 788.091 174.739C788.701 174.51 789.258 174.16 789.729 173.71C790.2 173.26 790.575 172.719 790.831 172.12C791.087 171.521 791.219 170.876 791.219 170.225C791.219 169.574 791.087 168.929 790.831 168.33C790.575 167.731 790.2 167.19 789.729 166.74C789.258 166.29 788.701 165.94 788.091 165.712C787.481 165.483 786.831 165.38 786.18 165.41V165.41Z" fill="#252223"/>
<path opacity="0.1" d="M211.18 288.41H204.3C204.951 288.44 205.601 288.337 206.211 288.108C206.821 287.88 207.378 287.53 207.849 287.08C208.32 286.63 208.695 286.089 208.951 285.49C209.207 284.891 209.339 284.246 209.339 283.595C209.339 282.944 209.207 282.299 208.951 281.7C208.695 281.101 208.32 280.56 207.849 280.11C207.378 279.66 206.821 279.31 206.211 279.081C205.601 278.853 204.951 278.75 204.3 278.78H148.57C147.331 278.836 146.161 279.368 145.304 280.265C144.447 281.162 143.969 282.355 143.969 283.595C143.969 284.835 144.447 286.028 145.304 286.925C146.161 287.822 147.331 288.354 148.57 288.41H155.45C154.211 288.466 153.041 288.998 152.184 289.895C151.327 290.792 150.849 291.985 150.849 293.225C150.849 294.465 151.327 295.658 152.184 296.555C153.041 297.452 154.211 297.983 155.45 298.04H145.82C145.169 298.01 144.519 298.113 143.909 298.341C143.299 298.57 142.742 298.92 142.271 299.37C141.8 299.82 141.425 300.361 141.168 300.96C140.912 301.559 140.78 302.204 140.78 302.855C140.78 303.506 140.912 304.151 141.168 304.75C141.425 305.349 141.8 305.89 142.271 306.34C142.742 306.79 143.299 307.14 143.909 307.368C144.519 307.597 145.169 307.7 145.82 307.67H201.55C202.201 307.7 202.851 307.597 203.461 307.368C204.071 307.14 204.628 306.79 205.099 306.34C205.57 305.89 205.945 305.349 206.201 304.75C206.457 304.151 206.589 303.506 206.589 302.855C206.589 302.204 206.457 301.559 206.201 300.96C205.945 300.361 205.57 299.82 205.099 299.37C204.628 298.92 204.071 298.57 203.461 298.341C202.851 298.113 202.201 298.01 201.55 298.04H211.18C212.419 297.983 213.588 297.452 214.445 296.555C215.302 295.658 215.78 294.465 215.78 293.225C215.78 291.985 215.302 290.792 214.445 289.895C213.588 288.998 212.419 288.466 211.18 288.41V288.41Z" fill="#252223"/>
<path d="M788.73 675.12C788.73 675.12 764.06 591.36 793.36 529.71C805.66 503.84 809.74 474.79 804.06 446.71C801.344 433.378 797.411 420.323 792.31 407.71" stroke="#535461" stroke-width="2" stroke-miterlimit="10"/>
<path d="M810.5 368.8C810.5 379.07 791.91 408.8 791.91 408.8C791.91 408.8 773.32 379.03 773.32 368.8C773.262 366.323 773.701 363.86 774.609 361.555C775.517 359.249 776.877 357.149 778.608 355.377C780.34 353.605 782.408 352.197 784.691 351.235C786.975 350.274 789.427 349.779 791.905 349.779C794.383 349.779 796.835 350.274 799.118 351.235C801.402 352.197 803.47 353.605 805.202 355.377C806.933 357.149 808.293 359.249 809.201 361.555C810.109 363.86 810.547 366.323 810.49 368.8H810.5Z" fill="#6F7CB2"/>
<path d="M841.26 425.66C835.68 434.28 803.9 449.16 803.9 449.16C803.9 449.16 804.48 414.07 810.06 405.45C812.797 401.447 816.99 398.671 821.744 397.716C826.499 396.761 831.438 397.702 835.509 400.337C839.58 402.973 842.46 407.095 843.534 411.824C844.608 416.553 843.792 421.514 841.26 425.65V425.66Z" fill="#6F7CB2"/>
<path d="M839.91 522.83C830.74 527.45 795.8 524.26 795.8 524.26C795.8 524.26 814.01 494.26 823.18 489.64C825.365 488.483 827.759 487.773 830.221 487.552C832.684 487.332 835.166 487.604 837.521 488.355C839.877 489.105 842.06 490.318 843.941 491.922C845.823 493.526 847.365 495.489 848.479 497.697C849.592 499.904 850.254 502.312 850.426 504.778C850.597 507.244 850.275 509.72 849.478 512.061C848.681 514.401 847.425 516.559 845.784 518.408C844.143 520.258 842.149 521.761 839.92 522.83H839.91Z" fill="#6F7CB2"/>
<path d="M822.34 596.12C814.09 602.22 779.1 604.98 779.1 604.98C779.1 604.98 791.98 572.34 800.23 566.23C802.191 564.755 804.425 563.683 806.802 563.075C809.179 562.468 811.654 562.337 814.082 562.69C816.51 563.044 818.844 563.874 820.95 565.134C823.055 566.394 824.891 568.059 826.35 570.031C827.809 572.004 828.863 574.246 829.452 576.628C830.04 579.01 830.152 581.486 829.779 583.911C829.406 586.336 828.557 588.664 827.28 590.759C826.003 592.855 824.324 594.677 822.34 596.12V596.12Z" fill="#6F7CB2"/>
<path d="M764.87 451.15C772.23 458.3 806.54 465.71 806.54 465.71C806.54 465.71 798.14 431.64 790.78 424.48C787.219 421.182 782.509 419.407 777.658 419.536C772.806 419.664 768.196 421.684 764.814 425.165C761.432 428.647 759.546 433.312 759.558 438.166C759.57 443.02 761.48 447.676 764.88 451.14L764.87 451.15Z" fill="#6F7CB2"/>
<path d="M745.41 537.12C754.58 541.74 789.52 538.55 789.52 538.55C789.52 538.55 771.31 508.55 762.14 503.93C759.955 502.773 757.561 502.063 755.099 501.842C752.636 501.622 750.154 501.894 747.798 502.645C745.442 503.395 743.26 504.608 741.378 506.212C739.497 507.816 737.954 509.779 736.841 511.986C735.727 514.194 735.066 516.602 734.894 519.068C734.722 521.535 735.045 524.01 735.842 526.351C736.639 528.691 737.894 530.849 739.536 532.698C741.177 534.548 743.171 536.051 745.4 537.12H745.41Z" fill="#6F7CB2"/>
<path d="M737.96 623.28C746.21 629.38 781.2 632.14 781.2 632.14C781.2 632.14 768.32 599.49 760.06 593.39C758.099 591.915 755.866 590.843 753.488 590.235C751.111 589.628 748.637 589.497 746.209 589.85C743.78 590.204 741.446 591.034 739.341 592.294C737.235 593.554 735.4 595.219 733.94 597.191C732.481 599.164 731.427 601.406 730.838 603.788C730.25 606.17 730.139 608.646 730.512 611.071C730.884 613.496 731.734 615.824 733.01 617.919C734.287 620.015 735.966 621.837 737.95 623.28H737.96Z" fill="#6F7CB2"/>
<path d="M810.5 368.8C810.5 379.07 791.91 408.8 791.91 408.8C791.91 408.8 773.32 379.03 773.32 368.8C773.262 366.323 773.701 363.86 774.609 361.555C775.517 359.249 776.877 357.149 778.608 355.377C780.34 353.605 782.408 352.197 784.691 351.235C786.975 350.274 789.427 349.779 791.905 349.779C794.383 349.779 796.835 350.274 799.118 351.235C801.402 352.197 803.47 353.605 805.202 355.377C806.933 357.149 808.293 359.249 809.201 361.555C810.109 363.86 810.547 366.323 810.49 368.8H810.5Z" fill="#FC6681"/>
<path d="M841.26 425.66C835.68 434.28 803.9 449.16 803.9 449.16C803.9 449.16 804.48 414.07 810.06 405.45C812.797 401.447 816.99 398.671 821.744 397.716C826.499 396.761 831.438 397.702 835.509 400.337C839.58 402.973 842.46 407.095 843.534 411.824C844.608 416.553 843.792 421.514 841.26 425.65V425.66Z" fill="#FC6681"/>
<path d="M839.91 522.83C830.74 527.45 795.8 524.26 795.8 524.26C795.8 524.26 814.01 494.26 823.18 489.64C825.365 488.483 827.759 487.773 830.221 487.552C832.684 487.332 835.166 487.604 837.521 488.355C839.877 489.105 842.06 490.318 843.941 491.922C845.823 493.526 847.365 495.489 848.479 497.697C849.592 499.904 850.254 502.312 850.426 504.778C850.597 507.244 850.275 509.72 849.478 512.061C848.681 514.401 847.425 516.559 845.784 518.408C844.143 520.258 842.149 521.761 839.92 522.83H839.91Z" fill="#FC6681"/>
<path d="M822.34 596.12C814.09 602.22 779.1 604.98 779.1 604.98C779.1 604.98 791.98 572.34 800.23 566.23C802.191 564.755 804.425 563.683 806.802 563.075C809.179 562.468 811.654 562.337 814.082 562.69C816.51 563.044 818.844 563.874 820.95 565.134C823.055 566.394 824.891 568.059 826.35 570.031C827.809 572.004 828.863 574.246 829.452 576.628C830.04 579.01 830.152 581.486 829.779 583.911C829.406 586.336 828.557 588.664 827.28 590.759C826.003 592.855 824.324 594.677 822.34 596.12V596.12Z" fill="#FC6681"/>
<path d="M764.87 451.15C772.23 458.3 806.54 465.71 806.54 465.71C806.54 465.71 798.14 431.64 790.78 424.48C787.219 421.182 782.509 419.407 777.658 419.536C772.806 419.664 768.196 421.684 764.814 425.165C761.432 428.647 759.546 433.312 759.558 438.166C759.57 443.02 761.48 447.676 764.88 451.14L764.87 451.15Z" fill="#FC6681"/>
<path d="M745.41 537.12C754.58 541.74 789.52 538.55 789.52 538.55C789.52 538.55 771.31 508.55 762.14 503.93C759.955 502.773 757.561 502.063 755.099 501.842C752.636 501.622 750.154 501.894 747.798 502.645C745.442 503.395 743.26 504.608 741.378 506.212C739.497 507.816 737.954 509.779 736.841 511.986C735.727 514.194 735.066 516.602 734.894 519.068C734.722 521.535 735.045 524.01 735.842 526.351C736.639 528.691 737.894 530.849 739.536 532.698C741.177 534.548 743.171 536.051 745.4 537.12H745.41Z" fill="#FC6681"/>
<path d="M737.96 623.28C746.21 629.38 781.2 632.14 781.2 632.14C781.2 632.14 768.32 599.49 760.06 593.39C758.099 591.915 755.866 590.843 753.488 590.235C751.111 589.628 748.637 589.497 746.209 589.85C743.78 590.204 741.446 591.034 739.341 592.294C737.235 593.554 735.4 595.219 733.94 597.191C732.481 599.164 731.427 601.406 730.838 603.788C730.25 606.17 730.139 608.646 730.512 611.071C730.884 613.496 731.734 615.824 733.01 617.919C734.287 620.015 735.966 621.837 737.95 623.28H737.96Z" fill="#FC6681"/>
<path d="M206.73 673.12C206.73 673.12 182.06 589.36 211.36 527.71C223.66 501.84 227.74 472.79 222.06 444.71C219.344 431.378 215.411 418.323 210.31 405.71" stroke="#535461" stroke-width="2" stroke-miterlimit="10"/>
<path d="M228.5 366.8C228.5 377.07 209.91 406.8 209.91 406.8C209.91 406.8 191.32 377.03 191.32 366.8C191.262 364.323 191.701 361.86 192.609 359.555C193.517 357.249 194.877 355.149 196.608 353.377C198.34 351.605 200.408 350.197 202.691 349.235C204.975 348.274 207.427 347.779 209.905 347.779C212.382 347.779 214.835 348.274 217.118 349.235C219.402 350.197 221.47 351.605 223.202 353.377C224.933 355.149 226.293 357.249 227.201 359.555C228.109 361.86 228.547 364.323 228.49 366.8H228.5Z" fill="#6F7CB2"/>
<path d="M259.26 423.66C253.68 432.28 221.9 447.16 221.9 447.16C221.9 447.16 222.48 412.07 228.06 403.45C230.797 399.447 234.99 396.671 239.744 395.716C244.499 394.761 249.438 395.702 253.509 398.337C257.58 400.973 260.46 405.095 261.534 409.824C262.609 414.553 261.792 419.514 259.26 423.65V423.66Z" fill="#6F7CB2"/>
<path d="M257.91 520.83C248.74 525.45 213.8 522.26 213.8 522.26C213.8 522.26 232.01 492.26 241.18 487.64C245.567 485.536 250.605 485.235 255.212 486.804C259.818 488.373 263.626 491.685 265.817 496.03C268.009 500.375 268.409 505.406 266.933 510.043C265.456 514.679 262.22 518.552 257.92 520.83H257.91Z" fill="#6F7CB2"/>
<path d="M240.34 594.12C232.09 600.22 197.1 602.98 197.1 602.98C197.1 602.98 209.98 570.34 218.23 564.23C220.191 562.755 222.425 561.683 224.802 561.075C227.179 560.468 229.654 560.337 232.082 560.69C234.51 561.044 236.844 561.874 238.95 563.134C241.055 564.394 242.891 566.059 244.35 568.031C245.809 570.004 246.863 572.246 247.452 574.628C248.04 577.01 248.151 579.486 247.779 581.911C247.406 584.336 246.557 586.664 245.28 588.759C244.003 590.855 242.324 592.677 240.34 594.12V594.12Z" fill="#6F7CB2"/>
<path d="M182.87 449.15C190.23 456.3 224.54 463.71 224.54 463.71C224.54 463.71 216.14 429.64 208.78 422.48C205.219 419.182 200.509 417.407 195.658 417.536C190.806 417.664 186.196 419.684 182.814 423.165C179.432 426.647 177.546 431.312 177.558 436.166C177.57 441.02 179.48 445.676 182.88 449.14L182.87 449.15Z" fill="#6F7CB2"/>
<path d="M163.41 535.12C172.58 539.74 207.52 536.55 207.52 536.55C207.52 536.55 189.31 506.55 180.14 501.93C175.752 499.826 170.715 499.525 166.108 501.094C161.502 502.663 157.694 505.975 155.502 510.32C153.311 514.665 152.911 519.696 154.387 524.333C155.864 528.969 159.1 532.842 163.4 535.12H163.41Z" fill="#6F7CB2"/>
<path d="M155.96 621.28C164.21 627.38 199.2 630.14 199.2 630.14C199.2 630.14 186.32 597.49 178.06 591.39C176.099 589.915 173.865 588.843 171.488 588.235C169.11 587.628 166.636 587.497 164.208 587.85C161.78 588.204 159.446 589.034 157.34 590.294C155.235 591.554 153.399 593.219 151.94 595.191C150.481 597.164 149.426 599.406 148.838 601.788C148.249 604.17 148.138 606.646 148.511 609.071C148.884 611.496 149.733 613.824 151.01 615.919C152.287 618.015 153.965 619.837 155.95 621.28H155.96Z" fill="#6F7CB2"/>
<path d="M228.5 366.8C228.5 377.07 209.91 406.8 209.91 406.8C209.91 406.8 191.32 377.03 191.32 366.8C191.262 364.323 191.701 361.86 192.609 359.555C193.517 357.249 194.877 355.149 196.608 353.377C198.34 351.605 200.408 350.197 202.691 349.235C204.975 348.274 207.427 347.779 209.905 347.779C212.382 347.779 214.835 348.274 217.118 349.235C219.402 350.197 221.47 351.605 223.202 353.377C224.933 355.149 226.293 357.249 227.201 359.555C228.109 361.86 228.547 364.323 228.49 366.8H228.5Z" fill="#FC6681"/>
<path d="M259.26 423.66C253.68 432.28 221.9 447.16 221.9 447.16C221.9 447.16 222.48 412.07 228.06 403.45C230.797 399.447 234.99 396.671 239.744 395.716C244.499 394.761 249.438 395.702 253.509 398.337C257.58 400.973 260.46 405.095 261.534 409.824C262.609 414.553 261.792 419.514 259.26 423.65V423.66Z" fill="#FC6681"/>
<path d="M257.91 520.83C248.74 525.45 213.8 522.26 213.8 522.26C213.8 522.26 232.01 492.26 241.18 487.64C245.567 485.536 250.605 485.235 255.212 486.804C259.818 488.373 263.626 491.685 265.817 496.03C268.009 500.375 268.409 505.406 266.933 510.043C265.456 514.679 262.22 518.552 257.92 520.83H257.91Z" fill="#FC6681"/>
<path d="M240.34 594.12C232.09 600.22 197.1 602.98 197.1 602.98C197.1 602.98 209.98 570.34 218.23 564.23C220.191 562.755 222.425 561.683 224.802 561.075C227.179 560.468 229.654 560.337 232.082 560.69C234.51 561.044 236.844 561.874 238.95 563.134C241.055 564.394 242.891 566.059 244.35 568.031C245.809 570.004 246.863 572.246 247.452 574.628C248.04 577.01 248.151 579.486 247.779 581.911C247.406 584.336 246.557 586.664 245.28 588.759C244.003 590.855 242.324 592.677 240.34 594.12V594.12Z" fill="#FC6681"/>
<path d="M182.87 449.15C190.23 456.3 224.54 463.71 224.54 463.71C224.54 463.71 216.14 429.64 208.78 422.48C205.219 419.182 200.509 417.407 195.658 417.536C190.806 417.664 186.196 419.684 182.814 423.165C179.432 426.647 177.546 431.312 177.558 436.166C177.57 441.02 179.48 445.676 182.88 449.14L182.87 449.15Z" fill="#FC6681"/>
<path d="M163.41 535.12C172.58 539.74 207.52 536.55 207.52 536.55C207.52 536.55 189.31 506.55 180.14 501.93C175.752 499.826 170.715 499.525 166.108 501.094C161.502 502.663 157.694 505.975 155.502 510.32C153.311 514.665 152.911 519.696 154.387 524.333C155.864 528.969 159.1 532.842 163.4 535.12H163.41Z" fill="#FC6681"/>
<path d="M155.96 621.28C164.21 627.38 199.2 630.14 199.2 630.14C199.2 630.14 186.32 597.49 178.06 591.39C176.099 589.915 173.865 588.843 171.488 588.235C169.11 587.628 166.636 587.497 164.208 587.85C161.78 588.204 159.446 589.034 157.34 590.294C155.235 591.554 153.399 593.219 151.94 595.191C150.481 597.164 149.426 599.406 148.838 601.788C148.249 604.17 148.138 606.646 148.511 609.071C148.884 611.496 149.733 613.824 151.01 615.919C152.287 618.015 153.965 619.837 155.95 621.28H155.96Z" fill="#FC6681"/>
</g>
<defs>
<linearGradient id="paint0_linear" x1="492.01" y1="692.98" x2="492.01" y2="259.98" gradientUnits="userSpaceOnUse">
<stop stop-color="#808080" stop-opacity="0.25"/>
<stop offset="0.54" stop-color="#808080" stop-opacity="0.12"/>
<stop offset="1" stop-color="#808080" stop-opacity="0.1"/>
</linearGradient>
<clipPath id="clip0">
<rect width="985" height="692.97" fill="white"/>
</clipPath>
</defs>
</svg>
