<svg width="1341" height="804" viewBox="0 0 1341 804" fill="none" xmlns="http://www.w3.org/2000/svg">
<g clip-path="url(#clip0)">
<path d="M1137 615.059C1137.5 605.465 1141.66 596.429 1148.62 589.816C1155.58 583.202 1164.81 579.515 1174.41 579.515C1175.55 579.515 1176.67 579.574 1177.78 579.674C1182.16 572.136 1188.43 565.88 1195.98 561.53C1203.53 557.181 1212.08 554.889 1220.79 554.885C1229.5 554.881 1238.05 557.164 1245.6 561.507C1253.15 565.85 1259.44 572.1 1263.82 579.633C1264.76 579.562 1265.7 579.515 1266.66 579.515C1276.25 579.515 1285.48 583.202 1292.45 589.816C1299.41 596.429 1303.57 605.465 1304.07 615.059" fill="#F2F2F2"/>
<path d="M1144.8 612.174C1145.3 602.58 1149.46 593.544 1156.42 586.931C1163.38 580.317 1172.61 576.63 1182.21 576.63C1183.35 576.63 1184.47 576.689 1185.59 576.789C1189.96 569.251 1196.24 562.995 1203.78 558.645C1211.33 554.296 1219.88 552.004 1228.59 552C1237.3 551.996 1245.86 554.279 1253.41 558.622C1260.96 562.965 1267.24 569.215 1271.62 576.748C1272.56 576.677 1273.5 576.63 1274.46 576.63C1284.06 576.63 1293.29 580.317 1300.25 586.931C1307.21 593.544 1311.37 602.58 1311.87 612.174" stroke="#3F3D56" stroke-miterlimit="10"/>
<path d="M-78 343.059C-77.4985 333.465 -73.3385 324.429 -66.3781 317.816C-59.4178 311.202 -50.1877 307.515 -40.5917 307.515C-39.4532 307.515 -38.329 307.574 -37.2164 307.674C-32.8404 300.136 -26.5658 293.88 -19.0193 289.53C-11.4728 285.181 -2.9185 282.889 5.78928 282.885C14.4971 282.881 23.0535 285.164 30.6041 289.507C38.1547 293.85 44.4352 300.1 48.8183 307.633C49.757 307.562 50.7019 307.515 51.6586 307.515C61.2546 307.515 70.4846 311.202 77.445 317.816C84.4054 324.429 88.5654 333.465 89.0669 343.059" fill="#F2F2F2"/>
<path d="M-70.1979 340.174C-69.6964 330.58 -65.5364 321.544 -58.576 314.931C-51.6156 308.317 -42.3856 304.63 -32.7896 304.63C-31.6511 304.63 -30.5269 304.689 -29.4143 304.789C-25.0383 297.251 -18.7637 290.995 -11.2172 286.645C-3.67072 282.296 4.88358 280.004 13.5914 280C22.2991 279.996 30.8556 282.279 38.4062 286.622C45.9568 290.965 52.2373 297.215 56.6204 304.748C57.559 304.677 58.504 304.63 59.4607 304.63C69.0567 304.63 78.2867 308.317 85.2471 314.931C92.2075 321.544 96.3674 330.58 96.8689 340.174" stroke="#3F3D56" stroke-miterlimit="10"/>
<path d="M391.869 229.059C391.367 219.465 387.207 210.429 380.247 203.816C373.287 197.202 364.057 193.515 354.461 193.515C353.322 193.515 352.198 193.574 351.085 193.674C346.709 186.136 340.435 179.88 332.888 175.53C325.342 171.181 316.787 168.889 308.08 168.885C299.372 168.881 290.815 171.164 283.265 175.507C275.714 179.85 269.434 186.1 265.051 193.633C264.112 193.562 263.167 193.515 262.21 193.515C252.614 193.515 243.384 197.202 236.424 203.816C229.463 210.429 225.304 219.465 224.802 229.059" fill="#F2F2F2"/>
<path d="M384.067 226.174C383.565 216.58 379.405 207.544 372.445 200.931C365.485 194.317 356.255 190.63 346.659 190.63C345.52 190.63 344.396 190.689 343.283 190.789C338.907 183.251 332.633 176.995 325.086 172.645C317.54 168.296 308.985 166.004 300.278 166C291.57 165.996 283.013 168.279 275.463 172.622C267.912 176.965 261.632 183.215 257.249 190.748C256.31 190.677 255.365 190.63 254.408 190.63C244.812 190.63 235.582 194.317 228.622 200.931C221.662 207.544 217.502 216.58 217 226.174" stroke="#3F3D56" stroke-miterlimit="10"/>
<path d="M799 232.059C799.502 222.465 803.661 213.429 810.622 206.816C817.582 200.202 826.812 196.515 836.408 196.515C837.547 196.515 838.671 196.574 839.784 196.674C844.16 189.136 850.434 182.88 857.981 178.53C865.527 174.181 874.082 171.889 882.789 171.885C891.497 171.881 900.054 174.164 907.604 178.507C915.155 182.85 921.435 189.1 925.818 196.633C926.757 196.562 927.702 196.515 928.659 196.515C938.255 196.515 947.485 200.202 954.445 206.816C961.405 213.429 965.565 222.465 966.067 232.059" fill="#F2F2F2"/>
<path d="M806.802 229.174C807.304 219.58 811.464 210.544 818.424 203.931C825.384 197.317 834.615 193.63 844.211 193.63C845.349 193.63 846.473 193.689 847.586 193.789C851.962 186.251 858.236 179.995 865.783 175.645C873.329 171.296 881.884 169.004 890.591 169C899.299 168.996 907.856 171.279 915.406 175.622C922.957 179.965 929.237 186.215 933.621 193.748C934.559 193.677 935.504 193.63 936.461 193.63C946.057 193.63 955.287 197.317 962.247 203.931C969.208 210.544 973.368 219.58 973.869 229.174" stroke="#3F3D56" stroke-miterlimit="10"/>
<path d="M1319.87 278.059C1319.37 268.465 1315.21 259.429 1308.25 252.816C1301.29 246.202 1292.06 242.515 1282.46 242.515C1281.32 242.515 1280.2 242.574 1279.09 242.674C1274.71 235.136 1268.44 228.88 1260.89 224.53C1253.34 220.181 1244.79 217.889 1236.08 217.885C1227.37 217.881 1218.82 220.164 1211.27 224.507C1203.71 228.85 1197.43 235.1 1193.05 242.633C1192.11 242.562 1191.17 242.515 1190.21 242.515C1180.61 242.515 1171.38 246.202 1164.42 252.816C1157.46 259.429 1153.3 268.465 1152.8 278.059" fill="#F2F2F2"/>
<path d="M1312.07 275.174C1311.57 265.58 1307.41 256.544 1300.45 249.931C1293.48 243.317 1284.25 239.63 1274.66 239.63C1273.52 239.63 1272.4 239.689 1271.28 239.789C1266.91 232.251 1260.63 225.995 1253.09 221.645C1245.54 217.296 1236.99 215.004 1228.28 215C1219.57 214.996 1211.01 217.279 1203.46 221.622C1195.91 225.965 1189.63 232.215 1185.25 239.748C1184.31 239.677 1183.37 239.63 1182.41 239.63C1172.81 239.63 1163.58 243.317 1156.62 249.931C1149.66 256.544 1145.5 265.58 1145 275.174" stroke="#3F3D56" stroke-miterlimit="10"/>
<path d="M882.869 765.059C882.368 755.465 878.208 746.429 871.247 739.816C864.287 733.202 855.057 729.515 845.461 729.515C844.322 729.515 843.198 729.574 842.086 729.674C837.71 722.136 831.435 715.88 823.889 711.53C816.342 707.181 807.788 704.889 799.08 704.885C790.372 704.881 781.816 707.164 774.265 711.507C766.714 715.85 760.434 722.1 756.051 729.633C755.112 729.562 754.167 729.515 753.211 729.515C743.615 729.515 734.385 733.202 727.424 739.816C720.464 746.429 716.304 755.465 715.802 765.059" fill="#F2F2F2"/>
<path d="M875.067 762.174C874.565 752.58 870.405 743.544 863.445 736.931C856.485 730.317 847.255 726.63 837.659 726.63C836.52 726.63 835.396 726.689 834.283 726.789C829.907 719.251 823.633 712.995 816.086 708.645C808.54 704.296 799.985 702.004 791.278 702C782.57 701.996 774.013 704.279 766.463 708.622C758.912 712.965 752.632 719.215 748.249 726.748C747.31 726.677 746.365 726.63 745.408 726.63C735.812 726.63 726.582 730.317 719.622 736.931C712.662 743.544 708.502 752.58 708 762.174" stroke="#3F3D56" stroke-miterlimit="10"/>
<path d="M50 737.059C50.5015 727.465 54.6615 718.429 61.6219 711.816C68.5822 705.202 77.8123 701.515 87.4083 701.515C88.5468 701.515 89.671 701.574 90.7836 701.674C95.1596 694.136 101.434 687.88 108.981 683.53C116.527 679.181 125.081 676.889 133.789 676.885C142.497 676.881 151.054 679.164 158.604 683.507C166.155 687.85 172.435 694.1 176.818 701.633C177.757 701.562 178.702 701.515 179.659 701.515C189.255 701.515 198.485 705.202 205.445 711.816C212.405 718.429 216.565 727.465 217.067 737.059" fill="#F2F2F2"/>
<path d="M57.8021 734.174C58.3036 724.58 62.4636 715.544 69.424 708.931C76.3844 702.317 85.6144 698.63 95.2104 698.63C96.3489 698.63 97.4731 698.689 98.5857 698.789C102.962 691.251 109.236 684.995 116.783 680.645C124.329 676.296 132.884 674.004 141.591 674C150.299 673.996 158.856 676.279 166.406 680.622C173.957 684.965 180.237 691.215 184.62 698.748C185.559 698.677 186.504 698.63 187.461 698.63C197.057 698.63 206.287 702.317 213.247 708.931C220.207 715.544 224.367 724.58 224.869 734.174" stroke="#3F3D56" stroke-miterlimit="10"/>
</g>
<defs>
<clipPath id="clip0">
<rect width="1341" height="804" fill="white"/>
</clipPath>
</defs>
</svg>
