<svg width="1691" height="1128" viewBox="0 0 1691 1128" fill="none" xmlns="http://www.w3.org/2000/svg">
<rect width="1691" height="1128" fill="white"/>
<path d="M1185 638.059C1185.5 628.465 1189.66 619.429 1196.62 612.816C1203.58 606.202 1212.81 602.515 1222.41 602.515C1223.55 602.515 1224.67 602.574 1225.78 602.674C1230.16 595.136 1236.43 588.88 1243.98 584.53C1251.53 580.181 1260.08 577.889 1268.79 577.885C1277.5 577.881 1286.05 580.164 1293.6 584.507C1301.15 588.85 1307.44 595.1 1311.82 602.633C1312.76 602.562 1313.7 602.515 1314.66 602.515C1324.25 602.515 1333.48 606.202 1340.45 612.816C1347.41 619.429 1351.57 628.465 1352.07 638.059" fill="#F2F2F2"/>
<path d="M1192.8 635.174C1193.3 625.58 1197.46 616.544 1204.42 609.931C1211.38 603.317 1220.61 599.63 1230.21 599.63C1231.35 599.63 1232.47 599.689 1233.59 599.789C1237.96 592.251 1244.24 585.995 1251.78 581.645C1259.33 577.296 1267.88 575.004 1276.59 575C1285.3 574.996 1293.86 577.279 1301.41 581.622C1308.96 585.965 1315.24 592.215 1319.62 599.748C1320.56 599.677 1321.5 599.63 1322.46 599.63C1332.06 599.63 1341.29 603.317 1348.25 609.931C1355.21 616.544 1359.37 625.58 1359.87 635.174" stroke="#3F3D56" stroke-miterlimit="10"/>
<path d="M197 547.059C197.502 537.465 201.661 528.429 208.622 521.816C215.582 515.202 224.812 511.515 234.408 511.515C235.547 511.515 236.671 511.574 237.784 511.674C242.16 504.136 248.434 497.88 255.981 493.53C263.527 489.181 272.081 486.889 280.789 486.885C289.497 486.881 298.054 489.164 305.604 493.507C313.155 497.85 319.435 504.1 323.818 511.633C324.757 511.562 325.702 511.515 326.659 511.515C336.255 511.515 345.485 515.202 352.445 521.816C359.405 528.429 363.565 537.465 364.067 547.059" fill="#F2F2F2"/>
<path d="M204.802 544.174C205.304 534.58 209.464 525.544 216.424 518.931C223.384 512.317 232.615 508.63 242.211 508.63C243.349 508.63 244.473 508.689 245.586 508.789C249.962 501.251 256.236 494.995 263.783 490.645C271.329 486.296 279.884 484.004 288.591 484C297.299 483.996 305.856 486.279 313.406 490.622C320.957 494.965 327.237 501.215 331.62 508.748C332.559 508.677 333.504 508.63 334.461 508.63C344.057 508.63 353.287 512.317 360.247 518.931C367.208 525.544 371.368 534.58 371.869 544.174" stroke="#3F3D56" stroke-miterlimit="10"/>
<path d="M332 410.059C332.502 400.465 336.661 391.429 343.622 384.816C350.582 378.202 359.812 374.515 369.408 374.515C370.547 374.515 371.671 374.574 372.784 374.674C377.16 367.136 383.434 360.88 390.981 356.53C398.527 352.181 407.082 349.889 415.789 349.885C424.497 349.881 433.054 352.164 440.604 356.507C448.155 360.85 454.435 367.1 458.818 374.633C459.757 374.562 460.702 374.515 461.659 374.515C471.255 374.515 480.485 378.202 487.445 384.816C494.405 391.429 498.565 400.465 499.067 410.059" fill="#F2F2F2"/>
<path d="M339.802 407.174C340.304 397.58 344.464 388.544 351.424 381.931C358.384 375.317 367.615 371.63 377.211 371.63C378.349 371.63 379.473 371.689 380.586 371.789C384.962 364.251 391.236 357.995 398.783 353.645C406.329 349.296 414.884 347.004 423.591 347C432.299 346.996 440.856 349.279 448.406 353.622C455.957 357.965 462.237 364.215 466.621 371.748C467.559 371.677 468.504 371.63 469.461 371.63C479.057 371.63 488.287 375.317 495.247 381.931C502.208 388.544 506.368 397.58 506.869 407.174" stroke="#3F3D56" stroke-miterlimit="10"/>
<path d="M1115 412.059C1115.5 402.465 1119.66 393.429 1126.62 386.816C1133.58 380.202 1142.81 376.515 1152.41 376.515C1153.55 376.515 1154.67 376.574 1155.78 376.674C1160.16 369.136 1166.43 362.88 1173.98 358.53C1181.53 354.181 1190.08 351.889 1198.79 351.885C1207.5 351.881 1216.05 354.164 1223.6 358.507C1231.15 362.85 1237.44 369.1 1241.82 376.633C1242.76 376.562 1243.7 376.515 1244.66 376.515C1254.25 376.515 1263.48 380.202 1270.45 386.816C1277.41 393.429 1281.57 402.465 1282.07 412.059" fill="#F2F2F2"/>
<path d="M1122.8 409.174C1123.3 399.58 1127.46 390.544 1134.42 383.931C1141.38 377.317 1150.61 373.63 1160.21 373.63C1161.35 373.63 1162.47 373.689 1163.59 373.789C1167.96 366.251 1174.24 359.995 1181.78 355.645C1189.33 351.296 1197.88 349.004 1206.59 349C1215.3 348.996 1223.86 351.279 1231.41 355.622C1238.96 359.965 1245.24 366.215 1249.62 373.748C1250.56 373.677 1251.5 373.63 1252.46 373.63C1262.06 373.63 1271.29 377.317 1278.25 383.931C1285.21 390.544 1289.37 399.58 1289.87 409.174" stroke="#3F3D56" stroke-miterlimit="10"/>
<path d="M1320 495.059C1320.5 485.465 1324.66 476.429 1331.62 469.816C1338.58 463.202 1347.81 459.515 1357.41 459.515C1358.55 459.515 1359.67 459.574 1360.78 459.674C1365.16 452.136 1371.43 445.88 1378.98 441.53C1386.53 437.181 1395.08 434.889 1403.79 434.885C1412.5 434.881 1421.05 437.164 1428.6 441.507C1436.15 445.85 1442.44 452.1 1446.82 459.633C1447.76 459.562 1448.7 459.515 1449.66 459.515C1459.25 459.515 1468.48 463.202 1475.45 469.816C1482.41 476.429 1486.57 485.465 1487.07 495.059" fill="#F2F2F2"/>
<path d="M1327.8 492.174C1328.3 482.58 1332.46 473.544 1339.42 466.931C1346.38 460.317 1355.61 456.63 1365.21 456.63C1366.35 456.63 1367.47 456.689 1368.59 456.789C1372.96 449.251 1379.24 442.995 1386.78 438.645C1394.33 434.296 1402.88 432.004 1411.59 432C1420.3 431.996 1428.86 434.279 1436.41 438.622C1443.96 442.965 1450.24 449.215 1454.62 456.748C1455.56 456.677 1456.5 456.63 1457.46 456.63C1467.06 456.63 1476.29 460.317 1483.25 466.931C1490.21 473.544 1494.37 482.58 1494.87 492.174" stroke="#3F3D56" stroke-miterlimit="10"/>
<path d="M1251 780.059C1251.5 770.465 1255.66 761.429 1262.62 754.816C1269.58 748.202 1278.81 744.515 1288.41 744.515C1289.55 744.515 1290.67 744.574 1291.78 744.674C1296.16 737.136 1302.43 730.88 1309.98 726.53C1317.53 722.181 1326.08 719.889 1334.79 719.885C1343.5 719.881 1352.05 722.164 1359.6 726.507C1367.15 730.85 1373.44 737.1 1377.82 744.633C1378.76 744.562 1379.7 744.515 1380.66 744.515C1390.25 744.515 1399.48 748.202 1406.45 754.816C1413.41 761.429 1417.57 770.465 1418.07 780.059" fill="#F2F2F2"/>
<path d="M1258.8 777.174C1259.3 767.58 1263.46 758.544 1270.42 751.931C1277.38 745.317 1286.61 741.63 1296.21 741.63C1297.35 741.63 1298.47 741.689 1299.59 741.789C1303.96 734.251 1310.24 727.995 1317.78 723.645C1325.33 719.296 1333.88 717.004 1342.59 717C1351.3 716.996 1359.86 719.279 1367.41 723.622C1374.96 727.965 1381.24 734.215 1385.62 741.748C1386.56 741.677 1387.5 741.63 1388.46 741.63C1398.06 741.63 1407.29 745.317 1414.25 751.931C1421.21 758.544 1425.37 767.58 1425.87 777.174" stroke="#3F3D56" stroke-miterlimit="10"/>
<path d="M232 761.059C232.502 751.465 236.661 742.429 243.622 735.816C250.582 729.202 259.812 725.515 269.408 725.515C270.547 725.515 271.671 725.574 272.784 725.674C277.16 718.136 283.434 711.88 290.981 707.53C298.527 703.181 307.081 700.889 315.789 700.885C324.497 700.881 333.054 703.164 340.604 707.507C348.155 711.85 354.435 718.1 358.818 725.633C359.757 725.562 360.702 725.515 361.659 725.515C371.255 725.515 380.485 729.202 387.445 735.816C394.405 742.429 398.565 751.465 399.067 761.059" fill="#F2F2F2"/>
<path d="M239.802 758.174C240.304 748.58 244.464 739.544 251.424 732.931C258.384 726.317 267.614 722.63 277.21 722.63C278.349 722.63 279.473 722.689 280.586 722.789C284.962 715.251 291.236 708.995 298.783 704.645C306.329 700.296 314.884 698.004 323.591 698C332.299 697.996 340.856 700.279 348.406 704.622C355.957 708.965 362.237 715.215 366.62 722.748C367.559 722.677 368.504 722.63 369.461 722.63C379.057 722.63 388.287 726.317 395.247 732.931C402.208 739.544 406.368 748.58 406.869 758.174" stroke="#3F3D56" stroke-miterlimit="10"/>
</svg>
