<svg width="1341" height="804" viewBox="0 0 1341 804" fill="none" xmlns="http://www.w3.org/2000/svg">
<g clip-path="url(#clip0)">
<path d="M1137 615.059C1137.5 605.465 1141.66 596.429 1148.62 589.816C1155.58 583.202 1164.81 579.515 1174.41 579.515C1175.55 579.515 1176.67 579.574 1177.78 579.674C1182.16 572.136 1188.43 565.88 1195.98 561.53C1203.53 557.181 1212.08 554.889 1220.79 554.885C1229.5 554.881 1238.05 557.164 1245.6 561.507C1253.15 565.85 1259.44 572.1 1263.82 579.633C1264.76 579.562 1265.7 579.515 1266.66 579.515C1276.25 579.515 1285.48 583.202 1292.45 589.816C1299.41 596.429 1303.57 605.465 1304.07 615.059" fill="#F2F2F2"/>
<path d="M1144.8 612.174C1145.3 602.58 1149.46 593.544 1156.42 586.931C1163.38 580.317 1172.61 576.63 1182.21 576.63C1183.35 576.63 1184.47 576.689 1185.59 576.789C1189.96 569.251 1196.24 562.995 1203.78 558.645C1211.33 554.296 1219.88 552.004 1228.59 552C1237.3 551.996 1245.86 554.279 1253.41 558.622C1260.96 562.965 1267.24 569.215 1271.62 576.748C1272.56 576.677 1273.5 576.63 1274.46 576.63C1284.06 576.63 1293.29 580.317 1300.25 586.931C1307.21 593.544 1311.37 602.58 1311.87 612.174" stroke="#3F3D56" stroke-miterlimit="10"/>
<path d="M-60 275.059C-59.4985 265.465 -55.3385 256.429 -48.3781 249.816C-41.4178 243.202 -32.1877 239.515 -22.5917 239.515C-21.4532 239.515 -20.329 239.574 -19.2164 239.674C-14.8404 232.136 -8.56584 225.88 -1.01933 221.53C6.52717 217.181 15.0815 214.889 23.7893 214.885C32.4971 214.881 41.0535 217.164 48.6041 221.507C56.1547 225.85 62.4352 232.1 66.8183 239.633C67.757 239.562 68.7019 239.515 69.6586 239.515C79.2546 239.515 88.4846 243.202 95.445 249.816C102.405 256.429 106.565 265.465 107.067 275.059" fill="#F2F2F2"/>
<path d="M-52.1979 272.174C-51.6964 262.58 -47.5364 253.544 -40.576 246.931C-33.6156 240.317 -24.3856 236.63 -14.7896 236.63C-13.6511 236.63 -12.5269 236.689 -11.4143 236.789C-7.03831 229.251 -0.763731 222.995 6.78277 218.645C14.3293 214.296 22.8836 212.004 31.5914 212C40.2991 211.996 48.8556 214.279 56.4062 218.622C63.9568 222.965 70.2373 229.215 74.6204 236.748C75.559 236.677 76.504 236.63 77.4607 236.63C87.0567 236.63 96.2867 240.317 103.247 246.931C110.207 253.544 114.367 262.58 114.869 272.174" stroke="#3F3D56" stroke-miterlimit="10"/>
<path d="M331.869 162.059C331.367 152.465 327.207 143.429 320.247 136.816C313.287 130.202 304.057 126.515 294.461 126.515C293.322 126.515 292.198 126.574 291.085 126.674C286.709 119.136 280.435 112.88 272.888 108.53C265.342 104.181 256.787 101.889 248.08 101.885C239.372 101.881 230.815 104.164 223.265 108.507C215.714 112.85 209.434 119.1 205.051 126.633C204.112 126.562 203.167 126.515 202.21 126.515C192.614 126.515 183.384 130.202 176.424 136.816C169.463 143.429 165.304 152.465 164.802 162.059" fill="#F2F2F2"/>
<path d="M324.067 159.174C323.565 149.58 319.405 140.544 312.445 133.931C305.485 127.317 296.255 123.63 286.659 123.63C285.52 123.63 284.396 123.689 283.283 123.789C278.907 116.251 272.633 109.995 265.086 105.645C257.54 101.296 248.985 99.0041 240.278 99C231.57 98.9959 223.013 101.279 215.463 105.622C207.912 109.965 201.632 116.215 197.249 123.748C196.31 123.677 195.365 123.63 194.408 123.63C184.812 123.63 175.582 127.317 168.622 133.931C161.662 140.544 157.502 149.58 157 159.174" stroke="#3F3D56" stroke-miterlimit="10"/>
<path d="M752 133.059C752.502 123.465 756.661 114.429 763.622 107.816C770.582 101.202 779.812 97.5147 789.408 97.5145C790.547 97.5145 791.671 97.574 792.784 97.6736C797.16 90.1362 803.434 83.8802 810.981 79.5304C818.527 75.1805 827.082 72.8891 835.789 72.885C844.497 72.8809 853.054 75.1642 860.604 79.5069C868.155 83.8495 874.435 90.0996 878.818 97.6328C879.757 97.5622 880.702 97.5145 881.659 97.5145C891.255 97.5147 900.485 101.202 907.445 107.816C914.405 114.429 918.565 123.465 919.067 133.059" fill="#F2F2F2"/>
<path d="M759.802 130.174C760.304 120.58 764.464 111.544 771.424 104.931C778.384 98.3169 787.615 94.6297 797.211 94.6295C798.349 94.6295 799.473 94.689 800.586 94.7885C804.962 87.2512 811.236 80.9952 818.783 76.6453C826.329 72.2955 834.884 70.0041 843.591 70C852.299 69.9959 860.856 72.2792 868.406 76.6219C875.957 80.9645 882.237 87.2146 886.621 94.7478C887.559 94.6772 888.504 94.6295 889.461 94.6295C899.057 94.6297 908.287 98.3169 915.247 104.931C922.208 111.544 926.368 120.58 926.869 130.174" stroke="#3F3D56" stroke-miterlimit="10"/>
<path d="M1319.87 278.059C1319.37 268.465 1315.21 259.429 1308.25 252.816C1301.29 246.202 1292.06 242.515 1282.46 242.515C1281.32 242.515 1280.2 242.574 1279.09 242.674C1274.71 235.136 1268.44 228.88 1260.89 224.53C1253.34 220.181 1244.79 217.889 1236.08 217.885C1227.37 217.881 1218.82 220.164 1211.27 224.507C1203.71 228.85 1197.43 235.1 1193.05 242.633C1192.11 242.562 1191.17 242.515 1190.21 242.515C1180.61 242.515 1171.38 246.202 1164.42 252.816C1157.46 259.429 1153.3 268.465 1152.8 278.059" fill="#F2F2F2"/>
<path d="M1312.07 275.174C1311.57 265.58 1307.41 256.544 1300.45 249.931C1293.48 243.317 1284.25 239.63 1274.66 239.63C1273.52 239.63 1272.4 239.689 1271.28 239.789C1266.91 232.251 1260.63 225.995 1253.09 221.645C1245.54 217.296 1236.99 215.004 1228.28 215C1219.57 214.996 1211.01 217.279 1203.46 221.622C1195.91 225.965 1189.63 232.215 1185.25 239.748C1184.31 239.677 1183.37 239.63 1182.41 239.63C1172.81 239.63 1163.58 243.317 1156.62 249.931C1149.66 256.544 1145.5 265.58 1145 275.174" stroke="#3F3D56" stroke-miterlimit="10"/>
<path d="M1246.87 774.059C1246.37 764.465 1242.21 755.429 1235.25 748.816C1228.29 742.202 1219.06 738.515 1209.46 738.515C1208.32 738.515 1207.2 738.574 1206.09 738.674C1201.71 731.136 1195.44 724.88 1187.89 720.53C1180.34 716.181 1171.79 713.889 1163.08 713.885C1154.37 713.881 1145.82 716.164 1138.27 720.507C1130.71 724.85 1124.43 731.1 1120.05 738.633C1119.11 738.562 1118.17 738.515 1117.21 738.515C1107.61 738.515 1098.38 742.202 1091.42 748.816C1084.46 755.429 1080.3 764.465 1079.8 774.059" fill="#F2F2F2"/>
<path d="M1239.07 771.174C1238.57 761.58 1234.41 752.544 1227.45 745.931C1220.48 739.317 1211.25 735.63 1201.66 735.63C1200.52 735.63 1199.4 735.689 1198.28 735.789C1193.91 728.251 1187.63 721.995 1180.09 717.645C1172.54 713.296 1163.99 711.004 1155.28 711C1146.57 710.996 1138.01 713.279 1130.46 717.622C1122.91 721.965 1116.63 728.215 1112.25 735.748C1111.31 735.677 1110.37 735.63 1109.41 735.63C1099.81 735.63 1090.58 739.317 1083.62 745.931C1076.66 752.544 1072.5 761.58 1072 771.174" stroke="#3F3D56" stroke-miterlimit="10"/>
<path d="M50 737.059C50.5015 727.465 54.6615 718.429 61.6219 711.816C68.5822 705.202 77.8123 701.515 87.4083 701.515C88.5468 701.515 89.671 701.574 90.7836 701.674C95.1596 694.136 101.434 687.88 108.981 683.53C116.527 679.181 125.081 676.889 133.789 676.885C142.497 676.881 151.054 679.164 158.604 683.507C166.155 687.85 172.435 694.1 176.818 701.633C177.757 701.562 178.702 701.515 179.659 701.515C189.255 701.515 198.485 705.202 205.445 711.816C212.405 718.429 216.565 727.465 217.067 737.059" fill="#F2F2F2"/>
<path d="M57.8021 734.174C58.3036 724.58 62.4636 715.544 69.424 708.931C76.3844 702.317 85.6144 698.63 95.2104 698.63C96.3489 698.63 97.4731 698.689 98.5857 698.789C102.962 691.251 109.236 684.995 116.783 680.645C124.329 676.296 132.884 674.004 141.591 674C150.299 673.996 158.856 676.279 166.406 680.622C173.957 684.965 180.237 691.215 184.62 698.748C185.559 698.677 186.504 698.63 187.461 698.63C197.057 698.63 206.287 702.317 213.247 708.931C220.207 715.544 224.367 724.58 224.869 734.174" stroke="#3F3D56" stroke-miterlimit="10"/>
</g>
<defs>
<clipPath id="clip0">
<rect width="1341" height="804" fill="white"/>
</clipPath>
</defs>
</svg>
