<svg width="1299" height="435" viewBox="0 0 1299 435" fill="none" xmlns="http://www.w3.org/2000/svg">
<path d="M988 292.059C988.502 282.465 992.661 273.429 999.622 266.816C1006.58 260.202 1015.81 256.515 1025.41 256.515C1026.55 256.515 1027.67 256.574 1028.78 256.674C1033.16 249.136 1039.43 242.88 1046.98 238.53C1054.53 234.181 1063.08 231.889 1071.79 231.885C1080.5 231.881 1089.05 234.164 1096.6 238.507C1104.15 242.85 1110.44 249.1 1114.82 256.633C1115.76 256.562 1116.7 256.515 1117.66 256.515C1127.25 256.515 1136.48 260.202 1143.45 266.816C1150.41 273.429 1154.57 282.465 1155.07 292.059" fill="#F2F2F2"/>
<path d="M995.802 289.174C996.304 279.58 1000.46 270.544 1007.42 263.931C1014.38 257.317 1023.61 253.63 1033.21 253.63C1034.35 253.63 1035.47 253.689 1036.59 253.789C1040.96 246.251 1047.24 239.995 1054.78 235.645C1062.33 231.296 1070.88 229.004 1079.59 229C1088.3 228.996 1096.86 231.279 1104.41 235.622C1111.96 239.965 1118.24 246.215 1122.62 253.748C1123.56 253.677 1124.5 253.63 1125.46 253.63C1135.06 253.63 1144.29 257.317 1151.25 263.931C1158.21 270.544 1162.37 279.58 1162.87 289.174" stroke="#3F3D56" stroke-miterlimit="10"/>
<path d="M0 201.059C0.50152 191.465 4.66146 182.429 11.6219 175.816C18.5822 169.202 27.8123 165.515 37.4083 165.515C38.5468 165.515 39.671 165.574 40.7836 165.674C45.1596 158.136 51.4342 151.88 58.9807 147.53C66.5272 143.181 75.0815 140.889 83.7893 140.885C92.4971 140.881 101.054 143.164 108.604 147.507C116.155 151.85 122.435 158.1 126.818 165.633C127.757 165.562 128.702 165.515 129.659 165.515C139.255 165.515 148.485 169.202 155.445 175.816C162.405 182.429 166.565 191.465 167.067 201.059" fill="#F2F2F2"/>
<path d="M7.80212 198.174C8.30365 188.58 12.4636 179.544 19.424 172.931C26.3844 166.317 35.6144 162.63 45.2104 162.63C46.3489 162.63 47.4731 162.689 48.5857 162.789C52.9617 155.251 59.2363 148.995 66.7828 144.645C74.3293 140.296 82.8836 138.004 91.5914 138C100.299 137.996 108.856 140.279 116.406 144.622C123.957 148.965 130.237 155.215 134.62 162.748C135.559 162.677 136.504 162.63 137.461 162.63C147.057 162.63 156.287 166.317 163.247 172.931C170.207 179.544 174.367 188.58 174.869 198.174" stroke="#3F3D56" stroke-miterlimit="10"/>
<path d="M135 64.0594C135.502 54.4651 139.661 45.4292 146.622 38.8156C153.582 32.2019 162.812 28.5147 172.408 28.5145C173.547 28.5145 174.671 28.574 175.784 28.6736C180.16 21.1362 186.434 14.8802 193.981 10.5304C201.527 6.18053 210.082 3.88914 218.789 3.88502C227.497 3.88089 236.054 6.16419 243.604 10.5069C251.155 14.8495 257.435 21.0996 261.818 28.6328C262.757 28.5622 263.702 28.5145 264.659 28.5145C274.255 28.5147 283.485 32.2019 290.445 38.8156C297.405 45.4293 301.565 54.4651 302.067 64.0595" fill="#F2F2F2"/>
<path d="M142.802 61.1744C143.304 51.5801 147.464 42.5442 154.424 35.9306C161.384 29.3169 170.614 25.6297 180.21 25.6295C181.349 25.6295 182.473 25.689 183.586 25.7885C187.962 18.2512 194.236 11.9952 201.783 7.64535C209.329 3.29552 217.884 1.00413 226.591 1.00001C235.299 0.995884 243.856 3.27918 251.406 7.62185C258.957 11.9645 265.237 18.2146 269.62 25.7478C270.559 25.6772 271.504 25.6295 272.461 25.6295C282.057 25.6297 291.287 29.3169 298.247 35.9306C305.208 42.5443 309.367 51.5801 309.869 61.1744" stroke="#3F3D56" stroke-miterlimit="10"/>
<path d="M918 66.0594C918.502 56.4651 922.661 47.4292 929.622 40.8156C936.582 34.2019 945.812 30.5147 955.408 30.5145C956.547 30.5145 957.671 30.574 958.784 30.6736C963.16 23.1362 969.434 16.8802 976.981 12.5304C984.527 8.18053 993.082 5.88914 1001.79 5.88502C1010.5 5.88089 1019.05 8.16419 1026.6 12.5069C1034.15 16.8495 1040.44 23.0996 1044.82 30.6328C1045.76 30.5622 1046.7 30.5145 1047.66 30.5145C1057.25 30.5147 1066.48 34.2019 1073.45 40.8156C1080.41 47.4293 1084.57 56.4651 1085.07 66.0595" fill="#F2F2F2"/>
<path d="M925.802 63.1744C926.304 53.5801 930.464 44.5442 937.424 37.9306C944.384 31.3169 953.615 27.6297 963.211 27.6295C964.349 27.6295 965.473 27.689 966.586 27.7885C970.962 20.2512 977.236 13.9952 984.783 9.64535C992.329 5.29552 1000.88 3.00413 1009.59 3.00001C1018.3 2.99588 1026.86 5.27918 1034.41 9.62185C1041.96 13.9645 1048.24 20.2146 1052.62 27.7478C1053.56 27.6772 1054.5 27.6295 1055.46 27.6295C1065.06 27.6297 1074.29 31.3169 1081.25 37.9306C1088.21 44.5443 1092.37 53.5801 1092.87 63.1744" stroke="#3F3D56" stroke-miterlimit="10"/>
<path d="M1123 149.059C1123.5 139.465 1127.66 130.429 1134.62 123.816C1141.58 117.202 1150.81 113.515 1160.41 113.515C1161.55 113.515 1162.67 113.574 1163.78 113.674C1168.16 106.136 1174.43 99.8802 1181.98 95.5304C1189.53 91.1805 1198.08 88.8891 1206.79 88.885C1215.5 88.8809 1224.05 91.1642 1231.6 95.5069C1239.15 99.8495 1245.44 106.1 1249.82 113.633C1250.76 113.562 1251.7 113.515 1252.66 113.515C1262.25 113.515 1271.48 117.202 1278.45 123.816C1285.41 130.429 1289.57 139.465 1290.07 149.059" fill="#F2F2F2"/>
<path d="M1130.8 146.174C1131.3 136.58 1135.46 127.544 1142.42 120.931C1149.38 114.317 1158.61 110.63 1168.21 110.63C1169.35 110.63 1170.47 110.689 1171.59 110.789C1175.96 103.251 1182.24 96.9952 1189.78 92.6453C1197.33 88.2955 1205.88 86.0041 1214.59 86C1223.3 85.9959 1231.86 88.2792 1239.41 92.6219C1246.96 96.9645 1253.24 103.215 1257.62 110.748C1258.56 110.677 1259.5 110.63 1260.46 110.63C1270.06 110.63 1279.29 114.317 1286.25 120.931C1293.21 127.544 1297.37 136.58 1297.87 146.174" stroke="#3F3D56" stroke-miterlimit="10"/>
<path d="M1054 434.059C1054.5 424.465 1058.66 415.429 1065.62 408.816C1072.58 402.202 1081.81 398.515 1091.41 398.515C1092.55 398.515 1093.67 398.574 1094.78 398.674C1099.16 391.136 1105.43 384.88 1112.98 380.53C1120.53 376.181 1129.08 373.889 1137.79 373.885C1146.5 373.881 1155.05 376.164 1162.6 380.507C1170.15 384.85 1176.44 391.1 1180.82 398.633C1181.76 398.562 1182.7 398.515 1183.66 398.515C1193.25 398.515 1202.48 402.202 1209.45 408.816C1216.41 415.429 1220.57 424.465 1221.07 434.059" fill="#F2F2F2"/>
<path d="M1061.8 431.174C1062.3 421.58 1066.46 412.544 1073.42 405.931C1080.38 399.317 1089.61 395.63 1099.21 395.63C1100.35 395.63 1101.47 395.689 1102.59 395.789C1106.96 388.251 1113.24 381.995 1120.78 377.645C1128.33 373.296 1136.88 371.004 1145.59 371C1154.3 370.996 1162.86 373.279 1170.41 377.622C1177.96 381.965 1184.24 388.215 1188.62 395.748C1189.56 395.677 1190.5 395.63 1191.46 395.63C1201.06 395.63 1210.29 399.317 1217.25 405.931C1224.21 412.544 1228.37 421.58 1228.87 431.174" stroke="#3F3D56" stroke-miterlimit="10"/>
<path d="M35 415.059C35.5015 405.465 39.6615 396.429 46.6219 389.816C53.5822 383.202 62.8123 379.515 72.4083 379.515C73.5468 379.515 74.671 379.574 75.7836 379.674C80.1596 372.136 86.4341 365.88 93.9806 361.53C101.527 357.181 110.081 354.889 118.789 354.885C127.497 354.881 136.054 357.164 143.604 361.507C151.155 365.85 157.435 372.1 161.818 379.633C162.757 379.562 163.702 379.515 164.659 379.515C174.255 379.515 183.485 383.202 190.445 389.816C197.405 396.429 201.565 405.465 202.067 415.059" fill="#F2F2F2"/>
<path d="M42.8021 412.174C43.3036 402.58 47.4636 393.544 54.424 386.931C61.3844 380.317 70.6144 376.63 80.2104 376.63C81.3489 376.63 82.4731 376.689 83.5857 376.789C87.9617 369.251 94.2362 362.995 101.783 358.645C109.329 354.296 117.884 352.004 126.591 352C135.299 351.996 143.856 354.279 151.406 358.622C158.957 362.965 165.237 369.215 169.62 376.748C170.559 376.677 171.504 376.63 172.461 376.63C182.057 376.63 191.287 380.317 198.247 386.931C205.207 393.544 209.367 402.58 209.869 412.174" stroke="#3F3D56" stroke-miterlimit="10"/>
</svg>
