<svg width="1341" height="804" viewBox="0 0 1341 804" fill="none" xmlns="http://www.w3.org/2000/svg">
<g clip-path="url(#clip0)">
<path d="M1142 482.059C1142.5 472.465 1146.66 463.429 1153.62 456.816C1160.58 450.202 1169.81 446.515 1179.41 446.515C1180.55 446.515 1181.67 446.574 1182.78 446.674C1187.16 439.136 1193.43 432.88 1200.98 428.53C1208.53 424.181 1217.08 421.889 1225.79 421.885C1234.5 421.881 1243.05 424.164 1250.6 428.507C1258.15 432.85 1264.44 439.1 1268.82 446.633C1269.76 446.562 1270.7 446.515 1271.66 446.515C1281.25 446.515 1290.48 450.202 1297.45 456.816C1304.41 463.429 1308.57 472.465 1309.07 482.059" fill="#F2F2F2"/>
<path d="M1149.8 479.174C1150.3 469.58 1154.46 460.544 1161.42 453.931C1168.38 447.317 1177.61 443.63 1187.21 443.63C1188.35 443.63 1189.47 443.689 1190.59 443.789C1194.96 436.251 1201.24 429.995 1208.78 425.645C1216.33 421.296 1224.88 419.004 1233.59 419C1242.3 418.996 1250.86 421.279 1258.41 425.622C1265.96 429.965 1272.24 436.215 1276.62 443.748C1277.56 443.677 1278.5 443.63 1279.46 443.63C1289.06 443.63 1298.29 447.317 1305.25 453.931C1312.21 460.544 1316.37 469.58 1316.87 479.174" stroke="#3F3D56" stroke-miterlimit="10"/>
<path d="M-60 275.059C-59.4985 265.465 -55.3385 256.429 -48.3781 249.816C-41.4178 243.202 -32.1877 239.515 -22.5917 239.515C-21.4532 239.515 -20.329 239.574 -19.2164 239.674C-14.8404 232.136 -8.56584 225.88 -1.01933 221.53C6.52717 217.181 15.0815 214.889 23.7893 214.885C32.4971 214.881 41.0535 217.164 48.6041 221.507C56.1547 225.85 62.4352 232.1 66.8183 239.633C67.757 239.562 68.7019 239.515 69.6586 239.515C79.2546 239.515 88.4846 243.202 95.445 249.816C102.405 256.429 106.565 265.465 107.067 275.059" fill="#F2F2F2"/>
<path d="M-52.1979 272.174C-51.6964 262.58 -47.5364 253.544 -40.576 246.931C-33.6156 240.317 -24.3856 236.63 -14.7896 236.63C-13.6511 236.63 -12.5269 236.689 -11.4143 236.789C-7.03831 229.251 -0.763731 222.995 6.78277 218.645C14.3293 214.296 22.8836 212.004 31.5914 212C40.2991 211.996 48.8556 214.279 56.4062 218.622C63.9568 222.965 70.2373 229.215 74.6204 236.748C75.559 236.677 76.504 236.63 77.4607 236.63C87.0567 236.63 96.2867 240.317 103.247 246.931C110.207 253.544 114.367 262.58 114.869 272.174" stroke="#3F3D56" stroke-miterlimit="10"/>
<path d="M331.869 162.059C331.367 152.465 327.207 143.429 320.247 136.816C313.287 130.202 304.057 126.515 294.461 126.515C293.322 126.515 292.198 126.574 291.085 126.674C286.709 119.136 280.435 112.88 272.888 108.53C265.342 104.181 256.787 101.889 248.08 101.885C239.372 101.881 230.815 104.164 223.265 108.507C215.714 112.85 209.434 119.1 205.051 126.633C204.112 126.562 203.167 126.515 202.21 126.515C192.614 126.515 183.384 130.202 176.424 136.816C169.463 143.429 165.304 152.465 164.802 162.059" fill="#F2F2F2"/>
<path d="M324.067 159.174C323.565 149.58 319.405 140.544 312.445 133.931C305.485 127.317 296.255 123.63 286.659 123.63C285.52 123.63 284.396 123.689 283.283 123.789C278.907 116.251 272.633 109.995 265.086 105.645C257.54 101.296 248.985 99.0041 240.278 99C231.57 98.9959 223.013 101.279 215.463 105.622C207.912 109.965 201.632 116.215 197.249 123.748C196.31 123.677 195.365 123.63 194.408 123.63C184.812 123.63 175.582 127.317 168.622 133.931C161.662 140.544 157.502 149.58 157 159.174" stroke="#3F3D56" stroke-miterlimit="10"/>
<path d="M940 195.059C940.502 185.465 944.661 176.429 951.622 169.816C958.582 163.202 967.812 159.515 977.408 159.515C978.547 159.515 979.671 159.574 980.784 159.674C985.16 152.136 991.434 145.88 998.981 141.53C1006.53 137.181 1015.08 134.889 1023.79 134.885C1032.5 134.881 1041.05 137.164 1048.6 141.507C1056.15 145.85 1062.44 152.1 1066.82 159.633C1067.76 159.562 1068.7 159.515 1069.66 159.515C1079.25 159.515 1088.48 163.202 1095.45 169.816C1102.41 176.429 1106.57 185.465 1107.07 195.059" fill="#F2F2F2"/>
<path d="M947.802 192.174C948.304 182.58 952.464 173.544 959.424 166.931C966.384 160.317 975.615 156.63 985.211 156.63C986.349 156.63 987.473 156.689 988.586 156.789C992.962 149.251 999.236 142.995 1006.78 138.645C1014.33 134.296 1022.88 132.004 1031.59 132C1040.3 131.996 1048.86 134.279 1056.41 138.622C1063.96 142.965 1070.24 149.215 1074.62 156.748C1075.56 156.677 1076.5 156.63 1077.46 156.63C1087.06 156.63 1096.29 160.317 1103.25 166.931C1110.21 173.544 1114.37 182.58 1114.87 192.174" stroke="#3F3D56" stroke-miterlimit="10"/>
<path d="M1319.87 278.059C1319.37 268.465 1315.21 259.429 1308.25 252.816C1301.29 246.202 1292.06 242.515 1282.46 242.515C1281.32 242.515 1280.2 242.574 1279.09 242.674C1274.71 235.136 1268.44 228.88 1260.89 224.53C1253.34 220.181 1244.79 217.889 1236.08 217.885C1227.37 217.881 1218.82 220.164 1211.27 224.507C1203.71 228.85 1197.43 235.1 1193.05 242.633C1192.11 242.562 1191.17 242.515 1190.21 242.515C1180.61 242.515 1171.38 246.202 1164.42 252.816C1157.46 259.429 1153.3 268.465 1152.8 278.059" fill="#F2F2F2"/>
<path d="M1312.07 275.174C1311.57 265.58 1307.41 256.544 1300.45 249.931C1293.48 243.317 1284.25 239.63 1274.66 239.63C1273.52 239.63 1272.4 239.689 1271.28 239.789C1266.91 232.251 1260.63 225.995 1253.09 221.645C1245.54 217.296 1236.99 215.004 1228.28 215C1219.57 214.996 1211.01 217.279 1203.46 221.622C1195.91 225.965 1189.63 232.215 1185.25 239.748C1184.31 239.677 1183.37 239.63 1182.41 239.63C1172.81 239.63 1163.58 243.317 1156.62 249.931C1149.66 256.544 1145.5 265.58 1145 275.174" stroke="#3F3D56" stroke-miterlimit="10"/>
<path d="M1251.87 641.059C1251.37 631.465 1247.21 622.429 1240.25 615.816C1233.29 609.202 1224.06 605.515 1214.46 605.515C1213.32 605.515 1212.2 605.574 1211.09 605.674C1206.71 598.136 1200.44 591.88 1192.89 587.53C1185.34 583.181 1176.79 580.889 1168.08 580.885C1159.37 580.881 1150.82 583.164 1143.27 587.507C1135.71 591.85 1129.43 598.1 1125.05 605.633C1124.11 605.562 1123.17 605.515 1122.21 605.515C1112.61 605.515 1103.38 609.202 1096.42 615.816C1089.46 622.429 1085.3 631.465 1084.8 641.059" fill="#F2F2F2"/>
<path d="M1244.07 638.174C1243.57 628.58 1239.41 619.544 1232.45 612.931C1225.48 606.317 1216.25 602.63 1206.66 602.63C1205.52 602.63 1204.4 602.689 1203.28 602.789C1198.91 595.251 1192.63 588.995 1185.09 584.645C1177.54 580.296 1168.99 578.004 1160.28 578C1151.57 577.996 1143.01 580.279 1135.46 584.622C1127.91 588.965 1121.63 595.215 1117.25 602.748C1116.31 602.677 1115.37 602.63 1114.41 602.63C1104.81 602.63 1095.58 606.317 1088.62 612.931C1081.66 619.544 1077.5 628.58 1077 638.174" stroke="#3F3D56" stroke-miterlimit="10"/>
<path d="M50 558.059C50.5015 548.465 54.6615 539.429 61.6219 532.816C68.5822 526.202 77.8123 522.515 87.4083 522.515C88.5468 522.515 89.671 522.574 90.7836 522.674C95.1596 515.136 101.434 508.88 108.981 504.53C116.527 500.181 125.081 497.889 133.789 497.885C142.497 497.881 151.054 500.164 158.604 504.507C166.155 508.85 172.435 515.1 176.818 522.633C177.757 522.562 178.702 522.515 179.659 522.515C189.255 522.515 198.485 526.202 205.445 532.816C212.405 539.429 216.565 548.465 217.067 558.059" fill="#F2F2F2"/>
<path d="M57.8021 555.174C58.3036 545.58 62.4636 536.544 69.424 529.931C76.3844 523.317 85.6144 519.63 95.2104 519.63C96.3489 519.63 97.4731 519.689 98.5857 519.789C102.962 512.251 109.236 505.995 116.783 501.645C124.329 497.296 132.884 495.004 141.591 495C150.299 494.996 158.856 497.279 166.406 501.622C173.957 505.965 180.237 512.215 184.62 519.748C185.559 519.677 186.504 519.63 187.461 519.63C197.057 519.63 206.287 523.317 213.247 529.931C220.207 536.544 224.367 545.58 224.869 555.174" stroke="#3F3D56" stroke-miterlimit="10"/>
</g>
<defs>
<clipPath id="clip0">
<rect width="1341" height="804" fill="white"/>
</clipPath>
</defs>
</svg>
