<svg width="1341" height="804" viewBox="0 0 1341 804" fill="none" xmlns="http://www.w3.org/2000/svg">
<g clip-path="url(#clip0)">
<path d="M999 615.059C999.502 605.465 1003.66 596.429 1010.62 589.816C1017.58 583.202 1026.81 579.515 1036.41 579.515C1037.55 579.515 1038.67 579.574 1039.78 579.674C1044.16 572.136 1050.43 565.88 1057.98 561.53C1065.53 557.181 1074.08 554.889 1082.79 554.885C1091.5 554.881 1100.05 557.164 1107.6 561.507C1115.15 565.85 1121.44 572.1 1125.82 579.633C1126.76 579.562 1127.7 579.515 1128.66 579.515C1138.25 579.515 1147.48 583.202 1154.45 589.816C1161.41 596.429 1165.57 605.465 1166.07 615.059" fill="#F2F2F2"/>
<path d="M1006.8 612.174C1007.3 602.58 1011.46 593.544 1018.42 586.931C1025.38 580.317 1034.61 576.63 1044.21 576.63C1045.35 576.63 1046.47 576.689 1047.59 576.789C1051.96 569.251 1058.24 562.995 1065.78 558.645C1073.33 554.296 1081.88 552.004 1090.59 552C1099.3 551.996 1107.86 554.279 1115.41 558.622C1122.96 562.965 1129.24 569.215 1133.62 576.748C1134.56 576.677 1135.5 576.63 1136.46 576.63C1146.06 576.63 1155.29 580.317 1162.25 586.931C1169.21 593.544 1173.37 602.58 1173.87 612.174" stroke="#3F3D56" stroke-miterlimit="10"/>
<path d="M1082.87 355.059C1082.37 345.465 1078.21 336.429 1071.25 329.816C1064.29 323.202 1055.06 319.515 1045.46 319.515C1044.32 319.515 1043.2 319.574 1042.09 319.674C1037.71 312.136 1031.43 305.88 1023.89 301.53C1016.34 297.181 1007.79 294.889 999.08 294.885C990.372 294.881 981.816 297.164 974.265 301.507C966.714 305.85 960.434 312.1 956.051 319.633C955.112 319.562 954.167 319.515 953.211 319.515C943.615 319.515 934.385 323.202 927.424 329.816C920.464 336.429 916.304 345.465 915.802 355.059" fill="#F2F2F2"/>
<path d="M1075.07 352.174C1074.57 342.58 1070.41 333.544 1063.45 326.931C1056.48 320.317 1047.25 316.63 1037.66 316.63C1036.52 316.63 1035.4 316.689 1034.28 316.789C1029.91 309.251 1023.63 302.995 1016.09 298.645C1008.54 294.296 999.985 292.004 991.278 292C982.57 291.996 974.013 294.279 966.463 298.622C958.912 302.965 952.632 309.215 948.249 316.748C947.31 316.677 946.365 316.63 945.408 316.63C935.812 316.63 926.582 320.317 919.622 326.931C912.662 333.544 908.502 342.58 908 352.174" stroke="#3F3D56" stroke-miterlimit="10"/>
<path d="M-78 343.059C-77.4985 333.465 -73.3385 324.429 -66.3781 317.816C-59.4178 311.202 -50.1877 307.515 -40.5917 307.515C-39.4532 307.515 -38.329 307.574 -37.2164 307.674C-32.8404 300.136 -26.5658 293.88 -19.0193 289.53C-11.4728 285.181 -2.9185 282.889 5.78927 282.885C14.4971 282.881 23.0535 285.164 30.6041 289.507C38.1547 293.85 44.4352 300.1 48.8183 307.633C49.757 307.562 50.7019 307.515 51.6586 307.515C61.2546 307.515 70.4846 311.202 77.445 317.816C84.4054 324.429 88.5654 333.465 89.0669 343.059" fill="#F2F2F2"/>
<path d="M-70.1978 340.174C-69.6962 330.58 -65.5363 321.544 -58.5759 314.931C-51.6155 308.317 -42.3855 304.63 -32.7895 304.63C-31.651 304.63 -30.5268 304.689 -29.4142 304.789C-25.0382 297.251 -18.7636 290.995 -11.2171 286.645C-3.6706 282.296 4.8837 280.004 13.5915 280C22.2993 279.996 30.8557 282.279 38.4063 286.622C45.9569 290.965 52.2374 297.215 56.6205 304.748C57.5592 304.677 58.5041 304.63 59.4608 304.63C69.0568 304.63 78.2868 308.317 85.2472 314.931C92.2076 321.544 96.3675 330.58 96.8691 340.174" stroke="#3F3D56" stroke-miterlimit="10"/>
<path d="M217 229.059C217.502 219.465 221.661 210.429 228.622 203.816C235.582 197.202 244.812 193.515 254.408 193.515C255.547 193.515 256.671 193.574 257.784 193.674C262.16 186.136 268.434 179.88 275.981 175.53C283.527 171.181 292.082 168.889 300.789 168.885C309.497 168.881 318.054 171.164 325.604 175.507C333.155 179.85 339.435 186.1 343.818 193.633C344.757 193.562 345.702 193.515 346.659 193.515C356.255 193.515 365.485 197.202 372.445 203.816C379.405 210.429 383.565 219.465 384.067 229.059" fill="#F2F2F2"/>
<path d="M224.802 226.174C225.304 216.58 229.463 207.544 236.424 200.931C243.384 194.317 252.614 190.63 262.21 190.63C263.349 190.63 264.473 190.689 265.586 190.789C269.962 183.251 276.236 176.995 283.783 172.645C291.329 168.296 299.883 166.004 308.591 166C317.299 165.996 325.855 168.279 333.406 172.622C340.957 176.965 347.237 183.215 351.62 190.748C352.559 190.677 353.504 190.63 354.461 190.63C364.057 190.63 373.287 194.317 380.247 200.931C387.207 207.544 391.367 216.58 391.869 226.174" stroke="#3F3D56" stroke-miterlimit="10"/>
<path d="M799 232.059C799.502 222.465 803.661 213.429 810.622 206.816C817.582 200.202 826.812 196.515 836.408 196.515C837.547 196.515 838.671 196.574 839.784 196.674C844.16 189.136 850.434 182.88 857.981 178.53C865.527 174.181 874.082 171.889 882.789 171.885C891.497 171.881 900.054 174.164 907.604 178.507C915.155 182.85 921.435 189.1 925.818 196.633C926.757 196.562 927.702 196.515 928.659 196.515C938.255 196.515 947.485 200.202 954.445 206.816C961.405 213.429 965.565 222.465 966.067 232.059" fill="#F2F2F2"/>
<path d="M806.802 229.174C807.304 219.58 811.464 210.544 818.424 203.931C825.384 197.317 834.615 193.63 844.211 193.63C845.349 193.63 846.473 193.689 847.586 193.789C851.962 186.251 858.236 179.995 865.783 175.645C873.329 171.296 881.884 169.004 890.591 169C899.299 168.996 907.856 171.279 915.406 175.622C922.957 179.965 929.237 186.215 933.621 193.748C934.559 193.677 935.504 193.63 936.461 193.63C946.057 193.63 955.287 197.317 962.247 203.931C969.208 210.544 973.368 219.58 973.869 229.174" stroke="#3F3D56" stroke-miterlimit="10"/>
<path d="M506.067 642.174C505.565 632.58 501.405 623.544 494.445 616.931C487.485 610.317 478.255 606.63 468.659 606.63C467.52 606.63 466.396 606.689 465.283 606.789C460.907 599.251 454.633 592.995 447.086 588.645C439.54 584.296 430.985 582.004 422.278 582C413.57 581.996 405.013 584.279 397.463 588.622C389.912 592.965 383.632 599.215 379.249 606.748C378.31 606.677 377.365 606.63 376.408 606.63C366.812 606.63 357.582 610.317 350.622 616.931C343.661 623.544 339.502 632.58 339 642.174" fill="#F2F2F2"/>
<path d="M498.067 642.174C497.565 632.58 493.405 623.544 486.445 616.931C479.485 610.317 470.255 606.63 460.659 606.63C459.52 606.63 458.396 606.689 457.283 606.789C452.907 599.251 446.633 592.995 439.086 588.645C431.54 584.296 422.985 582.004 414.278 582C405.57 581.996 397.013 584.279 389.463 588.622C381.912 592.965 375.632 599.215 371.249 606.748C370.31 606.677 369.365 606.63 368.408 606.63C358.812 606.63 349.582 610.317 342.622 616.931C335.662 623.544 331.502 632.58 331 642.174" stroke="#3F3D56" stroke-miterlimit="10"/>
<path d="M300.869 500.059C300.368 490.465 296.208 481.429 289.247 474.816C282.287 468.202 273.057 464.515 263.461 464.515C262.322 464.515 261.198 464.574 260.086 464.674C255.71 457.136 249.435 450.88 241.889 446.53C234.342 442.181 225.788 439.889 217.08 439.885C208.372 439.881 199.816 442.164 192.265 446.507C184.714 450.85 178.434 457.1 174.051 464.633C173.112 464.562 172.167 464.515 171.211 464.515C161.615 464.515 152.385 468.202 145.424 474.816C138.464 481.429 134.304 490.465 133.802 500.059" fill="#F2F2F2"/>
<path d="M293.067 497.174C292.565 487.58 288.405 478.544 281.445 471.931C274.485 465.317 265.255 461.63 255.659 461.63C254.52 461.63 253.396 461.689 252.283 461.789C247.907 454.251 241.633 447.995 234.086 443.645C226.54 439.296 217.985 437.004 209.278 437C200.57 436.996 192.013 439.279 184.463 443.622C176.912 447.965 170.632 454.215 166.249 461.748C165.31 461.677 164.365 461.63 163.408 461.63C153.812 461.63 144.582 465.317 137.622 471.931C130.662 478.544 126.502 487.58 126 497.174" stroke="#3F3D56" stroke-miterlimit="10"/>
<path d="M1413.87 415.059C1413.37 405.465 1409.21 396.429 1402.25 389.816C1395.29 383.202 1386.06 379.515 1376.46 379.515C1375.32 379.515 1374.2 379.574 1373.09 379.674C1368.71 372.136 1362.44 365.88 1354.89 361.53C1347.34 357.181 1338.79 354.889 1330.08 354.885C1321.37 354.881 1312.82 357.164 1305.27 361.507C1297.71 365.85 1291.43 372.1 1287.05 379.633C1286.11 379.562 1285.17 379.515 1284.21 379.515C1274.61 379.515 1265.38 383.202 1258.42 389.816C1251.46 396.429 1247.3 405.465 1246.8 415.059" fill="#F2F2F2"/>
<path d="M1406.07 412.174C1405.57 402.58 1401.41 393.544 1394.45 386.931C1387.48 380.317 1378.25 376.63 1368.66 376.63C1367.52 376.63 1366.4 376.689 1365.28 376.789C1360.91 369.251 1354.63 362.995 1347.09 358.645C1339.54 354.296 1330.99 352.004 1322.28 352C1313.57 351.996 1305.01 354.279 1297.46 358.622C1289.91 362.965 1283.63 369.215 1279.25 376.748C1278.31 376.677 1277.37 376.63 1276.41 376.63C1266.81 376.63 1257.58 380.317 1250.62 386.931C1243.66 393.544 1239.5 402.58 1239 412.174" stroke="#3F3D56" stroke-miterlimit="10"/>
</g>
<defs>
<clipPath id="clip0">
<rect width="1341" height="804" fill="white"/>
</clipPath>
</defs>
</svg>
